<svg width="430" height="390" viewBox="0 0 430 390" fill="none" xmlns="http://www.w3.org/2000/svg">
<g clip-path="url(#clip0_262_160)">
<path d="M10.8945 389.094C10.8945 389.596 11.2979 390 11.8003 390H429.094C429.597 390 430 389.596 430 389.094C430 388.591 429.597 388.188 429.094 388.188H11.8003C11.2979 388.188 10.8945 388.591 10.8945 389.094V389.094Z" fill="#CCCCCC"/>
<path d="M143.947 383.144L135.389 383.143L131.318 350.127L143.948 350.128L143.947 383.144Z" fill="#FFB6B6"/>
<path d="M114.628 382.95C114.361 383.399 114.221 384.847 114.221 385.369C114.221 386.974 115.521 388.275 117.125 388.275H143.626C144.721 388.275 145.608 387.387 145.608 386.293V385.189C145.608 385.189 146.919 381.872 144.22 377.784C144.22 377.784 140.865 380.985 135.852 375.971L134.374 373.292L123.674 381.12L117.743 381.85C116.446 382.01 115.295 381.825 114.628 382.95H114.628V382.95H114.628Z" fill="#2F2E41"/>
<path d="M96.6211 337.286L88.0637 337.258L84.0977 304.229L96.7276 304.27L96.6211 337.286Z" fill="#FFB6B6"/>
<path d="M67.3034 336.999C67.0355 337.447 66.8903 338.895 66.8887 339.417C66.8836 341.022 68.1798 342.326 69.7839 342.332L96.2851 342.416C97.3793 342.419 98.2693 341.535 98.2728 340.44L98.2763 339.336C98.2763 339.336 99.5978 336.024 96.9117 331.927C96.9117 331.927 93.5469 335.117 88.5502 330.088L87.0805 327.404L76.3556 335.198L70.4224 335.909C69.1243 336.065 67.9745 335.877 67.3035 336.999H67.3034V336.999Z" fill="#2F2E41"/>
<path d="M131.466 182.707L120.811 183.468C120.811 183.468 84.7389 203.983 81.6946 208.55C78.6503 213.118 74.4643 219.589 78.2697 226.441C82.0751 233.292 79.1789 316.251 79.1789 316.251L97.3633 312.136L109.014 225.339L133.369 221.913C133.369 221.913 141.741 239.98 138.696 254.927C135.652 269.873 134.13 279.009 134.13 279.009L130.324 367.317L145.166 366.936L158.484 285.099L181.317 220.39L151.635 185.372L131.466 182.707Z" fill="#2F5675"/>
<path d="M183.98 89.0693L161.909 91.3532L159.626 98.966L138.315 110.385L145.165 158.346L139.838 166.72L142.121 175.094C142.121 175.094 136.032 175.855 136.793 180.423L123.094 182.707C123.094 182.707 141.264 186.417 145.117 204.736C148.971 223.054 180.936 225.338 180.936 225.338L206.052 146.926L208.335 100.489L190.83 95.9208L183.98 89.0693Z" fill="#00BFA6"/>
<path d="M172.347 86.1809C181.823 86.1809 189.505 78.4971 189.505 69.0187C189.505 59.5402 181.823 51.8564 172.347 51.8564C162.871 51.8564 155.189 59.5402 155.189 69.0187C155.189 78.4971 162.871 86.1809 172.347 86.1809Z" fill="#FFB6B6"/>
<path d="M163.431 84.5019C163.431 84.5019 148.209 83.7406 149.731 71.5602C145.964 58.5893 149.299 50.1675 161.148 47.1993C161.148 47.1993 164.192 46.438 164.953 46.438C174.964 46.438 180.175 49.4831 180.175 49.4831C180.175 49.4831 179.414 46.468 180.175 47.2143C180.936 47.9606 181.697 49.4831 181.697 49.4831C181.697 49.4831 189.308 53.2895 189.308 60.9023C189.308 68.5151 189.308 65.4699 189.308 65.4699C189.308 65.4699 187.786 65.4699 186.263 60.9023C184.741 56.3346 174.886 59.3797 174.886 59.3797L175.608 60.9023L173.325 60.141L171.042 62.4248L169.52 61.6636C169.52 61.6636 163.431 61.6636 164.192 61.6636C164.953 61.6636 164.423 66.8371 164.423 66.8371L158.864 73.0827L164.953 84.5019H163.431Z" fill="#2F2E41"/>
<path d="M82.3348 175.364C78.0017 177.729 75.709 181.883 77.2139 184.641C78.7189 187.399 83.4515 187.717 87.7846 185.352C89.6814 184.316 91.1871 182.938 92.1545 181.484L110.389 171.231L105.397 162.774L87.9505 173.78C86.2049 173.807 84.2316 174.328 82.3348 175.364H82.3348Z" fill="#FFB6B6"/>
<path d="M143.827 110.741C143.827 110.741 136.679 108.018 134.216 111.295C131.753 114.572 115.484 154.334 115.484 154.334L91.6133 166.804L98.3259 178.496L129.064 168.26L149.344 131.16L143.827 110.741V110.741Z" fill="#00BFA6"/>
<path d="M369.24 241.324V322.019C369.24 329.155 363.436 334.961 356.301 334.961H156.897C149.763 334.961 143.959 329.155 143.959 322.019V241.324C143.959 234.187 149.763 228.382 156.897 228.382H356.301C363.436 228.382 369.24 234.187 369.24 241.324Z" fill="white"/>
<path d="M369.24 241.324V322.019C369.24 329.155 363.436 334.961 356.301 334.961H156.897C149.763 334.961 143.959 329.155 143.959 322.019V241.324C143.959 234.187 149.763 228.382 156.897 228.382H356.301C363.436 228.382 369.24 234.187 369.24 241.324ZM356.301 333.438C362.606 333.438 367.717 328.326 367.717 322.019V281.336C367.717 252.931 344.697 229.904 316.299 229.904H156.897C150.592 229.904 145.481 235.017 145.481 241.324V322.019C145.481 328.326 150.592 333.438 156.897 333.438H356.301Z" fill="#1B67A5"/>
<path d="M233.47 277.135H207.425C206.769 277.135 206.234 277.669 206.234 278.326C206.234 278.983 206.769 279.517 207.425 279.517H233.47C234.127 279.517 234.661 278.983 234.661 278.326C234.661 277.669 234.127 277.135 233.47 277.135Z" fill="#00BFA6"/>
<path d="M273.046 277.135H247.001C246.345 277.135 245.811 277.669 245.811 278.326C245.811 278.983 246.345 279.517 247.001 279.517H273.046C273.703 279.517 274.237 278.983 274.237 278.326C274.237 277.669 273.703 277.135 273.046 277.135Z" fill="#00BFA6"/>
<path d="M233.47 290.158H207.425C206.769 290.158 206.234 290.692 206.234 291.349C206.234 292.005 206.769 292.54 207.425 292.54H233.47C234.127 292.54 234.661 292.005 234.661 291.349C234.661 290.692 234.127 290.158 233.47 290.158Z" fill="#00BFA6"/>
<path d="M273.046 290.158H247.001C246.345 290.158 245.811 290.692 245.811 291.349C245.811 292.005 246.345 292.54 247.001 292.54H273.046C273.703 292.54 274.237 292.005 274.237 291.349C274.237 290.692 273.703 290.158 273.046 290.158Z" fill="#00BFA6"/>
<path d="M313.813 291.349C313.813 290.692 313.279 290.158 312.622 290.158H286.578C285.921 290.158 285.387 290.692 285.387 291.349C285.387 292.005 285.921 292.54 286.578 292.54H312.622C313.279 292.54 313.813 292.005 313.813 291.349Z" fill="#00BFA6"/>
<path d="M218.249 266.737C218.906 266.737 219.44 266.203 219.44 265.546C219.44 264.889 218.906 264.355 218.249 264.355H192.205C191.548 264.355 191.014 264.889 191.014 265.546C191.014 266.203 191.548 266.737 192.205 266.737H218.249Z" fill="#00BFA6"/>
<path d="M294.951 266.253H320.995C321.652 266.253 322.186 265.718 322.186 265.062C322.186 264.405 321.652 263.871 320.995 263.871H294.951C294.294 263.871 293.76 264.405 293.76 265.062C293.76 265.718 294.294 266.253 294.951 266.253Z" fill="#00BFA6"/>
<path d="M229.222 266.503H283.219C283.875 266.503 284.409 265.969 284.409 265.312C284.409 264.655 283.875 264.121 283.219 264.121H229.222C228.566 264.121 228.031 264.655 228.031 265.312C228.031 265.969 228.566 266.503 229.222 266.503Z" fill="#00BFA6"/>
<path d="M250.466 301.989H224.421C223.765 301.989 223.23 302.523 223.23 303.18C223.23 303.837 223.765 304.371 224.421 304.371H250.466C251.123 304.371 251.657 303.837 251.657 303.18C251.657 302.523 251.123 301.989 250.466 301.989Z" fill="#00BFA6"/>
<path d="M334.581 240.715V321.411C334.581 328.547 328.777 334.352 321.642 334.352H240.968C233.833 334.352 228.029 328.547 228.029 321.411V240.715C228.029 233.579 233.833 227.773 240.968 227.773H321.642C328.777 227.773 334.581 233.579 334.581 240.715Z" fill="white"/>
<path d="M334.581 240.715V321.411C334.581 328.547 328.777 334.352 321.642 334.352H240.968C233.833 334.352 228.029 328.547 228.029 321.411V240.715C228.029 233.579 233.833 227.773 240.968 227.773H321.642C328.777 227.773 334.581 233.579 334.581 240.715ZM316.638 332.83C325.707 332.83 333.059 325.476 333.059 316.405V280.727C333.059 252.323 310.038 229.296 281.641 229.296H240.968C234.663 229.296 229.551 234.409 229.551 240.715V310.152C229.551 322.677 239.702 332.83 252.224 332.83H316.638V332.83H316.638V332.83Z" fill="#1B67A5"/>
<path d="M292.044 260.731H265.999C265.343 260.731 264.809 260.196 264.809 259.54C264.809 258.883 265.343 258.349 265.999 258.349H292.044C292.701 258.349 293.235 258.883 293.235 259.54C293.235 260.196 292.701 260.731 292.044 260.731V260.731Z" fill="#00BFA6"/>
<path d="M292.044 286.13H265.999C265.343 286.13 264.809 285.595 264.809 284.938C264.809 284.282 265.343 283.748 265.999 283.748H292.044C292.701 283.748 293.235 284.282 293.235 284.938C293.235 285.595 292.701 286.13 292.044 286.13V286.13Z" fill="#00BFA6"/>
<path d="M279.107 321.149H253.062C252.405 321.149 251.871 320.614 251.871 319.958C251.871 319.301 252.405 318.767 253.062 318.767H279.107C279.763 318.767 280.297 319.301 280.297 319.958C280.297 320.614 279.763 321.149 279.107 321.149V321.149Z" fill="#00BFA6"/>
<path d="M306.019 273.439H252.023C251.366 273.439 250.832 272.904 250.832 272.248C250.832 271.591 251.366 271.057 252.023 271.057H306.019C306.676 271.057 307.21 271.591 307.21 272.248C307.21 272.904 306.676 273.439 306.019 273.439V273.439V273.439Z" fill="#00BFA6"/>
<path d="M319.402 196C319.402 170.826 298.131 156.978 273.833 150.419C242.682 142.01 219.867 159.027 228.265 196C230.168 204.379 234.721 214.166 240.356 222.538H285.072C300.009 212.811 319.402 215.539 319.402 196H319.402Z" fill="#00BFA6"/>
<path d="M273.164 243.587C275.708 238.737 278.933 235.237 282.486 232.574H240.604C251.383 247.976 265.679 257.861 273.164 243.587Z" fill="#00BFA6"/>
<path d="M268.331 169.051C271.02 169.051 273.2 171.231 273.2 173.921V183.66H263.463V173.921C263.463 171.231 265.643 169.051 268.331 169.051V169.051ZM275.634 183.66V173.921C275.634 169.887 272.365 166.616 268.331 166.616C264.298 166.616 261.029 169.887 261.029 173.921V183.66C258.34 183.66 256.16 185.841 256.16 188.53V200.704C256.16 203.394 258.34 205.574 261.029 205.574H275.634C278.323 205.574 280.503 203.394 280.503 200.704V188.53C280.503 185.841 278.323 183.66 275.634 183.66H275.634ZM261.029 186.095H275.634C276.979 186.095 278.068 187.185 278.068 188.53V200.704C278.068 202.049 276.979 203.139 275.634 203.139H261.029C259.684 203.139 258.594 202.049 258.594 200.704V188.53C258.594 187.185 259.684 186.095 261.029 186.095V186.095Z" fill="white"/>
<path d="M198.756 225.752C198.169 230.655 200.222 234.932 203.341 235.306C206.46 235.679 209.465 232.008 210.052 227.105C210.309 224.959 210.06 222.933 209.437 221.301L211.664 200.496L201.881 199.659L200.724 220.258C199.734 221.696 199.013 223.606 198.756 225.752V225.752Z" fill="#FFB6B6"/>
<path d="M201.104 101.631C201.104 101.631 211.759 98.5854 214.043 103.153C216.326 107.721 221.653 167.862 221.653 167.862L211.379 215.867L199.582 212.777L205.671 164.055L197.299 127.514L201.104 101.631Z" fill="#00BFA6"/>
<path d="M44.5233 247.674C69.1129 247.674 89.0467 227.735 89.0467 203.139C89.0467 178.543 69.1129 158.604 44.5233 158.604C19.9338 158.604 0 178.543 0 203.139C0 227.735 19.9338 247.674 44.5233 247.674Z" fill="#00BFA6"/>
<path d="M44.5242 183.202C47.6694 183.202 50.2191 185.753 50.2191 188.899V200.291H38.8294V188.899C38.8294 185.753 41.3791 183.202 44.5242 183.202V183.202ZM53.0665 200.291V188.898C53.0665 184.18 49.242 180.354 44.5242 180.354C39.8065 180.354 35.982 184.18 35.982 188.898V200.291C32.8368 200.291 30.2871 202.841 30.2871 205.987V220.228C30.2871 223.374 32.8368 225.925 35.982 225.925H53.0665C56.2117 225.925 58.7614 223.374 58.7614 220.228V205.987C58.7614 202.841 56.2117 200.291 53.0665 200.291H53.0665V200.291ZM35.982 203.139H53.0665C54.6391 203.139 55.9139 204.414 55.9139 205.987V220.228C55.9139 221.801 54.6391 223.076 53.0665 223.076H35.982C34.4094 223.076 33.1345 221.801 33.1345 220.228V205.987C33.1345 204.414 34.4094 203.139 35.982 203.139V203.139Z" fill="white"/>
</g>
<defs>
<clipPath id="clip0_262_160">
<rect width="430" height="390" fill="white"/>
</clipPath>
</defs>
</svg>
