<svg width="587" height="411" viewBox="0 0 587 411" fill="none" xmlns="http://www.w3.org/2000/svg">
<g clip-path="url(#clip0_262_206)">
<path d="M518.379 400.668L508.558 400.668L503.887 362.772L518.381 362.773L518.379 400.668Z" fill="#FFB8B8"/>
<path d="M520.884 410.191L489.219 410.19V409.789C489.219 406.519 490.518 403.383 492.829 401.071C495.14 398.758 498.275 397.459 501.544 397.459H501.545L520.885 397.46L520.884 410.191Z" fill="#1D74BA"/>
<path d="M561.722 376.514L555.347 383.988L523.5 362.945L532.908 351.915L561.722 376.514Z" fill="#FFB8B8"/>
<path d="M570.59 380.79L550.036 404.887L549.731 404.627C547.244 402.505 545.703 399.481 545.445 396.221C545.187 392.961 546.234 389.732 548.355 387.244L548.356 387.243L560.91 372.525L570.59 380.79Z" fill="#1D74BA"/>
<path d="M448.651 214.304L445.594 242.509L569.169 240.746L515.277 152.897L471.275 151.315L448.651 214.304Z" fill="#2F2E41"/>
<path opacity="0.28" d="M448.651 214.304L445.594 242.509L569.169 240.746L515.277 152.897L471.275 151.315L448.651 214.304Z" fill="black"/>
<path d="M472.951 219.146L468.588 244.953V268.021L503.762 279.508C503.762 279.508 499.645 369.107 505.134 374.814L504.999 388.59L520.344 389.288L520.469 379.593L526.975 307.123L530.806 253.916L524.594 213.576L472.951 219.146Z" fill="#00BFA6"/>
<path d="M500.202 241.361L468.588 268.021C468.588 268.021 466.737 316.121 471.436 321.762C475.472 326.607 527.959 368.397 527.959 368.397C527.959 368.397 537.288 376.958 542.515 377.094C547.743 377.231 553.823 366.261 553.823 366.261L541.716 357.058C541.716 357.058 510.351 327.768 501.038 316.121C497.279 311.421 497.279 310.951 497.279 310.951L498.563 291.403L511.484 255.123L500.202 241.361Z" fill="#00BFA6"/>
<path d="M466.637 113.66L453.006 112.399L440.643 114.461L414.463 114.469L412.232 133.452L436.124 138.8L441.945 135.946L466.215 145.196L466.637 113.66Z" fill="#2F5675"/>
<path d="M482.917 113.6C482.917 113.6 511.845 110.889 518.423 116.059C525.001 121.23 539.097 223.705 539.097 223.705L482.917 226.877L472.846 219.945L475.705 168.785L482.917 113.6Z" fill="#CCCCCC"/>
<path d="M491.747 112.962L459.838 113.663L430.088 248.149L453.581 253.32L491.747 112.962Z" fill="#2F5675"/>
<path d="M514.429 111.825L539.565 119.696L538.137 174.952L569.167 241.015L532.689 244.859L503.855 173.523L514.429 111.825Z" fill="#2F5675"/>
<path d="M555.878 247.726C556.759 246.95 557.459 245.99 557.93 244.913C558.4 243.837 558.628 242.671 558.599 241.497C558.57 240.323 558.284 239.169 557.762 238.118C557.239 237.066 556.492 236.142 555.573 235.41L560.63 217.762L550.66 212.072L543.868 237.095C542.742 238.72 542.251 240.702 542.488 242.665C542.725 244.628 543.673 246.436 545.153 247.747C546.634 249.057 548.543 249.779 550.52 249.775C552.496 249.771 554.403 249.042 555.878 247.726V247.726Z" fill="#FFB8B8"/>
<path d="M525 121.23L539.873 119.939C539.873 119.939 553.225 133.91 556.263 144.728C559.3 155.545 562.589 189.39 562.589 189.39L561.217 238.902L543.832 227.091L542.666 184.504L525 121.23Z" fill="#2F5675"/>
<path d="M521.412 96.3448C526.997 86.1236 523.242 73.3081 513.025 67.7207C502.808 62.1333 489.998 65.8897 484.413 76.111C478.828 86.3322 482.583 99.1477 492.8 104.735C503.017 110.323 515.827 106.566 521.412 96.3448Z" fill="#FFB8B8"/>
<path d="M500.563 77.4217C497.797 76.7823 494.925 77.4908 492.123 77.9502C489.322 78.4095 486.234 78.5609 483.864 76.9971C482.114 75.8422 481.038 73.9315 480.028 72.0936C479.606 71.4373 479.325 70.7006 479.202 69.93C479.083 68.5708 479.948 67.3307 480.866 66.3214C485.129 61.6333 491.358 59.0674 497.641 58.2523C502.822 57.4798 508.115 58.1265 512.959 60.1236C517.728 62.2163 521.827 66.0484 523.702 70.9089C524.566 73.3965 525.105 75.9852 525.307 78.6109C525.59 80.5427 525.626 82.5027 525.415 84.4438C525.162 85.8827 524.784 87.2967 524.285 88.6696L521.179 98.0521C520.956 98.9388 520.539 99.7648 519.958 100.471C519.659 100.816 519.257 101.056 518.811 101.154C518.365 101.252 517.899 101.202 517.484 101.013C517.732 99.9939 517.77 98.9347 517.595 97.9005C517.498 97.385 517.248 96.9105 516.879 96.538C516.51 96.1655 516.038 95.9122 515.524 95.8106C514.379 95.6891 513.401 96.5769 512.315 96.9593C511.818 97.1067 511.297 97.1547 510.781 97.1006C510.265 97.0465 509.766 96.8913 509.31 96.6439C508.854 96.3966 508.452 96.0618 508.126 95.6589C507.799 95.2559 507.556 94.7926 507.408 94.2953C507.378 94.1951 507.353 94.0938 507.331 93.9914C507.16 92.9188 507.448 91.7705 507.041 90.7631C506.565 89.5829 505.302 88.9645 504.354 88.1164C503.488 87.3173 502.869 86.2876 502.568 85.1483C502.267 84.009 502.298 82.8075 502.656 81.685C502.91 80.9042 503.628 80.5492 503.484 79.6522C503.296 78.4754 501.562 77.6526 500.563 77.4217Z" fill="#2F2E41"/>
<path d="M266.17 166.581H0V0H266.17V166.581Z" fill="white"/>
<path d="M266.17 166.581H0V0H266.17V166.581ZM1.21539 165.365H264.955V1.21592H1.21539V165.365Z" fill="#3F3D56"/>
<path d="M233.658 397.301H81.7344V230.721H233.658V397.301Z" fill="white"/>
<path d="M233.658 397.301H81.7344V230.721H233.658V397.301ZM82.9498 396.086H232.443V231.937H82.9498V396.086Z" fill="#3F3D56"/>
<path d="M212.997 381.568H181.396V382.85H212.997V381.568Z" fill="#3F3D56"/>
<path d="M212.997 385.413H181.396V386.695H212.997V385.413Z" fill="#3F3D56"/>
<path d="M212.997 389.258H181.396V390.539H212.997V389.258Z" fill="#3F3D56"/>
<path d="M157.697 260.511V273.886C165.63 273.886 173.384 276.239 179.98 280.648C186.576 285.057 191.716 291.324 194.752 298.656C197.788 305.988 198.582 314.056 197.034 321.839C195.487 329.623 191.667 336.772 186.058 342.384L195.511 351.842C202.99 344.359 208.083 334.827 210.147 324.448C212.21 314.07 211.151 303.313 207.104 293.537C203.056 283.761 196.202 275.406 187.408 269.527C178.613 263.648 168.274 260.511 157.697 260.511Z" fill="#E6E6E6"/>
<path d="M195.512 351.841L186.058 342.384C179.201 349.245 170.09 353.388 160.414 354.044C150.738 354.701 141.152 351.826 133.432 345.954L125.34 356.605C135.635 364.434 148.417 368.264 161.319 367.389C174.22 366.513 186.368 360.989 195.512 351.841Z" fill="#1D74BA"/>
<path d="M117.588 314.011C117.588 308.742 118.625 303.524 120.641 298.656C122.657 293.788 125.611 289.364 129.335 285.638C133.06 281.912 137.481 278.957 142.347 276.94C147.213 274.924 152.429 273.886 157.696 273.886V260.511C146.501 260.511 135.588 264.025 126.496 270.559C117.404 277.093 110.591 286.317 107.017 296.931C103.443 307.545 103.289 319.013 106.576 329.719C109.863 340.425 116.425 349.829 125.338 356.606L133.43 345.954C128.503 342.215 124.509 337.385 121.76 331.843C119.012 326.301 117.584 320.198 117.588 314.011V314.011Z" fill="#00BFA6"/>
<path d="M458.506 293.948H306.582V127.367H458.506V293.948Z" fill="white"/>
<path d="M458.506 293.948H306.582V127.367H458.506V293.948ZM307.797 292.732H457.29V128.583H307.797V292.732Z" fill="#3F3D56"/>
<path d="M355.805 229.2H328.459V272.973H355.805V229.2Z" fill="#1D74BA"/>
<path d="M395.305 199.41H367.959V272.973H395.305V199.41Z" fill="#E6E6E6"/>
<path d="M434.805 164.757H407.459V272.974H434.805V164.757Z" fill="#00BFA6"/>
<path d="M443.92 274.19H321.166V147.126H322.381V272.974H443.92V274.19Z" fill="#3F3D56"/>
<path d="M414.325 131.803C418.947 131.803 422.695 128.054 422.695 123.429C422.695 118.805 418.947 115.056 414.325 115.056C409.702 115.056 405.955 118.805 405.955 123.429C405.955 128.054 409.702 131.803 414.325 131.803Z" fill="#FFB8B8"/>
<path d="M586.302 411H455.871C455.686 411 455.509 410.927 455.378 410.796C455.247 410.665 455.174 410.487 455.174 410.302C455.174 410.117 455.247 409.94 455.378 409.809C455.509 409.678 455.686 409.604 455.871 409.604H586.302C586.487 409.604 586.664 409.678 586.795 409.809C586.926 409.94 586.999 410.117 586.999 410.302C586.999 410.487 586.926 410.665 586.795 410.796C586.664 410.927 586.487 411 586.302 411Z" fill="#CCCCCC"/>
<path d="M229.206 131.742H36.9649C36.8053 131.742 36.6523 131.679 36.5395 131.566C36.4267 131.453 36.3633 131.3 36.3633 131.14V38.9593C36.3633 38.7997 36.4267 38.6466 36.5395 38.5337C36.6523 38.4208 36.8053 38.3574 36.9649 38.3574C37.1245 38.3574 37.2775 38.4208 37.3903 38.5337C37.5031 38.6466 37.5665 38.7997 37.5665 38.9593V130.539H229.206C229.285 130.538 229.363 130.554 229.436 130.584C229.51 130.614 229.576 130.658 229.632 130.714C229.688 130.77 229.733 130.836 229.763 130.91C229.794 130.983 229.809 131.061 229.809 131.14C229.809 131.22 229.794 131.298 229.763 131.371C229.733 131.444 229.688 131.511 229.632 131.567C229.576 131.623 229.51 131.667 229.436 131.697C229.363 131.727 229.285 131.743 229.206 131.742V131.742Z" fill="#3F3D56"/>
<path d="M78.0385 125.121H60.5535C60.08 125.121 59.6261 124.933 59.2913 124.598C58.9565 124.263 58.7681 123.809 58.7676 123.335V99.2211C58.7681 98.7475 58.9565 98.2934 59.2913 97.9584C59.6261 97.6235 60.08 97.4351 60.5535 97.4346H78.0385C78.512 97.4351 78.9659 97.6235 79.3007 97.9584C79.6356 98.2934 79.8239 98.7475 79.8245 99.2211V123.335C79.8239 123.809 79.6356 124.263 79.3008 124.598C78.966 124.933 78.512 125.121 78.0385 125.121V125.121Z" fill="#00BFA6"/>
<path d="M109.925 125.121H92.4402C91.9668 125.121 91.5128 124.932 91.178 124.597C90.8432 124.262 90.6549 123.808 90.6543 123.335V76.3491C90.6549 75.8754 90.8432 75.4213 91.178 75.0864C91.5128 74.7514 91.9668 74.563 92.4402 74.5625H109.925C110.399 74.563 110.853 74.7514 111.187 75.0864C111.522 75.4213 111.711 75.8754 111.711 76.3491V123.335C111.711 123.808 111.522 124.262 111.187 124.597C110.853 124.932 110.399 125.121 109.925 125.121V125.121Z" fill="#00BFA6"/>
<path d="M141.81 125.121H124.325C123.852 125.121 123.398 124.933 123.063 124.598C122.728 124.263 122.54 123.809 122.539 123.335V99.2211C122.54 98.7475 122.728 98.2934 123.063 97.9584C123.398 97.6235 123.852 97.4351 124.325 97.4346H141.81C142.284 97.4351 142.737 97.6235 143.072 97.9584C143.407 98.2934 143.595 98.7475 143.596 99.2211V123.335C143.595 123.809 143.407 124.263 143.072 124.598C142.737 124.933 142.284 125.121 141.81 125.121V125.121Z" fill="#00BFA6"/>
<path d="M173.697 125.121H156.212C155.749 125.131 155.301 124.957 154.967 124.638C154.632 124.318 154.437 123.879 154.426 123.416V67.2402C154.437 66.7774 154.632 66.3379 154.967 66.0182C155.301 65.6985 155.749 65.5246 156.212 65.5346H173.697C174.159 65.5246 174.607 65.6985 174.942 66.0182C175.277 66.3379 175.471 66.7774 175.483 67.2402V123.416C175.471 123.879 175.277 124.318 174.942 124.638C174.607 124.957 174.159 125.131 173.697 125.121V125.121Z" fill="#00BFA6"/>
<path d="M205.583 125.122H188.098C187.625 125.122 187.171 124.933 186.836 124.598C186.501 124.263 186.313 123.809 186.312 123.335V51.0707C186.313 50.5971 186.501 50.143 186.836 49.808C187.171 49.4731 187.625 49.2847 188.098 49.2842H205.583C206.057 49.2847 206.511 49.4731 206.846 49.808C207.18 50.143 207.369 50.5971 207.369 51.0707V123.335C207.369 123.809 207.18 124.263 206.846 124.598C206.511 124.933 206.057 125.122 205.583 125.122V125.122Z" fill="#00BFA6"/>
<path d="M69.2953 90.2119C71.2889 90.2119 72.9051 88.5951 72.9051 86.6006C72.9051 84.6061 71.2889 82.9893 69.2953 82.9893C67.3017 82.9893 65.6855 84.6061 65.6855 86.6006C65.6855 88.5951 67.3017 90.2119 69.2953 90.2119Z" fill="#3F3D56"/>
<path d="M101.182 66.7383C103.176 66.7383 104.792 65.1214 104.792 63.127C104.792 61.1325 103.176 59.5156 101.182 59.5156C99.1884 59.5156 97.5723 61.1325 97.5723 63.127C97.5723 65.1214 99.1884 66.7383 101.182 66.7383Z" fill="#3F3D56"/>
<path d="M133.069 90.2119C135.062 90.2119 136.679 88.5951 136.679 86.6006C136.679 84.6061 135.062 82.9893 133.069 82.9893C131.075 82.9893 129.459 84.6061 129.459 86.6006C129.459 88.5951 131.075 90.2119 133.069 90.2119Z" fill="#3F3D56"/>
<path d="M164.954 55.3027C166.947 55.3027 168.563 53.6859 168.563 51.6914C168.563 49.6969 166.947 48.0801 164.954 48.0801C162.96 48.0801 161.344 49.6969 161.344 51.6914C161.344 53.6859 162.96 55.3027 164.954 55.3027Z" fill="#3F3D56"/>
<path d="M196.84 42.0615C198.834 42.0615 200.45 40.4447 200.45 38.4502C200.45 36.4557 198.834 34.8389 196.84 34.8389C194.847 34.8389 193.23 36.4557 193.23 38.4502C193.23 40.4447 194.847 42.0615 196.84 42.0615Z" fill="#3F3D56"/>
<path d="M133.144 87.4095L101.183 63.4592L69.6567 87.0822L68.9355 86.1186L101.183 61.9547L132.992 85.7913L164.603 51.1843L164.73 51.1326L196.616 38.2793L197.066 39.3965L165.306 52.1982L133.144 87.4095Z" fill="#3F3D56"/>
</g>
<defs>
<clipPath id="clip0_262_206">
<rect width="587" height="411" fill="white"/>
</clipPath>
</defs>
</svg>
