<svg width="465" height="433" viewBox="0 0 465 433" fill="none" xmlns="http://www.w3.org/2000/svg">
<g clip-path="url(#clip0_262_113)">
<path d="M16.943 51.9781H12.3252C8.7876 24.8076 36.0069 4.17463 67.2266 1.65576C54.9656 4.46994 43.7454 10.6833 34.8519 19.5836C25.9585 28.4839 19.7517 39.7111 16.943 51.9781V51.9781Z" fill="#F2F2F2"/>
<path d="M88.8017 133.043C91.4149 133.012 93.9185 132.923 96.3125 132.779C93.828 133.162 91.307 133.251 88.8017 133.043V133.043Z" fill="#F2F2F2"/>
<path d="M146.906 66.7519C146.304 30.9627 117.798 1.83677 82.0178 1.83677C77.104 1.31479 72.1521 1.25415 67.227 1.65564C76.9969 -0.562387 87.1405 -0.551697 96.9057 1.68691C106.671 3.92552 115.807 8.33461 123.637 14.5872C131.466 20.8398 137.789 28.7756 142.135 37.8059C146.481 46.8362 148.739 56.7294 148.742 66.7519C148.742 100.688 147.528 129.64 96.3121 132.779C122.26 128.836 147.379 94.8544 146.906 66.7519Z" fill="#F2F2F2"/>
<path d="M17.7081 67.7974C29.4368 87.8707 75.5524 102.592 82.0173 131.668C84.2169 132.39 86.4936 132.852 88.8008 133.044C86.6757 133.069 84.4836 133.061 82.2053 133.009C45.7629 133.009 15.871 104.115 15.3063 67.7974L17.7081 67.7974Z" fill="#F2F2F2"/>
<path d="M76.7803 115.532C85.3088 97.0232 89.0435 77.0753 86.4278 55.2214C86.8319 52.6791 85.4154 50.1314 83.2612 49.5263L44.6496 38.7344C42.4946 38.1351 40.4191 39.7067 40.0101 42.2477L30.3625 102.559C29.9584 105.101 31.375 107.649 33.5291 108.254L72.1407 119.046C74.2958 119.645 76.3713 118.073 76.7803 115.532Z" fill="#F2F2F2"/>
<path d="M58.494 45.4061C57.9375 41.0971 60.4009 37.2271 63.9962 36.7624C67.5915 36.2977 70.9573 39.4141 71.5138 43.7232C72.0703 48.0322 69.6069 51.9021 66.0116 52.3669C62.4163 52.8316 59.0506 49.7152 58.494 45.4061Z" fill="#F2F2F2"/>
<path d="M129.103 86.0387C137.631 67.5295 141.366 47.5816 138.75 25.7278C139.154 23.1855 137.738 20.6378 135.584 20.0327L96.9719 9.24072C94.8168 8.6414 92.7413 10.2131 92.3323 12.7541L82.6848 73.065C82.2807 75.6073 83.6972 78.155 85.8513 78.7601L124.463 89.552C126.618 90.1513 128.694 88.5797 129.103 86.0387Z" fill="#F2F2F2"/>
<path d="M110.814 15.9125C110.258 11.6034 112.721 7.73348 116.317 7.26874C119.912 6.80401 123.278 9.92047 123.834 14.2295C124.391 18.5386 121.927 22.4085 118.332 22.8732C114.737 23.3379 111.371 20.2215 110.814 15.9125Z" fill="#F2F2F2"/>
<path d="M76.2545 286.418H465V287.684H76.2545V286.418Z" fill="#3F3D56"/>
<path d="M306.872 137.083C307.33 135.478 300.919 150.194 302.444 150.372C309.391 151.169 324.784 154.763 329.622 156.699C329.84 156.674 330.058 156.649 330.269 156.617C330.788 156.56 331.295 156.478 331.794 156.383C343.06 154.25 351.583 144.993 351.814 133.818C351.827 133.66 351.827 133.495 351.827 133.337C351.828 132.566 351.788 131.795 351.705 131.028C351.599 129.98 351.417 128.942 351.161 127.921L351.186 127.914C355.672 123.7 353.782 115.885 348.065 112.588C345.581 111.16 342.827 110.265 339.978 109.962C339.205 109.879 338.429 109.836 337.652 109.836H330.353C328.842 109.51 327.311 109.288 325.771 109.171H325.758C311.063 108.051 299.477 117.012 300.56 127.914C300.567 127.927 300.579 127.94 300.586 127.952C300.9 128.421 301.175 128.863 301.419 129.287C301.656 129.686 301.855 130.066 302.028 130.426C303.367 133.211 299.924 136.714 302.207 137.368C305.243 138.238 294.222 166.824 306.239 166.824C300.394 168.486 305.607 141.513 306.872 137.083Z" fill="#2F2E41"/>
<path d="M239.822 413.392L230.345 413.312L226.151 375.891L240.137 376.008L239.822 413.392Z" fill="#FFB6B6"/>
<path d="M209.466 428.468C209.458 429.592 209.895 430.673 210.683 431.475C211.47 432.276 212.544 432.733 213.667 432.744L232.509 432.901L235.808 426.212L237.019 432.935L244.129 433L242.334 409.021L239.86 408.856L229.771 408.16L226.516 407.942L226.459 414.727L211.323 424.998C210.756 425.383 210.291 425.9 209.967 426.504C209.644 427.108 209.472 427.782 209.466 428.468Z" fill="#2F2E41"/>
<path d="M227.809 394.623C231.579 394.168 241.092 393.358 241.092 393.358C241.092 393.358 245.583 383.98 244.855 381.063C244.141 378.133 242.357 377.538 244.014 376.007C248.049 361.086 247.404 336.851 247.404 336.851C247.404 336.851 269.125 326.328 291.117 314.147C312.616 302.232 334.375 288.735 336.342 281.932C337.64 277.067 338.512 272.098 338.948 267.081C339.277 263.791 339.479 260.563 339.606 257.672C339.903 251.053 339.783 246.161 339.783 246.161L312.376 245.706L294.223 245.288H292.325V248.452L287.556 256.564C287.556 256.564 279.315 266.151 280.282 267.043C281.452 268.125 281.098 269.087 276.943 269.871C275.761 270.079 274.557 270.128 273.363 270.017C266.652 269.504 263.843 273.345 263.679 274.187C262.553 280.129 251.263 293.037 240.687 304.054H240.681C230.921 314.229 221.775 322.784 221.775 322.784L221.256 333.7L218.821 384.733C218.821 384.733 223.388 382.177 219.308 387.688C215.228 393.206 224.039 395.073 227.809 394.623Z" fill="#2F5675"/>
<path d="M124.986 275.958L121.117 267.302L153.389 247.922L159.1 260.696L124.986 275.958Z" fill="#FFB6B6"/>
<path d="M98.6559 254.611C97.6307 255.071 96.8297 255.919 96.4286 256.969C96.0274 258.019 96.059 259.185 96.5162 260.212L104.21 277.419L111.663 277.638L106.055 281.537L108.953 288.032L130.004 276.425L129.125 274.106L125.561 264.638L124.405 261.586L118.214 264.356L102.583 254.857C101.997 254.501 101.334 254.293 100.65 254.25C99.9656 254.208 99.2815 254.332 98.6559 254.611V254.611Z" fill="#2F2E41"/>
<path d="M141.587 255.008C141.609 255.057 141.636 255.102 141.658 255.142C143.421 258.38 146.315 265.872 146.495 266.334C146.5 266.342 146.503 266.351 146.504 266.36C146.504 266.36 156.052 265.868 158.492 264.117C160.937 262.352 157.237 265.142 162.875 261.452C165.79 259.534 175.775 256.539 184.718 254.092C193.039 251.815 200.453 250.025 200.453 250.025C200.453 250.025 207.006 255.992 216.501 264.239L216.505 264.243C225.325 271.885 236.689 281.495 247.702 290.1C271.281 297.039 296.168 303.05 302.389 299.673C306.762 297.179 310.91 294.31 314.785 291.096L308.379 274.297L291.437 256.547L273.603 249.297L266.626 246.46L256.857 242.494L203.966 220.995L145.394 241.291C145.394 241.291 149.474 244.589 142.834 242.85C136.284 241.138 139.745 251.537 141.587 255.008Z" fill="#2F5675"/>
<path d="M326.48 157.332H307.504L304.517 163.929L291.809 169.594C290.156 170.332 288.7 171.448 287.558 172.852C286.415 174.256 285.619 175.909 285.233 177.678C280.657 198.605 286.445 202.953 286.631 209.853C287.264 233.265 290.523 237.922 290.158 243.702C290.049 245.432 288.994 252.271 285.599 251.627C282.204 250.983 284.034 253.687 283.23 254.738C282.536 255.646 278.885 254.441 281.177 257.458C283.469 260.475 273.67 268.701 279.674 268.701C291.059 268.701 313.829 274.396 322.684 274.396C331.54 274.396 338.383 277.022 342.292 276.927C344.675 276.869 343.93 265.753 342.978 256.126C342.762 253.947 338.578 254.004 342.333 249.962C346.087 245.921 341.668 243.821 341.66 242.757C341.651 241.627 339.531 238.78 342.177 234.125C344.822 229.469 342.384 231.395 342.499 229.933C343.384 218.667 344.653 204.301 344.653 204.301L350.247 188.551C351.676 184.526 351.487 180.102 349.719 176.213C347.951 172.324 344.743 169.274 340.77 167.706L334.209 165.117L326.48 157.332Z" fill="#00BFA6"/>
<path d="M193.213 151.523C193.635 152.31 194.223 152.996 194.935 153.533C195.648 154.071 196.469 154.447 197.342 154.636C198.214 154.825 199.117 154.822 199.988 154.627C200.859 154.432 201.678 154.051 202.387 153.509L229.117 168.648L235.121 162.281L203.241 144.532C202.24 143.405 200.861 142.685 199.365 142.508C197.869 142.331 196.36 142.71 195.124 143.571C193.888 144.433 193.01 145.718 192.658 147.184C192.306 148.649 192.504 150.193 193.213 151.523V151.523Z" fill="#FFB6B6"/>
<path d="M313.568 187.259L313.975 192.135L260.759 191.45L207.788 161.659L215.532 149.735L262.09 169.319L295.181 169.99C299.838 170.084 304.294 171.902 307.69 175.091C311.086 178.281 313.18 182.616 313.568 187.259V187.259Z" fill="#00BFA6"/>
<path d="M319.99 153.856C310.446 153.856 302.708 146.116 302.708 136.568C302.708 127.019 310.446 119.279 319.99 119.279C329.534 119.279 337.271 127.019 337.271 136.568C337.271 146.116 329.534 153.856 319.99 153.856Z" fill="#FFB6B6"/>
<path d="M300.56 128.857C300.849 129.009 301.131 129.148 301.419 129.288C301.72 129.433 302.022 129.579 302.323 129.711C308.109 132.337 312.82 132.629 315.678 128.857C315.754 126.873 316.2 124.92 316.991 123.099C316.852 125.134 317.388 127.158 318.517 128.857H324.271C330.199 132.793 333.243 133.204 329.129 146.126C327.982 149.726 323.421 170.677 325.215 173.784C325.734 173.727 331.295 156.478 331.795 156.383C343.061 154.251 351.584 144.993 351.814 133.818C351.802 133.249 351.763 132.679 351.706 132.122C350.963 131.006 350.148 129.941 349.264 128.933C349.268 125.946 348.582 122.998 347.258 120.321C345.583 116.929 342.973 114.088 339.735 112.133C337.805 111.197 335.793 110.44 333.724 109.874C333.672 109.861 333.628 109.849 333.576 109.836C332.942 109.665 332.295 109.507 331.647 109.374C330.31 109.092 328.958 108.887 327.597 108.76C327.501 108.754 327.405 108.748 327.315 108.748C326.772 108.749 326.239 108.895 325.771 109.172C325.765 109.172 325.765 109.178 325.758 109.178C325.424 109.373 325.132 109.634 324.899 109.944C324.49 110.465 324.269 111.109 324.271 111.772H317.863C317.626 111.772 317.389 111.779 317.152 111.791C312.875 111.937 308.806 113.675 305.742 116.664C302.678 119.653 300.84 123.679 300.586 127.952C300.567 128.256 300.56 128.553 300.56 128.857Z" fill="#2F2E41"/>
<path d="M343.558 132.021C337.27 132.021 332.173 126.922 332.173 120.631C332.173 114.341 337.27 109.241 343.558 109.241C349.846 109.241 354.943 114.341 354.943 120.631C354.943 126.922 349.846 132.021 343.558 132.021Z" fill="#2F2E41"/>
<path d="M329.642 111.772C329.424 118.059 334.739 123.162 341.027 123.162C344.046 123.162 346.942 121.962 349.077 119.826C351.213 117.69 352.412 114.793 352.412 111.772C352.412 105.481 344.797 105.416 341.027 100.382C335.694 93.2601 329.935 103.294 329.642 111.772Z" fill="#2F2E41"/>
<path d="M314.757 289.95C316.525 263.707 311.349 239.021 296.976 216.399C296.615 214.911 295.678 213.627 294.371 212.829C293.064 212.031 291.495 211.784 290.006 212.142L234.482 225.576C232.995 225.938 231.711 226.875 230.913 228.182C230.116 229.489 229.869 231.06 230.227 232.549L248.008 306.1C248.369 307.588 249.306 308.872 250.613 309.67C251.919 310.468 253.489 310.715 254.978 310.357L310.501 296.923C311.989 296.561 313.273 295.624 314.07 294.317C314.868 293.009 315.115 291.439 314.757 289.95V289.95Z" fill="#F2F2F2"/>
<path opacity="0.2" d="M303.876 295.524C305.363 295.162 306.647 294.225 307.445 292.917C308.242 291.61 308.489 290.04 308.131 288.551C309.899 262.307 304.723 237.622 290.35 215C290.108 214.024 289.613 213.129 288.914 212.406L290.006 212.142C291.495 211.784 293.064 212.031 294.371 212.829C295.678 213.627 296.615 214.911 296.976 216.399C311.349 239.021 316.525 263.706 314.757 289.95C315.115 291.439 314.868 293.009 314.07 294.317C313.273 295.624 311.989 296.561 310.502 296.923L254.978 310.357C253.991 310.592 252.959 310.562 251.987 310.27C251.016 309.978 250.138 309.434 249.444 308.693L303.876 295.524Z" fill="black"/>
<path d="M253.604 264.561L290.837 255.662C291.429 255.52 291.94 255.148 292.258 254.629C292.577 254.11 292.676 253.486 292.535 252.893C292.393 252.301 292.023 251.789 291.504 251.47C290.985 251.151 290.361 251.051 289.769 251.192L252.537 260.091C251.946 260.234 251.436 260.606 251.119 261.125C250.802 261.643 250.703 262.266 250.844 262.858C250.985 263.449 251.355 263.961 251.872 264.28C252.39 264.599 253.012 264.7 253.604 264.561L253.604 264.561Z" fill="white"/>
<path d="M279.717 245.363L287.909 243.405C288.501 243.265 289.013 242.895 289.333 242.377C289.653 241.859 289.754 241.235 289.615 240.643C289.475 240.05 289.106 239.537 288.589 239.216C288.071 238.895 287.448 238.793 286.855 238.932L286.841 238.936L278.65 240.893C278.059 241.037 277.55 241.408 277.232 241.927C276.915 242.446 276.816 243.069 276.957 243.66C277.099 244.252 277.468 244.763 277.986 245.082C278.503 245.401 279.126 245.502 279.717 245.363V245.363Z" fill="white"/>
<path d="M258.296 284.211L295.529 275.312C296.12 275.169 296.63 274.798 296.947 274.279C297.265 273.76 297.364 273.137 297.222 272.545C297.081 271.954 296.711 271.442 296.194 271.123C295.676 270.804 295.053 270.703 294.461 270.843L257.229 279.742C256.935 279.81 256.657 279.937 256.412 280.113C256.167 280.289 255.959 280.512 255.8 280.769C255.641 281.025 255.534 281.311 255.485 281.609C255.437 281.907 255.447 282.212 255.516 282.506C255.586 282.8 255.712 283.077 255.889 283.322C256.065 283.567 256.288 283.775 256.545 283.934C256.802 284.093 257.088 284.199 257.386 284.247C257.684 284.296 257.988 284.285 258.282 284.215L258.296 284.211Z" fill="white"/>
<path d="M255.951 274.386L293.183 265.487C293.776 265.346 294.288 264.975 294.608 264.457C294.927 263.938 295.028 263.313 294.887 262.72C294.746 262.127 294.376 261.615 293.857 261.295C293.338 260.975 292.714 260.875 292.121 261.016L292.116 261.017L254.883 269.916C254.293 270.059 253.782 270.431 253.465 270.95C253.148 271.468 253.049 272.092 253.19 272.683C253.331 273.275 253.701 273.786 254.219 274.106C254.736 274.425 255.359 274.526 255.951 274.386L255.951 274.386Z" fill="white"/>
<path d="M263.822 228.234C258.532 228.234 254.245 223.944 254.245 218.653C254.245 213.361 258.532 209.072 263.822 209.072C269.111 209.072 273.398 213.361 273.398 218.653C273.398 223.944 269.111 228.234 263.822 228.234Z" fill="#3F3D56"/>
<path d="M312.108 295.435C312.889 295.003 313.567 294.407 314.095 293.687C314.624 292.967 314.989 292.141 315.167 291.266C315.344 290.39 315.33 289.487 315.124 288.618C314.918 287.749 314.526 286.936 313.975 286.233L328.764 259.299L322.323 253.375L304.992 285.494C303.879 286.509 303.177 287.898 303.019 289.397C302.862 290.896 303.259 292.401 304.136 293.626C305.013 294.852 306.309 295.713 307.779 296.046C309.248 296.38 310.788 296.162 312.108 295.435H312.108Z" fill="#FFB6B6"/>
<path d="M329.382 176.21L345.288 174.675C346.03 174.603 346.779 174.688 347.486 174.923C348.194 175.158 348.844 175.538 349.396 176.04C349.948 176.541 350.389 177.152 350.691 177.834C350.993 178.516 351.148 179.254 351.148 180V227.352L322.053 280.723L310.035 273.13L329.011 226.304L329.382 176.21Z" fill="#00BFA6"/>
<path d="M203.812 172.368C200.124 146.325 189.964 123.241 171.231 104.077C170.57 102.695 169.388 101.633 167.945 101.122C166.501 100.611 164.914 100.694 163.532 101.352L111.979 125.968C110.598 126.629 109.535 127.812 109.025 129.256C108.514 130.699 108.597 132.287 109.255 133.67L141.836 201.961C142.497 203.343 143.679 204.406 145.122 204.916C146.565 205.427 148.152 205.345 149.535 204.686L201.088 180.07C202.469 179.409 203.531 178.226 204.042 176.783C204.553 175.339 204.47 173.751 203.812 172.368V172.368Z" fill="#F2F2F2"/>
<path opacity="0.2" d="M194.316 180.069C195.697 179.408 196.759 178.226 197.27 176.782C197.781 175.338 197.698 173.751 197.04 172.368C193.352 146.325 183.192 123.241 164.459 104.076C164.02 103.171 163.351 102.398 162.518 101.836L163.532 101.351C164.915 100.693 166.501 100.61 167.945 101.121C169.388 101.632 170.57 102.695 171.231 104.076C189.964 123.241 200.124 146.325 203.812 172.368C204.47 173.751 204.553 175.338 204.042 176.782C203.531 178.226 202.469 179.408 201.088 180.069L149.535 204.686C148.618 205.12 147.602 205.304 146.591 205.219C145.58 205.134 144.609 204.783 143.777 204.202L194.316 180.069Z" fill="black"/>
<path d="M138.737 160.162L173.329 143.761C173.88 143.5 174.304 143.031 174.509 142.458C174.714 141.884 174.682 141.252 174.421 140.701C174.16 140.15 173.692 139.726 173.118 139.521C172.544 139.316 171.913 139.348 171.362 139.609L136.769 156.009C136.221 156.271 135.799 156.74 135.596 157.313C135.393 157.886 135.425 158.516 135.685 159.066C135.945 159.615 136.412 160.039 136.984 160.244C137.556 160.45 138.187 160.42 138.737 160.162L138.737 160.162Z" fill="white"/>
<path d="M160.325 135.982L167.936 132.374C168.209 132.246 168.455 132.065 168.658 131.842C168.861 131.619 169.019 131.358 169.121 131.074C169.224 130.79 169.269 130.488 169.255 130.187C169.241 129.885 169.168 129.589 169.04 129.316C168.911 129.043 168.73 128.797 168.507 128.594C168.284 128.391 168.023 128.234 167.739 128.131C167.455 128.029 167.153 127.984 166.852 127.998C166.55 128.013 166.255 128.086 165.982 128.215L165.969 128.221L158.358 131.829C157.81 132.091 157.387 132.56 157.184 133.133C156.98 133.707 157.012 134.337 157.272 134.887C157.533 135.436 158 135.86 158.573 136.066C159.145 136.271 159.775 136.241 160.325 135.982V135.982Z" fill="white"/>
<path d="M147.385 178.418L181.978 162.018C182.527 161.756 182.949 161.287 183.153 160.714C183.356 160.141 183.324 159.51 183.064 158.961C182.804 158.411 182.336 157.987 181.764 157.782C181.191 157.577 180.561 157.607 180.011 157.866L145.418 174.266C145.145 174.394 144.9 174.575 144.697 174.798C144.494 175.021 144.337 175.282 144.234 175.566C144.132 175.85 144.087 176.151 144.101 176.452C144.115 176.754 144.188 177.05 144.316 177.323C144.445 177.596 144.626 177.841 144.849 178.044C145.072 178.247 145.332 178.404 145.616 178.507C145.9 178.609 146.201 178.655 146.502 178.64C146.804 178.626 147.099 178.553 147.372 178.425L147.385 178.418Z" fill="white"/>
<path d="M143.06 169.29L177.653 152.89C178.204 152.63 178.629 152.161 178.834 151.588C179.04 151.014 179.009 150.382 178.749 149.831C178.488 149.28 178.02 148.855 177.447 148.649C176.873 148.444 176.242 148.475 175.691 148.735L175.686 148.737L141.093 165.137C140.545 165.4 140.123 165.869 139.919 166.442C139.716 167.015 139.748 167.645 140.008 168.195C140.268 168.744 140.736 169.168 141.308 169.373C141.88 169.579 142.51 169.549 143.06 169.29L143.06 169.29Z" fill="white"/>
<path d="M139.257 122.713C133.968 122.713 129.68 118.423 129.68 113.132C129.68 107.841 133.968 103.551 139.257 103.551C144.546 103.551 148.834 107.841 148.834 113.132C148.834 118.423 144.546 122.713 139.257 122.713Z" fill="#3F3D56"/>
<path d="M56.6129 206.106C66.9992 183.565 71.5475 159.271 68.362 132.657C68.8541 129.561 67.129 126.458 64.5056 125.721L17.4827 112.578C14.8582 111.848 12.3306 113.762 11.8325 116.857L0.0833137 190.306C-0.408843 193.402 1.31623 196.505 3.93961 197.242L50.9625 210.385C53.587 211.114 56.1147 209.2 56.6129 206.106Z" fill="#F2F2F2"/>
<path opacity="0.2" d="M46.3849 206.146C49.0094 206.876 51.537 204.962 52.0352 201.867C62.4216 179.326 66.9698 155.033 63.7844 128.418C63.9347 127.43 63.865 126.421 63.5802 125.462L64.5056 125.721C67.1289 126.458 68.8541 129.561 68.362 132.657C71.5475 159.271 66.9992 183.565 56.6128 206.106C56.1147 209.2 53.5871 211.114 50.9625 210.384L3.93967 197.242C3.0443 196.941 2.23968 196.418 1.60099 195.722C0.962293 195.026 0.510376 194.18 0.2874 193.262L46.3849 206.146Z" fill="black"/>
<path d="M18.6596 155.891L50.154 164.802C51.1979 165.095 52.2052 164.336 52.4039 163.104C52.517 162.538 52.4257 161.95 52.1463 161.444C51.867 160.939 51.4176 160.549 50.8781 160.344L19.3836 151.434C18.3394 151.142 17.3334 151.905 17.1368 153.137C17.025 153.702 17.1165 154.288 17.3952 154.792C17.6739 155.296 18.1217 155.686 18.6596 155.891H18.6596Z" fill="white"/>
<path d="M45.2111 150.618L52.1399 152.579C53.1829 152.878 54.1931 152.123 54.3964 150.893C54.5115 150.326 54.4219 149.737 54.1435 149.23C53.8651 148.723 53.4159 148.331 52.8758 148.124L52.8639 148.121L45.9351 146.161C44.8908 145.869 43.885 146.632 43.6883 147.864C43.5765 148.429 43.6681 149.015 43.9467 149.519C44.2254 150.023 44.6733 150.413 45.2111 150.618Z" fill="white"/>
<path d="M15.4779 175.488L46.9724 184.399C48.0166 184.69 49.0226 183.928 49.2192 182.696C49.331 182.131 49.2394 181.544 48.9608 181.04C48.6821 180.536 48.2342 180.147 47.6964 179.941L16.2019 171.031C15.1589 170.732 14.1486 171.486 13.9454 172.716C13.8303 173.283 13.9198 173.873 14.1983 174.38C14.4767 174.887 14.9259 175.278 15.466 175.485L15.4779 175.488Z" fill="white"/>
<path d="M17.0691 165.69L48.5635 174.6C49.6069 174.897 50.6158 174.14 50.817 172.909C50.9314 172.342 50.8409 171.753 50.5616 171.246C50.2823 170.74 49.8324 170.349 49.292 170.144L49.2875 170.142L17.7931 161.232C16.7489 160.941 15.7429 161.703 15.5463 162.935C15.4345 163.5 15.526 164.086 15.8047 164.591C16.0834 165.095 16.5312 165.484 17.0691 165.69L17.0691 165.69Z" fill="white"/>
<path d="M34.3426 120.703C33.6648 115.456 36.6649 110.743 41.0434 110.177C45.4219 109.611 49.5208 113.406 50.1986 118.654C50.8763 123.902 47.8763 128.615 43.4978 129.181C39.1193 129.747 35.0203 125.951 34.3426 120.703Z" fill="#3F3D56"/>
</g>
<defs>
<clipPath id="clip0_262_113">
<rect width="465" height="433" fill="white" transform="matrix(-1 0 0 1 465 0)"/>
</clipPath>
</defs>
</svg>
