<svg width="549" height="309" viewBox="0 0 549 309" fill="none" xmlns="http://www.w3.org/2000/svg">
<g clip-path="url(#clip0_262_253)">
<path d="M328.18 214.822C328.18 207.195 299.42 201.011 263.942 201.011C228.464 201.011 199.703 207.195 199.703 214.822C199.703 219.711 211.527 224.003 229.352 226.457V302.128C229.352 303.828 230.029 305.459 231.233 306.662C232.438 307.864 234.072 308.54 235.776 308.54C237.479 308.54 239.113 307.864 240.318 306.662C241.523 305.459 242.199 303.828 242.199 302.128V227.82C248.991 228.346 256.309 228.633 263.942 228.633C271.574 228.633 278.893 228.346 285.684 227.82V302.128C285.684 303.828 286.361 305.459 287.566 306.662C288.77 307.864 290.404 308.54 292.108 308.54C293.812 308.54 295.446 307.864 296.65 306.662C297.855 305.459 298.532 303.828 298.532 302.128V226.457C316.356 224.003 328.18 219.711 328.18 214.822Z" fill="#CCCCCC"/>
<path d="M315.82 296.134H327.937L333.7 249.484H315.818L315.82 296.134Z" fill="#FFB6B6"/>
<path d="M351.305 307.362L313.225 307.364L313.225 292.678L336.592 292.677C340.494 292.677 344.236 294.224 346.995 296.978C349.754 299.732 351.305 303.467 351.305 307.362V307.362L351.305 307.362Z" fill="#2F2E41"/>
<path d="M334.733 289.384L346.293 285.763L337.802 239.53L320.74 244.874L334.733 289.384Z" fill="#FFB6B6"/>
<path d="M371.957 289.494L335.625 300.875L331.219 286.863L353.514 279.879C357.237 278.713 361.272 279.07 364.731 280.873C368.189 282.677 370.789 285.777 371.957 289.494V289.494Z" fill="#2F2E41"/>
<path d="M326.627 267.912L304.463 209.836C299.49 211.002 257.789 220.213 243.823 205.369C239.036 200.281 238.103 192.91 241.048 183.461L249.199 173.236L249.452 173.25C252.534 173.412 324.992 177.466 329.959 199.282C334.147 217.675 341.796 251.967 344.04 262.039C344.267 263.082 344.112 264.173 343.601 265.111C343.091 266.05 342.259 266.774 341.259 267.152L332.345 270.489C331.848 270.675 331.322 270.771 330.791 270.771C329.889 270.771 329.008 270.497 328.265 269.987C327.521 269.477 326.95 268.753 326.627 267.912Z" fill="#1B67A5"/>
<path d="M313.78 274.818L291.615 216.741C286.642 217.907 244.942 227.117 230.975 212.274C226.188 207.187 225.255 199.816 228.2 190.366L236.351 180.142L236.605 180.155C239.686 180.317 312.145 184.371 317.112 206.188C321.3 224.58 328.948 258.872 331.192 268.944C331.42 269.988 331.264 271.078 330.753 272.017C330.243 272.955 329.412 273.68 328.411 274.058L319.497 277.394C319.001 277.58 318.474 277.676 317.944 277.676C317.042 277.676 316.16 277.403 315.417 276.892C314.674 276.382 314.103 275.659 313.78 274.818Z" fill="#1B67A5"/>
<path d="M343.733 135.6C343.406 136.038 343.113 136.5 342.858 136.983L294.116 142.109L287.099 132.507L271.197 141.182L284.978 164.485L344.757 149.27C346.266 150.738 348.186 151.713 350.262 152.065C352.339 152.416 354.474 152.129 356.382 151.24C358.291 150.352 359.884 148.904 360.949 147.09C362.013 145.276 362.499 143.181 362.342 141.084C362.185 138.988 361.392 136.988 360.069 135.352C358.746 133.717 356.955 132.521 354.935 131.926C352.915 131.331 350.761 131.364 348.76 132.02C346.759 132.676 345.006 133.925 343.733 135.6V135.6Z" fill="#A0616A"/>
<path d="M227.887 193.433C227.22 192.953 226.699 192.298 226.382 191.541C226.065 190.784 225.964 189.954 226.09 189.143C228.84 171.048 225.676 145.126 222.537 126.566C221.895 122.801 222.145 118.937 223.267 115.285C224.39 111.633 226.353 108.295 229.001 105.536C231.648 102.778 234.906 100.678 238.514 99.4023C242.121 98.1271 245.977 97.7129 249.774 98.1929C253.077 98.6285 256.349 99.2723 259.571 100.121C264.922 101.466 269.655 104.588 272.993 108.975C276.33 113.362 278.073 118.751 277.935 124.258C277.466 142.167 281.109 164.513 282.697 173.288C282.805 173.891 282.788 174.51 282.646 175.106C282.504 175.702 282.241 176.262 281.873 176.752C281.512 177.236 281.053 177.64 280.526 177.938C279.999 178.235 279.416 178.419 278.814 178.478C261.214 180.271 242.235 188.838 232.488 193.785C231.862 194.108 231.167 194.277 230.463 194.279C229.536 194.276 228.634 193.98 227.887 193.433V193.433Z" fill="#00BFA6"/>
<path d="M275.394 146.76C274.85 146.546 274.354 146.227 273.934 145.821C273.515 145.415 273.18 144.93 272.949 144.394L263.134 121.762C262.54 120.394 262.221 118.923 262.197 117.433C262.172 115.943 262.442 114.462 262.991 113.076C263.54 111.69 264.358 110.425 265.397 109.354C266.435 108.284 267.676 107.428 269.046 106.836C270.416 106.244 271.89 105.927 273.383 105.904C274.876 105.881 276.36 106.151 277.748 106.7C279.136 107.25 280.402 108.066 281.474 109.104C282.546 110.142 283.402 111.381 283.994 112.749L293.809 135.382C294.276 136.463 294.295 137.684 293.861 138.778C293.427 139.872 292.576 140.75 291.495 141.219L278.797 146.706C278.262 146.939 277.685 147.064 277.101 147.073C276.517 147.082 275.937 146.976 275.394 146.76H275.394Z" fill="#00BFA6"/>
<path d="M297.284 133.627C296.956 134.065 296.664 134.527 296.409 135.01L247.667 140.136L240.65 130.533L224.748 139.209L238.529 162.512L298.308 147.297C299.816 148.765 301.736 149.74 303.813 150.091C305.89 150.443 308.024 150.156 309.933 149.267C311.842 148.379 313.435 146.931 314.5 145.117C315.564 143.303 316.05 141.208 315.893 139.111C315.736 137.014 314.943 135.015 313.62 133.379C312.297 131.743 310.506 130.548 308.486 129.953C306.466 129.358 304.312 129.39 302.311 130.047C300.31 130.703 298.556 131.952 297.284 133.627V133.627Z" fill="#A0616A"/>
<path d="M228.947 147.746C228.403 147.533 227.907 147.214 227.487 146.808C227.067 146.402 226.733 145.917 226.502 145.381L216.687 122.749C216.093 121.381 215.774 119.91 215.75 118.42C215.725 116.929 215.995 115.449 216.544 114.063C217.093 112.676 217.91 111.412 218.949 110.341C219.988 109.27 221.228 108.415 222.599 107.823C223.969 107.23 225.443 106.914 226.936 106.891C228.429 106.867 229.912 107.138 231.3 107.687C232.689 108.236 233.955 109.053 235.027 110.091C236.098 111.129 236.955 112.368 237.547 113.736L247.362 136.369C247.829 137.449 247.848 138.671 247.414 139.765C246.98 140.859 246.129 141.737 245.048 142.206L232.35 147.692C231.815 147.926 231.238 148.051 230.654 148.06C230.07 148.069 229.489 147.963 228.947 147.746H228.947Z" fill="#00BFA6"/>
<path d="M247.967 90.4936C261.373 90.4936 272.24 79.6457 272.24 66.2641C272.24 52.8826 261.373 42.0347 247.967 42.0347C234.561 42.0347 223.693 52.8826 223.693 66.2641C223.693 79.6457 234.561 90.4936 247.967 90.4936Z" fill="#FFB6B6"/>
<path d="M230.613 82.8933C230.509 82.5891 230.476 82.2653 230.517 81.9464C230.557 81.6276 230.671 81.3223 230.848 81.0538C231.025 80.7854 231.261 80.561 231.539 80.3978C231.816 80.2346 232.127 80.1369 232.448 80.1123C233.105 80.148 233.749 80.3163 234.339 80.6071C234.93 80.8979 235.455 81.3051 235.883 81.8041C236.762 82.8152 237.785 83.6917 238.919 84.4056C240.093 84.9964 241.685 84.9122 242.355 83.7859C242.983 82.7281 242.553 81.3117 242.172 80.0831C241.204 76.9572 240.662 73.7153 240.561 70.445C240.452 66.7946 240.968 62.985 242.992 60.1379C245.605 56.4635 250.277 55.0685 254.699 55.1696C259.12 55.2707 263.47 56.6332 267.85 57.4945C269.362 57.7918 271.139 57.9438 272.151 56.7741C273.226 55.5303 272.831 53.5172 272.374 51.8378C271.187 47.48 269.928 42.9745 267.17 39.455C264.188 35.798 259.929 33.4045 255.251 32.7566C250.759 32.2012 246.199 32.7179 241.946 34.2643C235.017 36.4443 228.92 40.6841 224.47 46.4166C219.883 52.513 217.901 60.1742 218.957 67.7252C219.989 74.3019 223.481 80.2435 228.727 84.3523L230.613 82.8933Z" fill="#2F2E41"/>
<path d="M137.932 141.224C139.153 128.098 142.525 115.262 147.914 103.227C149.416 99.8775 151.069 96.6021 152.873 93.4004C152.964 93.233 152.986 93.037 152.934 92.8538C152.883 92.6707 152.762 92.5146 152.597 92.4186C152.433 92.3226 152.237 92.2942 152.052 92.3393C151.867 92.3843 151.707 92.4994 151.605 92.6603C145.043 104.322 140.447 116.98 137.998 130.13C137.317 133.802 136.805 137.5 136.463 141.224C136.376 142.163 137.845 142.157 137.932 141.224V141.224Z" fill="#3F3D56"/>
<path d="M156.431 95.7519C161.57 95.7519 165.735 91.5938 165.735 86.4646C165.735 81.3353 161.57 77.1772 156.431 77.1772C151.293 77.1772 147.127 81.3353 147.127 86.4646C147.127 91.5938 151.293 95.7519 156.431 95.7519Z" fill="#00BFA6"/>
<path d="M138.883 141.471C139.675 132.955 141.863 124.627 145.359 116.82C146.334 114.647 147.406 112.522 148.576 110.445C148.635 110.337 148.649 110.209 148.616 110.091C148.582 109.972 148.504 109.871 148.397 109.808C148.291 109.746 148.164 109.727 148.044 109.757C147.924 109.786 147.82 109.861 147.754 109.965C143.497 117.53 140.515 125.742 138.926 134.273C138.485 136.656 138.152 139.055 137.93 141.471C137.874 142.08 138.827 142.076 138.883 141.471V141.471Z" fill="#3F3D56"/>
<path d="M150.884 111.971C154.217 111.971 156.92 109.273 156.92 105.946C156.92 102.618 154.217 99.9204 150.884 99.9204C147.55 99.9204 144.848 102.618 144.848 105.946C144.848 109.273 147.55 111.971 150.884 111.971Z" fill="#00BFA6"/>
<path d="M137.681 140.901C133.059 133.701 129.652 125.792 127.598 117.489C127.027 115.178 126.564 112.844 126.207 110.487C126.186 110.366 126.119 110.257 126.019 110.184C125.92 110.11 125.796 110.079 125.673 110.095C125.551 110.111 125.439 110.175 125.363 110.272C125.286 110.368 125.25 110.491 125.262 110.614C126.567 119.192 129.276 127.499 133.28 135.2C134.4 137.35 135.616 139.445 136.929 141.487C137.26 142.002 138.01 141.413 137.681 140.901Z" fill="#3F3D56"/>
<path d="M125.255 111.548C128.588 111.548 131.291 108.85 131.291 105.523C131.291 102.195 128.588 99.4976 125.255 99.4976C121.921 99.4976 119.219 102.195 119.219 105.523C119.219 108.85 121.921 111.548 125.255 111.548Z" fill="#00BFA6"/>
<path d="M119.15 146.232V134.394C119.152 133.217 119.621 132.089 120.454 131.257C121.288 130.425 122.419 129.956 123.598 129.955H151.27C152.449 129.956 153.579 130.425 154.413 131.257C155.247 132.089 155.716 133.217 155.717 134.394V146.232C155.716 147.409 155.247 148.538 154.413 149.37C153.579 150.202 152.449 150.67 151.27 150.672H123.598C122.419 150.67 121.288 150.202 120.454 149.37C119.621 148.538 119.152 147.409 119.15 146.232Z" fill="#CCCCCC"/>
<path d="M367.217 142.808H289.143C287.232 142.808 285.684 144.354 285.684 146.261C285.684 148.168 287.232 149.714 289.143 149.714H367.217C369.128 149.714 370.676 148.168 370.676 146.261C370.676 144.354 369.128 142.808 367.217 142.808Z" fill="#CCCCCC"/>
<path d="M419.596 149.713H331.639C329.936 149.711 328.303 149.035 327.098 147.833C325.894 146.631 325.217 145.001 325.215 143.301V94.9625C325.217 93.2625 325.894 91.6327 327.098 90.4305C328.303 89.2284 329.936 88.5522 331.639 88.5503H419.596C421.299 88.5522 422.932 89.2284 424.136 90.4305C425.341 91.6327 426.018 93.2625 426.02 94.9625V143.301C426.018 145.001 425.341 146.631 424.136 147.833C422.932 149.035 421.299 149.711 419.596 149.713V149.713Z" fill="#CCCCCC"/>
<path d="M375.617 125.051C378.892 125.051 381.547 122.401 381.547 119.132C381.547 115.863 378.892 113.213 375.617 113.213C372.342 113.213 369.688 115.863 369.688 119.132C369.688 122.401 372.342 125.051 375.617 125.051Z" fill="white"/>
<path d="M487.79 148.727H94.4512C92.7475 148.727 91.1136 149.403 89.9089 150.605C88.7041 151.808 88.0273 153.439 88.0273 155.139C88.0273 156.84 88.7041 158.471 89.9089 159.673C91.1136 160.876 92.7475 161.552 94.4512 161.552H105.817V301.141C105.817 302.842 106.493 304.473 107.698 305.676C108.903 306.878 110.537 307.554 112.24 307.554C113.944 307.554 115.578 306.878 116.783 305.676C117.987 304.473 118.664 302.842 118.664 301.141V173.873L190.682 304.168C191.536 305.637 192.938 306.708 194.582 307.146C196.226 307.584 197.977 307.353 199.451 306.504C200.924 305.655 202 304.257 202.442 302.616C202.884 300.976 202.656 299.228 201.808 297.756L126.525 161.552H470.495V161.635L395.257 297.756C394.405 299.228 394.175 300.979 394.616 302.621C395.056 304.264 396.133 305.664 397.608 306.515C399.084 307.365 400.837 307.595 402.483 307.155C404.128 306.715 405.531 305.641 406.383 304.168L470.495 188.177V301.141C470.495 302.842 471.171 304.473 472.376 305.676C473.581 306.878 475.215 307.554 476.918 307.554C478.622 307.554 480.256 306.878 481.461 305.676C482.665 304.473 483.342 302.842 483.342 301.141V164.933L485.211 161.552H487.79C489.493 161.552 491.127 160.876 492.332 159.673C493.537 158.471 494.213 156.84 494.213 155.139C494.213 153.439 493.537 151.808 492.332 150.605C491.127 149.403 489.493 148.727 487.79 148.727V148.727Z" fill="#2F5675"/>
<path d="M548.117 309H0.880005C0.646379 308.999 0.422558 308.877 0.257599 308.66C0.0926393 308.443 0 308.149 0 307.843C0 307.536 0.0926393 307.243 0.257599 307.026C0.422558 306.809 0.646379 306.686 0.880005 306.686H548.117C548.351 306.686 548.576 306.807 548.742 307.025C548.907 307.242 549 307.536 549 307.843C549 308.15 548.907 308.444 548.742 308.661C548.576 308.878 548.351 309 548.117 309V309Z" fill="#3F3D56"/>
</g>
<defs>
<clipPath id="clip0_262_253">
<rect width="549" height="309" fill="white"/>
</clipPath>
</defs>
</svg>
