<svg width="524" height="457" viewBox="0 0 524 457" fill="none" xmlns="http://www.w3.org/2000/svg">
<g clip-path="url(#clip0_262_280)">
<path d="M245.227 449.264C245.414 449.272 245.599 449.223 245.757 449.123C245.915 449.023 246.038 448.876 246.111 448.703C246.183 448.531 246.2 448.34 246.16 448.157C246.121 447.974 246.026 447.807 245.888 447.68L245.826 447.431L245.85 447.372C246.039 446.927 246.354 446.547 246.758 446.281C247.161 446.014 247.634 445.873 248.117 445.875C248.6 445.877 249.072 446.022 249.473 446.291C249.874 446.56 250.187 446.942 250.372 447.389C251.112 449.171 252.053 450.956 252.285 452.841C252.387 453.674 252.344 454.518 252.158 455.337C253.895 451.545 254.797 447.424 254.802 443.253C254.803 442.206 254.745 441.16 254.628 440.12C254.532 439.268 254.399 438.421 254.228 437.58C253.297 433.019 251.298 428.745 248.396 425.107C246.991 424.34 245.855 423.16 245.141 421.727C244.882 421.212 244.699 420.662 244.598 420.094C244.906 419.282 245.067 418.421 245.076 417.552C245.297 417.216 245.692 417.05 245.933 416.723C247.133 415.095 248.785 415.379 249.648 417.591C251.491 418.522 251.509 420.066 250.378 421.55C249.659 422.495 249.56 423.773 248.928 424.784C248.993 424.868 249.061 424.948 249.126 425.031C250.313 426.559 251.348 428.2 252.215 429.929C252.004 427.992 252.256 426.031 252.95 424.21C253.653 422.512 254.971 421.083 256.132 419.615C256.439 419.221 256.856 418.927 257.33 418.769C257.804 418.612 258.314 418.599 258.795 418.732C259.277 418.865 259.708 419.138 260.035 419.516C260.361 419.894 260.569 420.36 260.631 420.856L260.637 420.921C260.465 421.018 260.296 421.122 260.131 421.231C259.924 421.37 259.763 421.568 259.67 421.8C259.577 422.031 259.556 422.286 259.61 422.529C259.664 422.773 259.79 422.995 259.973 423.165C260.155 423.336 260.384 423.448 260.63 423.486L260.656 423.49C260.594 424.111 260.486 424.728 260.331 425.333C261.82 431.095 258.605 433.194 254.015 433.288C253.914 433.34 253.815 433.392 253.714 433.442C254.585 435.913 255.132 438.488 255.34 441.1C255.458 442.642 255.451 444.19 255.319 445.731L255.327 445.676C255.66 443.963 256.573 442.418 257.912 441.301C259.902 439.665 262.712 439.063 264.858 437.749C265.086 437.602 265.351 437.524 265.622 437.523C265.893 437.523 266.159 437.6 266.388 437.745C266.617 437.89 266.799 438.098 266.914 438.344C267.028 438.59 267.07 438.863 267.035 439.132L267.026 439.19C266.706 439.32 266.394 439.47 266.093 439.639C265.921 439.737 265.752 439.84 265.587 439.949C265.38 440.088 265.219 440.286 265.126 440.518C265.033 440.749 265.012 441.004 265.066 441.247C265.12 441.491 265.246 441.713 265.428 441.884C265.61 442.054 265.84 442.166 266.086 442.204L266.111 442.208L266.163 442.216C265.617 443.522 264.85 444.724 263.895 445.77C262.964 450.8 258.966 451.277 254.688 449.812H254.686C254.216 451.853 253.536 453.84 252.657 455.74H245.408C245.382 455.659 245.359 455.576 245.335 455.495C246.006 455.537 246.68 455.497 247.341 455.376C246.803 454.715 246.266 454.05 245.728 453.39C245.716 453.377 245.705 453.364 245.694 453.351C245.421 453.013 245.146 452.677 244.873 452.339L244.873 452.339C244.858 451.303 244.977 450.269 245.226 449.264L245.227 449.264Z" fill="#F2F2F2"/>
<path d="M64.6289 449.264C64.4419 449.272 64.2568 449.223 64.0987 449.123C63.9406 449.023 63.817 448.876 63.7448 448.703C63.6726 448.531 63.6552 448.34 63.695 448.157C63.7348 447.974 63.8299 447.807 63.9673 447.68L64.0299 447.431L64.005 447.372C63.8167 446.927 63.5011 446.547 63.0978 446.281C62.6946 446.014 62.2217 445.873 61.7386 445.875C61.2555 445.877 60.7837 446.022 60.3825 446.291C59.9812 446.56 59.6684 446.942 59.4834 447.389C58.7439 449.171 57.8023 450.956 57.5704 452.841C57.4683 453.674 57.5114 454.518 57.6978 455.337C55.9608 451.545 55.0588 447.424 55.053 443.253C55.0527 442.206 55.1108 441.16 55.2271 440.12C55.3233 439.268 55.4566 438.421 55.6272 437.58C56.5582 433.019 58.5571 428.745 61.4596 425.107C62.8645 424.34 64.0006 423.16 64.7149 421.727C64.9736 421.212 65.1565 420.662 65.2578 420.094C64.95 419.282 64.7882 418.421 64.7798 417.552C64.559 417.216 64.1637 417.05 63.9225 416.723C62.7229 415.095 61.0702 415.379 60.2074 417.591C58.3643 418.522 58.3464 420.066 59.4774 421.55C60.1969 422.495 60.2957 423.773 60.9271 424.784C60.8621 424.868 60.7945 424.948 60.7296 425.031C59.5423 426.559 58.5075 428.2 57.64 429.929C57.851 427.992 57.5992 426.031 56.9054 424.21C56.2022 422.512 54.8842 421.083 53.7236 419.615C53.4166 419.221 52.9997 418.927 52.5256 418.769C52.0515 418.612 51.5415 418.599 51.06 418.732C50.5786 418.865 50.1473 419.138 49.8207 419.516C49.494 419.894 49.2867 420.36 49.225 420.856L49.218 420.921C49.3904 421.018 49.5592 421.122 49.7243 421.231C49.9317 421.37 50.0924 421.568 50.1854 421.8C50.2783 422.031 50.2992 422.286 50.2452 422.529C50.1913 422.773 50.065 422.995 49.883 423.165C49.7009 423.336 49.4716 423.448 49.2251 423.486L49.1999 423.49C49.2613 424.111 49.3698 424.728 49.5246 425.333C48.0356 431.095 51.2502 433.194 55.8402 433.288C55.9415 433.34 56.0403 433.392 56.1416 433.442C55.27 435.913 54.7234 438.488 54.5153 441.1C54.3975 442.642 54.4044 444.19 54.5361 445.731L54.5283 445.676C54.1957 443.963 53.2826 442.418 51.9433 441.301C49.954 439.665 47.1435 439.063 44.9975 437.749C44.7694 437.602 44.5042 437.524 44.2331 437.523C43.9621 437.523 43.6965 437.6 43.4678 437.745C43.239 437.89 43.0565 438.098 42.9419 438.344C42.8273 438.59 42.7853 438.863 42.8209 439.132L42.8297 439.19C43.1496 439.32 43.4611 439.47 43.7624 439.639C43.9347 439.737 44.1035 439.84 44.2686 439.949C44.476 440.088 44.6367 440.286 44.7297 440.518C44.8227 440.749 44.8435 441.004 44.7896 441.247C44.7356 441.491 44.6093 441.713 44.4273 441.884C44.2453 442.054 44.016 442.166 43.7694 442.204L43.7441 442.208L43.6922 442.216C44.2388 443.522 45.006 444.724 45.9602 445.77C46.8912 450.8 50.89 451.277 55.1674 449.812H55.17C55.6393 451.853 56.3193 453.84 57.199 455.74H64.4473C64.4733 455.659 64.4967 455.576 64.5201 455.495C63.8492 455.537 63.1756 455.497 62.5144 455.376C63.0522 454.715 63.59 454.05 64.1278 453.39C64.1398 453.377 64.1511 453.364 64.1616 453.351C64.4343 453.013 64.7097 452.677 64.9825 452.339L64.9826 452.339C64.9972 451.303 64.8784 450.269 64.6292 449.264L64.6289 449.264Z" fill="#F2F2F2"/>
<path d="M174.175 59.5242C175.641 56.5697 177.985 54.1167 179.419 51.146C180.853 48.1754 181.132 44.1995 178.743 41.9258C176.715 39.9951 173.538 39.9681 171.113 38.5697C164.934 35.007 164.941 23.691 157.877 22.7132C154.442 22.2377 151.334 24.8156 149.257 27.595C147.181 30.3745 145.527 33.6178 142.647 35.5515C139.388 37.7405 135.174 37.8357 131.554 39.3562C124.615 42.2714 120.976 49.7675 117.934 56.6564C115.974 61.0943 113.97 65.8809 114.879 70.6468C112.903 71.8774 113.783 75.1874 115.756 76.4238C117.729 77.6601 120.207 77.6327 122.472 78.1682C127.234 79.2938 131.132 83.0866 132.981 87.6196C134.421 91.1526 134.716 95.0317 134.994 98.8374C135.476 105.441 135.958 112.045 136.44 118.648C136.655 121.586 136.937 124.708 138.724 127.049C140.511 129.39 144.38 130.371 146.389 128.218C148.309 126.16 147.444 122.902 147.405 120.087C147.367 117.272 149.91 113.767 152.307 115.24L153.153 113.32C158.629 111.357 163.425 107.857 166.965 103.239C170.506 98.6198 172.641 93.0779 173.116 87.2762C173.728 77.9314 170.012 67.9115 174.175 59.5242Z" fill="#E6E6E6"/>
<path d="M179.771 118.781C180.3 118.283 180.675 117.643 180.853 116.937C181.03 116.232 181.002 115.49 180.773 114.8C180.543 114.11 180.12 113.5 179.556 113.042C178.991 112.585 178.307 112.298 177.585 112.216L177.594 112.533C176.563 113.136 175.387 113.445 174.194 113.428C173.005 113.409 171.821 113.596 170.696 113.982C170.136 114.186 169.652 114.554 169.305 115.039C168.959 115.523 168.768 116.101 168.756 116.697C168.821 117.153 168.996 117.587 169.264 117.962C169.533 118.336 169.888 118.641 170.3 118.848C171.126 119.256 172.013 119.525 172.925 119.646C175.277 120.089 178.03 120.424 179.771 118.781Z" fill="#E6E6E6"/>
<path d="M225.635 59.6806C226.62 59.0102 227.456 58.1436 228.092 57.1351C228.399 56.6248 228.546 56.0333 228.512 55.4382C228.477 54.8431 228.264 54.2723 227.9 53.8007C227.158 53.1568 226.204 52.8118 225.223 52.8328C222.557 52.6336 219.878 52.9497 217.332 53.7639C219.946 56.0817 222.561 58.3995 225.175 60.7174L225.635 59.6806Z" fill="#E6E6E6"/>
<path d="M212.561 65.7088C213.618 66.8759 213.281 68.6864 212.982 70.2327C212.683 71.7789 212.644 73.7111 213.974 74.5546C215.125 75.2858 216.742 74.6891 217.585 73.6156C218.338 72.4706 218.797 71.1572 218.921 69.792C219.335 67.8079 219.522 65.783 219.478 63.7566C219.428 61.715 218.709 59.7465 217.43 58.1547C216.523 57.1195 215.314 56.3945 213.974 56.0812C212.634 55.7679 211.23 55.8821 209.958 56.4078L211.173 56.3479C210.29 57.4824 209.62 58.7682 209.197 60.1424C208.994 60.8328 208.98 61.5649 209.155 62.2627C209.331 62.9605 209.69 63.5985 210.195 64.1105C210.916 64.738 211.92 65.0004 212.561 65.7088Z" fill="#E6E6E6"/>
<path d="M272.157 46.1338L272.372 45.4683C271.469 45.9912 270.773 46.8086 270.4 47.7838C270.027 48.759 270.001 49.8328 270.324 50.8254C271.019 50.2771 271.555 49.5533 271.877 48.7286C272.199 47.9039 272.296 47.0082 272.157 46.1338Z" fill="#E6E6E6"/>
<path d="M260.418 55.6599C261.568 55.0082 262.55 54.0959 263.284 52.9962C264.018 51.8965 264.485 50.6399 264.646 49.3273C264.771 48.5111 264.676 47.6765 264.373 46.9088C264.217 46.5277 263.969 46.1911 263.652 45.9288C263.334 45.6666 262.957 45.4869 262.554 45.4058L262.062 46.1805C261.356 45.573 260.171 46.1978 259.875 47.0806C259.683 47.9972 259.763 48.9497 260.104 49.8218C260.444 50.6991 260.428 51.6747 260.06 52.5408C259.664 53.0501 259.218 53.519 258.729 53.9403C258.49 54.1579 258.334 54.4517 258.288 54.7716C258.241 55.0915 258.308 55.4176 258.475 55.6941C258.938 56.2232 259.804 56.0011 260.418 55.6599Z" fill="#E6E6E6"/>
<path d="M255.411 51.332C255.832 50.5738 256.031 49.712 255.984 48.8459L254.908 48.5083C254.221 48.7872 253.611 49.2286 253.131 49.7947C252.986 49.941 252.874 50.1177 252.804 50.3122C252.735 50.5067 252.709 50.7141 252.729 50.9197C252.749 51.1253 252.814 51.3239 252.92 51.5013C253.026 51.6787 253.169 51.8306 253.34 51.946C253.512 52.0614 253.706 52.1375 253.91 52.1689C254.114 52.2002 254.323 52.1861 254.521 52.1274C254.718 52.0687 254.901 51.967 255.055 51.8295C255.209 51.692 255.331 51.5221 255.411 51.332V51.332Z" fill="#E6E6E6"/>
<path d="M307.99 45.8843C308.088 45.9658 308.184 46.0496 308.282 46.1319C308.367 46.1138 308.449 46.0815 308.536 46.0708L307.99 45.8843Z" fill="#E6E6E6"/>
<path d="M306.266 55.3314C307.254 54.5319 308.241 53.7324 309.229 52.9329C309.754 52.5614 310.201 52.091 310.546 51.5481C310.781 51.0341 310.883 50.4688 310.841 49.9048C310.799 49.3409 310.616 48.7968 310.307 48.323C309.76 47.4834 309.076 46.7425 308.282 46.1318C307.409 46.3384 306.643 46.8579 306.128 47.592C305.613 48.326 305.384 49.2236 305.486 50.1148C305.665 51.2483 306.376 52.4605 305.795 53.45C305.569 53.8354 305.18 54.0977 304.92 54.4605C304.659 54.8233 304.574 55.4011 304.933 55.6679C305.33 55.9641 305.881 55.6434 306.266 55.3314Z" fill="#E6E6E6"/>
<path d="M308.427 60.2257C308.794 60.2454 309.161 60.1859 309.503 60.0511C309.846 59.9163 310.155 59.7094 310.41 59.4445C311.731 58.362 312.886 57.0922 313.839 55.6753C311.616 56.3797 309.394 57.0841 307.172 57.7884L307.865 58.5992C307.249 59.0011 307.705 60.0874 308.427 60.2257Z" fill="#E6E6E6"/>
<path d="M314.654 64.8028C314.789 65.1496 315.035 65.4424 315.352 65.6365C315.67 65.8306 316.042 65.9152 316.413 65.8774C316.781 65.8283 317.135 65.6988 317.448 65.4981C317.761 65.2974 318.027 65.0304 318.226 64.7159C318.564 64.2175 318.762 63.6378 318.801 63.0368C318.84 62.4358 318.718 61.8353 318.447 61.2974C318.176 60.7596 317.767 60.3039 317.261 59.9775C316.755 59.6511 316.171 59.4659 315.57 59.4409L316.183 60.3789C316.34 61.9801 314.165 63.2703 314.654 64.8028Z" fill="#E6E6E6"/>
<path d="M357.812 82.3391C358.413 82.7879 359.143 83.0295 359.893 83.0277C360.643 83.0259 361.372 82.7808 361.971 82.3292C362.359 81.9973 362.675 81.5887 362.898 81.1291C363.121 80.6695 363.247 80.1687 363.268 79.6581C363.289 79.1475 363.204 78.6381 363.019 78.1618C362.834 77.6855 362.553 77.2526 362.193 76.8901L361.058 77.5242C360.428 77.1194 359.666 76.9747 358.932 77.1206C358.198 77.2665 357.55 77.6916 357.122 78.3064C356.739 78.9509 356.598 79.7108 356.725 80.4499C356.851 81.189 357.237 81.8588 357.812 82.3391V82.3391Z" fill="#E6E6E6"/>
<path d="M371.011 83.834C371.564 83.6735 372.066 83.3736 372.47 82.9631C372.874 82.5526 373.165 82.0453 373.317 81.4897L371.111 81.1995C370.497 80.7357 369.782 80.4234 369.025 80.288C368.646 80.2311 368.258 80.3065 367.927 80.5015C367.596 80.6965 367.343 80.9993 367.208 81.3592C367.162 81.6654 367.194 81.9785 367.302 82.2687C367.41 82.5589 367.591 82.8165 367.827 83.017C368.244 83.4145 368.755 83.6984 369.313 83.8415C369.87 83.9845 370.455 83.982 371.011 83.834V83.834Z" fill="#E6E6E6"/>
<path d="M361.899 88.2485C361.937 88.6077 362.078 88.9484 362.303 89.2308C362.528 89.5132 362.829 89.7257 363.17 89.8433C363.543 90.0203 363.961 90.0812 364.368 90.018C364.776 89.9548 365.156 89.7704 365.458 89.4887C365.591 89.3382 365.687 89.1581 365.736 88.9633C365.786 88.7685 365.789 88.5646 365.744 88.3686C365.699 88.1726 365.608 87.9901 365.479 87.8363C365.349 87.6826 365.185 87.5619 365 87.4844L363.345 87.1833C362.706 86.852 361.888 87.5281 361.899 88.2485Z" fill="#E6E6E6"/>
<path d="M265.89 99.891L264.609 98.7207C264.95 99.1959 265.386 99.5945 265.89 99.891Z" fill="#E6E6E6"/>
<path d="M256.108 93.0003C256.896 96.6643 260.84 99.6493 264.42 98.5483L264.609 98.7209C263.469 97.1597 263.276 94.8498 263.543 92.841C264.036 89.3988 265.389 86.1365 267.475 83.3552C269.561 80.5738 272.313 78.363 275.478 76.9267C276.345 76.6559 277.12 76.1505 277.718 75.4664C278.228 74.7197 278.038 73.4393 277.159 73.2284C276.681 73.1738 276.199 73.2854 275.794 73.5445L269.141 76.8214C265.78 78.4765 262.353 80.179 259.713 82.8381C257.074 85.4972 255.32 89.3361 256.108 93.0003Z" fill="#E6E6E6"/>
<path d="M148.708 218.993C142.509 214.552 135.719 211.002 128.536 208.444C124.121 206.874 119.378 205.676 114.778 206.567C112.255 207.09 109.891 208.2 107.878 209.808C105.865 211.416 104.259 213.477 103.191 215.823C102.163 218.186 101.679 220.75 101.776 223.325C101.873 225.901 102.548 228.421 103.752 230.7C105.873 234.678 109.546 237.846 110.774 242.184C111.602 245.108 111.21 248.222 110.812 251.235C109.997 257.393 109.183 263.551 108.369 269.709C107.627 275.316 106.905 281.15 108.678 286.52C110.452 291.889 115.514 296.623 121.137 296.052L122.251 295.968C118.532 293.437 117.489 288.198 118.597 283.835C119.704 279.473 122.515 275.774 125.259 272.208C133.403 261.625 141.547 251.043 149.691 240.46C152.986 236.179 156.471 230.887 154.714 225.777C153.715 222.872 151.204 220.782 148.708 218.993Z" fill="#E6E6E6"/>
<path d="M93.2061 192.241C92.3813 191.962 91.5102 192.583 91.0252 193.307C90.6333 194.084 90.1727 194.825 89.6491 195.521C88.3805 196.829 86.0685 196.569 84.7002 195.365C83.332 194.161 82.7391 192.299 82.4736 190.496C82.155 188.331 82.2925 185.917 83.7199 184.26C85.1894 182.554 87.6046 182.097 89.827 181.742C92.1227 181.376 94.6946 181.071 96.5754 182.438C97.76 183.299 98.4505 184.689 99.5479 185.659C100.645 186.629 102.597 186.997 103.423 185.787C103.639 185.358 103.749 184.883 103.742 184.403C103.735 183.923 103.612 183.451 103.384 183.029C102.919 182.187 102.64 181.256 102.564 180.298C102.62 178.968 103.687 177.911 104.779 177.151C105.871 176.391 107.104 175.735 107.82 174.613C108.702 173.233 108.608 171.456 109.155 169.913C110.478 166.178 115.2 164.516 116.575 160.8C116.907 160.018 116.944 159.143 116.68 158.336C116.104 156.856 114.548 157.146 114.453 155.337C114.361 153.606 115.804 151.909 117.27 151.186C119.291 150.19 121.647 150.271 123.899 150.21C126.151 150.149 128.578 149.85 130.231 148.318C130.765 147.766 131.178 147.107 131.441 146.385C131.704 145.663 131.812 144.893 131.757 144.126C131.702 143.359 131.486 142.612 131.123 141.935C130.76 141.257 130.258 140.664 129.65 140.194C128.419 139.343 126.862 139.047 125.663 138.149C124.171 137.032 123.464 135.17 122.302 133.712C121.334 132.601 120.228 131.621 119.009 130.795C118.012 130.054 117.014 129.313 116.017 128.573C114.213 127.234 112.337 125.86 110.142 125.383C107.948 124.906 105.335 125.581 104.236 127.541C103.803 128.414 103.566 129.372 103.543 130.347C103.442 132.642 103.538 134.942 103.829 137.221C104.01 139.055 104.191 140.89 104.372 142.724C104.534 144.369 104.36 146.537 102.765 146.964C99.2255 147.911 100.42 142.674 99.6348 141.07C98.4333 138.614 92.9133 137.435 90.5534 136.412C89.0796 135.773 87.5243 135.067 86.6343 133.729C85.5267 132.064 85.7541 129.797 86.6227 127.995C87.4912 126.193 88.9064 124.727 90.192 123.195C91.5025 121.633 92.6958 119.977 93.8877 118.323C95.2702 116.405 96.6526 114.487 98.035 112.568C99.808 110.108 101.672 107.105 100.665 104.244C100.447 103.862 100.12 103.552 99.7268 103.354C99.3334 103.156 98.8904 103.078 98.4532 103.131C98.016 103.184 97.604 103.364 97.269 103.65C96.9339 103.936 96.6905 104.315 96.5695 104.739C96.128 106.283 97.3056 108.255 96.1791 109.4C95.7932 109.711 95.3104 109.876 94.815 109.867C94.3196 109.858 93.8432 109.674 93.4692 109.349C92.7396 108.675 92.1839 107.834 91.8495 106.898C90.4847 103.863 89.1551 100.809 87.7541 97.7908C87.3113 96.8366 86.849 95.2028 85.5069 95.3636C84.3418 95.5033 83.7126 97.2023 83.7531 98.1888C83.812 99.624 84.6047 100.906 85.2105 102.209C85.8164 103.511 86.2401 105.075 85.5749 106.347C84.7326 107.959 82.5994 108.321 80.7826 108.268C77.3583 108.164 74.003 107.278 70.9733 105.678C70.8942 107.362 70.815 109.046 70.7359 110.73C68.3245 109.72 65.9131 108.71 63.5018 107.7C63.0335 107.504 62.5651 107.308 62.0968 107.112C60.0627 106.26 58.0261 105.407 55.9321 104.715C54.7433 104.323 53.538 103.983 52.3331 103.643C51.6007 103.436 50.8682 103.23 50.1358 103.023C48.6905 102.511 47.1576 102.292 45.6267 102.379C44.0184 102.582 42.5839 103.446 41.0964 104.092C37.7778 105.534 33.4855 104.084 29.9292 104.058C28.5185 101.997 26.6141 100.323 24.39 99.1889C22.1658 98.0548 19.6931 97.4968 17.1978 97.566C14.7025 97.6352 12.2644 98.3293 10.1065 99.5849C7.94851 100.841 6.13958 102.618 4.84513 104.753C4.21988 105.836 3.66306 106.956 3.17796 108.108C2.69543 109.19 2.2129 110.272 1.73036 111.354C1.02249 112.942 0.299014 114.614 0.438148 116.347C0.577282 118.079 1.90466 119.849 3.64165 119.834C-0.454326 121.689 -1.30665 128.183 2.17152 131.034C3.13463 131.823 4.31567 132.34 5.18237 133.234C5.83743 133.91 6.27567 134.767 6.44086 135.694C6.60604 136.621 6.49063 137.576 6.10944 138.437C5.72824 139.298 5.09865 140.025 4.30147 140.526C3.50429 141.026 2.57589 141.276 1.63541 141.245C4.06202 142.183 6.73492 142.271 9.2175 141.493C11.7001 140.714 13.8456 139.117 15.3036 136.961C16.7906 134.631 17.4369 131.72 19.4598 129.838C22.1389 127.344 26.564 127.538 29.6539 129.498C32.7438 131.459 34.6984 134.797 36.043 138.202C37.805 142.664 38.9326 147.763 42.6864 150.748C44.5015 152.191 46.8 153.003 48.4043 154.677C50.689 157.062 51.0842 160.661 51.0327 163.965C50.9812 167.268 50.6257 170.695 51.8281 173.772C53.0306 176.849 56.4779 179.379 59.5692 178.22C58.6836 180.849 58.7108 183.7 59.6462 186.312C60.5817 188.924 62.3707 191.143 64.7237 192.611C64.1605 189.116 63.5973 185.62 63.0342 182.124C65.8411 182.915 67.6604 185.64 68.7112 188.362C69.7618 191.084 70.317 194.028 71.84 196.516C74.2382 200.435 78.5811 202.123 82.9991 202.108C87.7716 202.092 89.5836 199.815 92.7287 196.462C93.3606 195.89 93.8402 195.169 94.1242 194.365C94.2526 193.96 94.2304 193.522 94.0617 193.131C93.893 192.741 93.5892 192.425 93.2061 192.241V192.241Z" fill="#E6E6E6"/>
<path d="M106.72 192.067C104.052 191.648 101.384 191.228 98.7168 190.809C100.115 191.65 101.514 192.491 102.912 193.332C104.078 194.109 105.346 194.72 106.68 195.149C107.349 195.359 108.054 195.43 108.751 195.357C109.448 195.283 110.123 195.067 110.733 194.722L110.392 194.069C109.854 192.708 108.165 192.295 106.72 192.067Z" fill="#E6E6E6"/>
<path d="M104.908 206.906L104.927 206.86C104.766 206.592 104.528 206.379 104.244 206.247C103.961 206.116 103.645 206.072 103.336 206.122C102.722 206.232 102.094 206.242 101.476 206.152C101.084 205.998 100.734 205.753 100.455 205.437C100.177 205.12 99.9784 204.742 99.8763 204.333C99.6111 203.534 99.5327 202.68 99.2307 201.895C99.0126 201.274 98.6274 200.725 98.1177 200.309C97.608 199.893 96.9935 199.626 96.3417 199.537C95.6878 199.484 95.0394 199.691 94.5369 200.114C94.0343 200.536 93.718 201.139 93.6562 201.792C93.7076 202.465 93.9213 203.116 94.279 203.688C94.5667 204.242 94.8544 204.796 95.1422 205.35C95.3847 205.846 95.6636 206.323 95.9767 206.779C96.4861 207.481 97.1521 208.054 97.9218 208.454C98.6915 208.854 99.5437 209.068 100.411 209.081C101.278 209.093 102.136 208.903 102.917 208.525C103.697 208.148 104.379 207.593 104.908 206.906V206.906Z" fill="#E6E6E6"/>
<path d="M89.3285 64.8485C91.3597 66.0469 93.9034 66.8728 94.8686 69.0257L95.4253 69.2057C94.818 69.9609 94.2107 70.7161 93.6034 71.4712C92.8528 72.4045 92.0636 73.4444 92.0811 74.6422C92.1053 76.2918 93.6911 77.5363 95.2933 77.9252C97.0031 78.2773 98.7826 77.9811 100.286 77.0941C101.79 76.2071 102.911 74.7926 103.431 73.1252C103.622 72.4298 103.701 71.7085 103.868 71.0071C104.355 69.3436 105.09 67.7632 106.048 66.3192C111.442 57.2385 116.836 48.1577 122.23 39.077C122.902 37.9461 123.594 36.5932 123.089 35.3787C122.819 34.8649 122.402 34.4437 121.891 34.1693C121.38 33.895 120.799 33.78 120.222 33.8392C119.071 33.9791 117.96 34.3528 116.959 34.9375C116.514 34.1552 115.886 33.4927 115.128 33.0069C114.371 32.5211 113.507 32.2264 112.611 32.1483C110.819 32.0099 109.017 32.167 107.276 32.6133C103.343 33.2072 99.5497 34.511 96.0821 36.4614C94.1851 37.4211 92.0974 38.6062 91.5471 40.6608C90.87 43.1882 93.0519 45.7639 95.5638 46.4903C98.0758 47.2166 100.757 46.6066 103.299 45.9953C103.587 47.2286 103.467 48.5219 102.958 49.6814C102.449 50.8408 101.578 51.804 100.476 52.4265C99.3742 53.049 98.1002 53.2974 96.8452 53.1343C95.5902 52.9713 94.4218 52.4056 93.5151 51.5221C91.6927 49.7463 90.8002 46.6637 88.2981 46.2055C85.804 45.7486 83.8214 48.4107 83.271 50.8875C82.7325 53.5552 83.0246 56.324 84.1077 58.8204C85.1909 61.3168 87.0131 63.4208 89.3285 64.8485Z" fill="#E6E6E6"/>
<path d="M120.611 108.544C119.409 105.156 117.831 101.914 115.905 98.8798C114.445 96.4807 112.643 94.3077 110.555 92.4293C108.648 90.781 106.455 89.4957 104.086 88.6368C101.786 87.8045 99.225 87.3933 96.8997 88.1522C94.5745 88.9112 92.5963 91.0747 92.6434 93.5217C92.6955 96.2275 95.0613 98.3436 97.5268 99.4553C99.9924 100.567 102.735 101.051 105.061 102.431C106.643 103.391 107.965 104.725 108.91 106.316C109.856 107.907 110.397 109.706 110.485 111.554L111.071 112.524C109.744 112.964 108.506 113.638 107.416 114.515C106.877 114.961 106.464 115.541 106.22 116.197C105.977 116.854 105.911 117.563 106.028 118.253C106.435 119.891 108.107 120.832 109.618 121.581C112.412 122.965 115.205 124.35 117.998 125.734C116.576 121.49 121.232 117.541 121.49 113.072C121.5 111.519 121.201 109.98 120.611 108.544V108.544Z" fill="#E6E6E6"/>
<path d="M50.3743 97.0851C52.0688 98.4019 54.6741 97.7859 56.2264 96.304C57.7787 94.822 58.5347 92.7132 59.2398 90.6855C58.9823 92.6925 59.0067 94.7257 59.3122 96.7259C59.4714 97.7261 59.8363 98.6823 60.3839 99.5341C60.9315 100.386 61.6498 101.115 62.4934 101.674C63.2594 102.095 64.0851 102.395 64.9419 102.566C68.9249 103.473 73.0875 103.176 76.9012 101.711L76.9354 100.406C75.0195 100.625 73.5697 98.5222 73.4433 96.5967C73.3168 94.6713 74.0151 92.783 74.0765 90.8543C74.1379 88.9257 73.209 86.6723 71.3114 86.3292C71.6435 86.9967 71.7647 87.7495 71.6586 88.4876C71.5526 89.2256 71.2246 89.9139 70.718 90.4608C70.2115 91.0076 69.5505 91.3871 68.8231 91.5488C68.0958 91.7105 67.3364 91.6467 66.6461 91.3659C64.4497 90.4723 63.6518 87.7947 61.9545 86.138C60.9057 85.2045 59.6045 84.602 58.2146 84.4064C56.8246 84.2107 55.4079 84.4306 54.1425 85.0385C52.8931 85.6764 51.7971 86.5782 50.9301 87.6815C50.0631 88.7848 49.4458 90.0633 49.1209 91.4287C48.6055 93.4099 48.7584 95.8294 50.3743 97.0851Z" fill="#E6E6E6"/>
<path d="M102.671 83.3428L102.75 83.2151C102.277 81.8482 100.81 81.0467 99.3792 80.8433C97.9364 80.748 96.4878 80.7959 95.0544 80.9863C93.6079 81.1736 92.1414 80.8503 90.9074 80.0723C89.9222 79.3353 89.361 78.1758 88.5734 77.2303C87.7858 76.2848 86.5111 75.5073 85.3671 75.9594C84.1284 76.4488 83.798 78.1861 84.3991 79.3753C85.1072 80.5166 86.1754 81.389 87.4346 81.8546C92.2033 84.0451 97.5691 84.5692 102.671 83.3428V83.3428Z" fill="#E6E6E6"/>
<path d="M86.3933 87.4405C85.9972 87.7309 85.7286 88.1633 85.6438 88.6473C85.559 89.1313 85.6645 89.6294 85.9383 90.0374C86.2121 90.4453 86.6329 90.7315 87.1127 90.836C87.5926 90.9406 88.0942 90.8554 88.5127 90.5983L88.9306 91.0111C89.4864 90.0152 89.7155 88.6809 89.0049 87.7892C88.6889 87.4194 88.2476 87.1794 87.7657 87.115C87.2838 87.0507 86.7952 87.1666 86.3933 87.4405V87.4405Z" fill="#E6E6E6"/>
<path d="M81.5035 91.0133C81.5096 90.6575 81.4079 90.3081 81.2118 90.0113C81.0157 89.7144 80.7344 89.4838 80.4049 89.35C80.1806 89.3115 79.9508 89.3188 79.7294 89.3715C79.508 89.4242 79.2995 89.5212 79.1166 89.6567C78.9337 89.7922 78.78 89.9633 78.6649 90.1598C78.5498 90.3563 78.4757 90.574 78.4469 90.8C78.4124 91.2602 78.4729 91.7226 78.6245 92.1584C78.7761 92.5943 79.0156 92.9943 79.3282 93.3337C79.5101 93.607 79.7478 93.8386 80.0256 94.0133C80.3035 94.188 80.6152 94.3018 80.9402 94.3472C81.5951 94.3686 82.2628 93.6833 81.9973 93.0839L80.9973 93.0644C81.3054 92.4229 81.4777 91.7246 81.5035 91.0133V91.0133Z" fill="#E6E6E6"/>
<path d="M61.9479 80.7654C62.3151 81.0632 62.6824 81.3611 63.0496 81.659C63.6858 82.2093 64.3729 82.6975 65.1018 83.1171C66.3766 83.8238 67.8759 84.0074 69.2835 83.6293C69.9784 83.431 70.6122 83.0608 71.1266 82.5529C71.6409 82.045 72.0192 81.4157 72.2266 80.723C72.6657 79.0673 71.9494 77.3481 71.2485 75.7853C71.0885 75.3381 70.8245 74.9353 70.4784 74.6103C70.301 74.4531 70.0748 74.3622 69.838 74.3528C69.6013 74.3435 69.3687 74.4165 69.1795 74.5592C69.0424 74.7302 68.9512 74.9333 68.9146 75.1495C68.878 75.3656 68.8972 75.5875 68.9704 75.7941C69.1211 76.2058 69.19 76.643 69.1732 77.0812C69.1034 77.5133 68.6501 77.9218 68.2508 77.743L68.1872 79.2141C66.2804 78.2482 65.272 75.679 63.1499 75.4257C62.6736 75.3688 62.1909 75.4439 61.7544 75.6428C61.3179 75.8417 60.9443 76.1568 60.6744 76.5536C60.4046 76.9504 60.2489 77.4138 60.2242 77.8931C60.1995 78.3724 60.3068 78.8494 60.5345 79.2718C60.9029 79.8578 61.3832 80.3654 61.9479 80.7654V80.7654Z" fill="#E6E6E6"/>
<path d="M57.4063 74.4146C57.8473 74.1119 58.1963 73.6933 58.4148 73.2048C58.6332 72.7163 58.7126 72.1769 58.6442 71.6461C58.5914 71.3891 58.4827 71.1468 58.3257 70.9365C58.1687 70.7263 57.9674 70.5532 57.736 70.4296C57.5046 70.3061 57.2489 70.235 56.9869 70.2216C56.725 70.2081 56.4634 70.2526 56.2206 70.3518C55.6758 70.7594 55.293 71.3471 55.1405 72.0105C54.6379 73.429 54.1354 74.8476 53.6328 76.2661L54.4774 75.6511C55.5224 75.4259 56.5159 75.0065 57.4063 74.4146V74.4146Z" fill="#E6E6E6"/>
<path d="M67.1931 65.7091C67.344 65.5187 67.4514 65.2975 67.5077 65.061C67.5639 64.8246 67.5677 64.5787 67.5188 64.3407C67.4698 64.1027 67.3693 63.8782 67.2244 63.6833C67.0794 63.4883 66.8935 63.3274 66.6797 63.2121L65.6237 63.1133C65.3835 63.1741 65.161 63.2904 64.9739 63.4529C64.7868 63.6153 64.6404 63.8194 64.5464 64.0487C64.4523 64.2781 64.4133 64.5262 64.4325 64.7734C64.4516 65.0205 64.5284 65.2597 64.6566 65.4718C64.7849 65.6839 64.961 65.8629 65.1708 65.9946C65.3807 66.1262 65.6185 66.2068 65.8651 66.2299C66.1118 66.253 66.3604 66.2179 66.591 66.1274C66.8216 66.037 67.0279 65.8937 67.1931 65.7091V65.7091Z" fill="#E6E6E6"/>
<path d="M76.9106 67.3402C77.8961 67.812 79.1436 68.2616 80.001 67.5841C80.2549 67.3541 80.4438 67.0612 80.5486 66.7348C80.6534 66.4085 80.6704 66.0603 80.5979 65.7253C80.444 65.0571 80.1466 64.4303 79.7264 63.8886C78.4153 62.0048 76.7495 60.3952 74.8223 59.1499L74.3458 59.7694C73.6803 61.4988 73.0377 63.5177 73.966 65.1213C74.5919 66.2023 75.7843 66.8009 76.9106 67.3402Z" fill="#E6E6E6"/>
<path d="M84.252 68.8793L86.0948 69.7135C85.9141 69.3983 85.6389 69.1482 85.3081 68.9984C84.9773 68.8487 84.6078 68.807 84.252 68.8793Z" fill="#E6E6E6"/>
<path d="M79.285 74.6819L78.4141 74.969C77.6737 76.1867 77.9949 77.7437 78.3394 79.1268C78.5571 80.0012 79.0267 81.0771 79.9263 81.0374C80.8017 80.9987 81.1891 79.9365 81.3571 79.0759C81.6193 78.1411 81.6477 77.156 81.4398 76.2076C81.3212 75.738 81.0389 75.3263 80.6439 75.0466C80.2488 74.7669 79.7669 74.6376 79.285 74.6819V74.6819Z" fill="#E6E6E6"/>
<path d="M65.3991 70.5837L66.0434 70.8433C66.1945 70.8218 66.3342 70.7509 66.4409 70.6418C66.5477 70.5327 66.6155 70.3914 66.6339 70.2398C66.6522 70.0882 66.6201 69.9348 66.5424 69.8033C66.4648 69.6718 66.346 69.5697 66.2044 69.5126C66.0629 69.4556 65.9065 69.4469 65.7595 69.4878C65.6125 69.5288 65.4831 69.6171 65.3913 69.7391C65.2996 69.8611 65.2506 70.01 65.252 70.1627C65.2534 70.3154 65.3051 70.4634 65.3991 70.5837Z" fill="#E6E6E6"/>
<path d="M97.8834 119.887C97.5713 119.894 97.2653 119.976 96.9911 120.125C96.7168 120.275 96.4823 120.487 96.3069 120.746C96.1315 121.004 96.0204 121.301 95.9829 121.611C95.9454 121.921 95.9826 122.236 96.0913 122.529C96.7241 123.892 98.9033 123.898 99.8717 122.749C100.12 122.422 100.298 122.048 100.394 121.649C100.49 121.251 100.502 120.836 100.431 120.432C100.359 120.029 100.204 119.644 99.9761 119.303C99.7483 118.962 99.4523 118.672 99.1069 118.452L97.8834 119.887Z" fill="#E6E6E6"/>
<path d="M129.268 152.185C129.015 152.253 128.778 152.371 128.571 152.532C128.364 152.692 128.191 152.893 128.063 153.122C127.935 153.351 127.854 153.603 127.825 153.864C127.796 154.125 127.819 154.388 127.894 154.64L129.703 154.766C130.315 154.458 130.928 154.15 131.541 153.842C131.504 153.583 131.415 153.333 131.28 153.108C131.145 152.883 130.966 152.688 130.754 152.534C130.542 152.379 130.302 152.269 130.046 152.209C129.791 152.149 129.527 152.141 129.268 152.185V152.185Z" fill="#E6E6E6"/>
<path d="M121.916 154.425C121.398 154.793 120.983 155.287 120.709 155.86C120.434 156.432 120.31 157.066 120.349 157.7C120.407 158.333 120.666 158.93 121.087 159.406C121.507 159.882 122.069 160.211 122.689 160.347C123.315 160.445 123.955 160.301 124.48 159.945C125.004 159.589 125.374 159.047 125.514 158.429C125.82 156.556 123.809 155.185 123.087 153.431L121.916 154.425Z" fill="#E6E6E6"/>
<path d="M192.182 142.058C192.373 143.464 191.107 144.695 191.06 146.113C191.004 147.795 192.834 149.104 194.508 148.939C195.339 148.795 196.125 148.46 196.805 147.96C197.484 147.461 198.039 146.81 198.425 146.06L198.461 145.902C197.646 144.98 196.83 144.058 196.015 143.136C195.014 142.003 193.952 140.714 193.991 139.202C194.011 138.457 194.304 137.735 194.288 136.99C194.248 136.454 194.129 135.927 193.933 135.426C193.712 134.767 193.412 134.024 192.753 133.801C191.929 133.523 191.098 134.253 190.704 135.03C190.35 135.746 190.179 136.538 190.204 137.336C190.229 138.135 190.45 138.915 190.848 139.607C191.324 140.416 192.055 141.128 192.182 142.058Z" fill="#E6E6E6"/>
<path d="M184.492 147.004C184.67 147.1 184.867 147.157 185.069 147.17C185.271 147.183 185.474 147.152 185.663 147.079C186.39 146.955 187.088 146.701 187.725 146.329C188.041 146.139 188.301 145.868 188.478 145.545C188.655 145.221 188.743 144.856 188.733 144.487C188.623 144.023 188.378 143.603 188.028 143.278C187.679 142.954 187.242 142.74 186.771 142.665C186.445 142.55 186.095 142.517 185.753 142.569C185.41 142.621 185.086 142.757 184.809 142.965C184.201 143.535 184.274 144.503 184.393 145.328L184.265 145.543C184.151 146.052 184.078 146.686 184.492 147.004Z" fill="#E6E6E6"/>
<path d="M312.831 207.08C312.654 206.641 312.478 206.203 312.301 205.764C312.06 206.36 312.149 206.969 312.831 207.08Z" fill="#E6E6E6"/>
<path d="M418.697 114.771C416.434 112.314 415.048 110.897 413.619 107.851C412.842 106.172 411.66 104.711 410.181 103.599C408.702 102.487 406.97 101.759 405.141 101.48C400.446 100.706 395.649 101.932 390.897 101.686C383.285 101.293 376.421 97.2077 369.132 94.9793C365.051 93.835 360.894 92.9772 356.694 92.4122C354.273 92.0292 351.853 91.6461 349.432 91.2631C341.498 90.0074 333.513 88.7481 325.482 88.9148C323.166 88.963 319.94 88.2664 320.125 85.9559C320.356 83.0863 325.515 83.463 326.507 80.7608C327.121 79.0892 325.652 77.3341 324.04 76.5783C322.429 75.8224 320.569 75.5952 319.107 74.5804C317.644 73.5656 316.843 71.2132 318.187 70.0459C314.461 71.9571 310.736 73.8683 307.01 75.7796C303.913 77.3685 300.452 79.4359 299.905 82.8757C298.038 83.3693 296.405 84.5048 295.291 86.083C293.196 86.0939 291.549 88.1072 291.203 90.1756C290.857 92.244 291.486 94.3374 292.107 96.3403C291.347 94.8833 290.539 93.3707 289.2 92.4199C287.86 91.4692 285.82 91.2881 284.678 92.4692C283.506 93.6811 283.78 95.7146 284.609 97.183C285.438 98.6514 286.712 99.8366 287.494 101.331C289.938 105.996 285.51 112.565 280.272 112.046C280.623 107.228 280.974 102.41 281.326 97.5916C281.548 96.1096 281.424 94.5961 280.962 93.1705C280.391 91.7913 278.927 90.6585 277.471 90.9842C274.853 91.5698 275.077 95.4077 276.166 97.8611C277.255 100.315 278.341 103.726 276.118 105.229C274.682 106.199 272.735 105.6 271.185 104.825C269.635 104.051 267.977 103.097 266.283 103.458C264.588 103.82 263.523 106.412 265.02 107.285C262.537 106.853 260.055 106.421 257.572 105.989C257.449 106.721 257.174 107.418 256.765 108.036C256.356 108.655 255.822 109.18 255.197 109.579C254.573 109.978 253.871 110.241 253.139 110.352C252.406 110.463 251.658 110.418 250.944 110.222C250.7 109.211 250.456 108.2 250.212 107.189C249.849 107.088 249.486 106.987 249.123 106.886C250.263 107.204 248.479 112.016 246.879 115.692C244.729 115.44 241.587 115.391 241.228 114.775C239.511 111.822 239.715 104.789 236.732 103.128C235.236 102.295 233.702 101.536 232.13 100.851C231.304 100.457 230.431 100.171 229.533 99.9977C227.701 99.7088 225.854 100.277 224.087 100.839C221.998 101.503 219.86 102.192 218.131 103.539C216.654 104.821 215.388 106.327 214.379 108.003C210.965 113.061 207.55 118.118 204.135 123.175C203.118 124.526 202.317 126.027 201.762 127.624C201.501 128.419 201.414 129.26 201.507 130.092C201.601 130.923 201.872 131.724 202.303 132.441C202.757 133.143 203.434 133.672 204.226 133.943C205.017 134.213 205.876 134.209 206.665 133.932C207.654 133.503 208.646 132.532 209.626 132.98C210.369 133.32 210.555 134.297 210.477 135.111C210.288 135.907 210.273 136.735 210.433 137.538C210.88 138.805 212.598 139.245 213.823 138.697C215.014 138.047 215.907 136.959 216.313 135.664C217.494 132.634 217.373 129.281 217.667 126.043C217.961 122.804 218.846 119.34 221.397 117.326C222.161 116.723 223.283 116.289 224.07 116.862C224.364 117.13 224.568 117.483 224.652 117.872C224.736 118.261 224.697 118.667 224.539 119.032C224.211 119.756 223.782 120.43 223.266 121.034C222.394 122.261 221.784 123.655 221.474 125.129C221.163 126.602 221.159 128.124 221.462 129.599L221.984 129.922C223.973 129.405 226.636 130.33 229.277 131.217C227.36 131.787 225.672 132.949 224.454 134.537C221.4 138.824 219.19 142.881 213.15 142.83C211.718 142.818 210.297 142.534 208.864 142.531C207.418 142.441 205.993 142.916 204.889 143.856C203.803 144.92 203.467 146.541 202.538 147.745C201.316 149.328 199.273 149.972 197.408 150.691C196.044 151.216 194.607 151.925 193.981 153.246C193.587 154.329 193.496 155.499 193.718 156.63C193.928 158.63 194.3 160.904 195.996 161.984C196.63 162.315 197.323 162.517 198.036 162.577C198.748 162.637 199.466 162.555 200.147 162.336C201.91 161.906 203.635 161.098 205.446 161.219C208.29 161.408 210.632 164.14 210.66 166.992C210.675 168.435 210.254 170.091 211.21 171.172C212.109 172.188 213.891 172.007 214.822 171.021C215.254 170.496 215.552 169.873 215.689 169.207C215.826 168.541 215.797 167.851 215.606 167.198C215.211 165.898 214.603 164.672 213.807 163.571C214.753 163.325 215.756 163.416 216.643 163.826C217.53 164.237 218.248 164.942 218.675 165.823C219.306 167.227 219.102 168.847 219.304 170.374C219.505 171.901 220.434 173.598 221.971 173.686C222.473 173.7 222.964 173.537 223.36 173.227C223.755 172.916 224.029 172.477 224.135 171.985C224.151 171.211 224.109 170.436 224.009 169.667C224.061 168.911 224.401 168.203 224.958 167.689C225.516 167.175 226.248 166.894 227.006 166.904C226.539 167.768 226.386 168.768 226.576 169.732C226.765 170.697 227.283 171.565 228.042 172.189C229.212 173.094 230.757 173.296 232.214 173.549C233.67 173.802 235.224 174.202 236.164 175.344C237.73 177.246 235.814 178.103 235.516 179.714C235.15 181.691 236.8 184.611 237.434 186.503C240.347 190.581 243.261 194.66 246.174 198.738C246.824 199.73 247.591 200.64 248.459 201.448C251.335 203.92 256.076 203.676 258.834 201.073C260.171 199.72 261.039 197.972 261.311 196.089C261.583 194.205 261.244 192.283 260.344 190.606C258.64 187.501 255.263 185.579 253.595 182.454C256.371 184.753 259.778 186.156 263.368 186.476C269.718 187.767 275.751 190.299 281.122 193.927C281.375 199.542 283.528 204.905 287.228 209.134C287.893 204.342 290.126 199.905 293.577 196.517C295.822 194.326 298.888 192.56 301.968 193.149C305.047 193.738 307.383 197.668 305.521 200.191C307.081 200.307 308.642 200.424 310.203 200.54C310.903 202.281 311.602 204.022 312.302 205.764C312.427 205.398 312.665 205.081 312.983 204.861C313.3 204.64 313.68 204.527 314.066 204.539C315.527 204.759 316.552 206.12 317.941 206.622C320.561 207.569 323.361 204.946 323.7 202.18C324.039 199.413 322.724 196.742 321.446 194.266C324.269 194.789 327.182 194.477 329.83 193.368C332.478 192.26 334.746 190.403 336.356 188.024C337.965 185.646 338.847 182.849 338.893 179.977C338.939 177.105 338.147 174.282 336.614 171.853C339.651 168.661 343.225 166.028 347.173 164.074C350.827 162.268 354.823 161.028 358.016 158.494C361.209 155.96 363.449 151.561 361.913 147.784C360.828 145.115 358.107 143.304 357.292 140.541C356.113 136.541 359.695 132.404 363.741 131.405C367.786 130.405 372.012 131.634 375.997 132.852C375.385 128.748 380.138 124.901 384.021 126.358C385.647 125.7 387.272 125.041 388.898 124.382C387.014 128.54 382.929 131.186 379.926 134.624C376.923 138.062 375.135 143.66 378.272 146.976C382.768 142.897 387.265 138.819 391.762 134.741C396.465 130.474 401.169 126.208 405.872 121.942C405.648 121.282 405.423 120.622 405.198 119.962C409.649 118.27 414.441 116.871 418.697 114.771Z" fill="#E6E6E6"/>
<path d="M185.136 169.661C184.954 169.923 184.858 170.234 184.859 170.553C184.861 170.872 184.961 171.182 185.145 171.442C185.387 171.647 185.692 171.762 186.009 171.766C186.326 171.771 186.634 171.664 186.881 171.465C187.364 171.053 187.741 170.53 187.981 169.942C188.215 170.394 188.582 170.763 189.032 171C189.483 171.236 189.995 171.327 190.5 171.262C191.507 171.11 192.462 170.712 193.279 170.102C193.927 169.722 194.499 169.226 194.966 168.637C195.197 168.341 195.356 167.995 195.43 167.626C195.503 167.257 195.49 166.877 195.39 166.514C195.148 165.958 194.771 165.472 194.294 165.098C193.104 163.998 191.914 162.898 190.724 161.798L190.321 161.677C190.111 161.454 189.858 161.275 189.578 161.152C189.297 161.029 188.994 160.963 188.688 160.96C188.382 160.957 188.078 161.016 187.795 161.133C187.511 161.25 187.255 161.423 187.04 161.642C186.301 162.47 186.298 163.706 186.411 164.81C186.524 165.914 186.7 167.091 186.208 168.086C185.927 168.656 185.45 169.108 185.136 169.661Z" fill="#E6E6E6"/>
<path d="M254.172 207.23C249.548 206.2 245.315 203.867 241.974 200.506C238.633 197.146 236.323 192.899 235.318 188.266C234.879 186.08 234.68 183.692 233.227 182.002C231.82 180.366 229.522 179.775 227.365 179.775C225.208 179.776 223.081 180.272 220.929 180.407C217.165 180.641 213.176 179.647 210.485 177.003C209.21 175.751 208.245 174.162 206.757 173.174C204.756 171.847 202.104 171.848 199.824 172.6C197.285 173.438 195.252 175.729 192.476 175.414C189.589 175.086 186.242 174.064 185.11 177.869C184.784 178.965 184.895 180.166 184.482 181.232C183.846 182.874 182.157 183.8 180.822 184.948C178.131 187.259 176.701 190.77 176.219 194.285C175.737 197.801 176.11 201.371 176.483 204.9C176.684 206.803 176.949 208.851 178.255 210.249C180.077 212.198 183.133 212.122 185.79 211.903C188.876 211.648 191.963 211.393 195.05 211.138C196.714 211 198.61 210.942 199.795 212.119C200.505 212.825 200.805 213.845 201.429 214.628C201.99 215.294 202.759 215.75 203.612 215.922C204.465 216.094 205.351 215.972 206.125 215.575C205.499 216.694 205.158 217.95 205.133 219.233C205.107 220.515 205.398 221.784 205.98 222.926C206.561 224.069 207.416 225.051 208.467 225.785C209.518 226.519 210.733 226.982 212.006 227.133L212.244 227.283C210.268 230.67 208.217 234.473 209.037 238.308C209.739 241.596 212.461 244.232 212.906 247.565C213.314 250.623 211.72 253.751 212.425 256.754C213.139 259.795 216.209 261.916 219.323 262.142C222.437 262.368 225.496 260.986 227.908 259.002C230.32 257.019 232.185 254.464 234.023 251.938C235.158 250.378 236.321 248.755 236.711 246.866C237.125 244.856 236.645 242.628 237.622 240.823C238.748 238.741 241.423 237.961 242.773 236.017C244.521 233.499 243.491 230.071 243.877 227.03C244.833 219.504 254.389 214.813 254.172 207.23Z" fill="#E6E6E6"/>
<path d="M252.791 232.923C252.529 234.098 251.43 234.872 250.382 235.463C249.334 236.055 248.182 236.652 247.648 237.73C247.101 238.835 247.351 240.152 247.637 241.351C248.232 243.846 248.933 246.313 249.74 248.75C251.303 245.794 252.668 242.737 253.826 239.599C254.316 238.431 254.619 237.192 254.723 235.93C254.771 235.298 254.686 234.663 254.473 234.065C254.261 233.468 253.926 232.922 253.49 232.462L252.791 232.923Z" fill="#E6E6E6"/>
<path d="M317.094 219.834C315.781 218.318 314.468 216.801 313.155 215.284C312.257 214.247 311.233 213.139 309.873 212.966L309.312 213.324C310.451 216.036 311.589 218.749 312.728 221.462C313.131 222.7 313.84 223.817 314.79 224.708C315.809 225.509 317.462 225.663 318.311 224.684C318.585 224.317 318.758 223.884 318.812 223.429C318.867 222.974 318.8 222.513 318.62 222.092C318.25 221.254 317.733 220.49 317.094 219.834Z" fill="#E6E6E6"/>
<path d="M329.816 222.739C330.312 222.566 330.767 222.292 331.151 221.933C331.535 221.575 331.841 221.14 332.047 220.657C332.454 219.689 332.723 218.668 332.846 217.625C333.07 216.267 333.295 214.909 333.519 213.55L333.225 213.475C332.94 213.338 332.615 213.309 332.31 213.394C332.006 213.478 331.742 213.671 331.568 213.935C331.237 214.474 330.987 215.059 330.825 215.671C330.742 215.977 330.591 216.26 330.383 216.499C330.175 216.738 329.917 216.926 329.626 217.051C328.572 217.37 327.573 216.252 326.473 216.295C326.029 216.352 325.617 216.558 325.304 216.879C324.991 217.2 324.797 217.618 324.752 218.064C324.688 218.964 324.943 219.859 325.472 220.59C326.41 222.047 328.151 223.218 329.816 222.739Z" fill="#E6E6E6"/>
<path d="M337.076 225.314L340.102 217.339C338.876 218.229 337.936 219.457 337.399 220.874C336.861 222.291 336.749 223.834 337.076 225.314V225.314Z" fill="#E6E6E6"/>
<path d="M352.517 218.885L351.905 218.911C351.632 219.452 351.486 220.049 351.481 220.656C351.475 221.262 351.609 221.862 351.872 222.408C352.409 223.497 353.19 224.448 354.155 225.185C355.649 226.42 357.356 227.373 359.191 227.999C361.881 228.784 364.663 229.213 367.465 229.274C369.067 229.379 370.669 229.484 372.271 229.589C373.034 229.639 374.021 229.542 374.233 228.807C374.408 228.2 373.891 227.629 373.409 227.221C369.171 223.653 364.033 221.319 358.558 220.476C356.482 220.16 354.278 220.031 352.517 218.885Z" fill="#E6E6E6"/>
<path d="M369.615 240.049C368.463 238.932 367.311 237.814 366.159 236.696C365.039 235.609 363.361 234.456 362.077 235.344C361.339 235.854 361.111 236.85 360.486 237.493C360.105 237.834 359.644 238.075 359.147 238.194C358.649 238.313 358.13 238.305 357.636 238.172C356.652 237.895 355.722 237.454 354.885 236.867L352.026 235.092C351.04 234.479 350.053 233.867 349.067 233.254L346.841 235.419C346.938 234.354 345.518 233.662 344.536 234.083C344.069 234.345 343.666 234.709 343.36 235.148C343.053 235.588 342.848 236.09 342.762 236.619C342.599 237.677 342.313 238.711 341.912 239.703C340.781 241.868 338.037 242.51 335.623 242.873C333.209 243.235 330.473 243.746 329.181 245.819C328.105 247.545 328.427 249.762 328.787 251.765L330.148 259.341C330.212 260.259 330.58 261.13 331.193 261.815C332.389 262.871 334.24 262.229 335.699 261.585C338.749 260.117 342.021 259.168 345.383 258.777C348.773 258.397 352.186 259.272 354.977 261.236C356.707 262.554 358.026 264.379 359.859 265.55C361.122 266.31 362.542 266.772 364.01 266.9C365.478 267.028 366.956 266.82 368.331 266.29C371.087 265.191 373.369 263.155 374.774 260.54C376.021 258.234 376.647 255.643 376.59 253.021C376.533 250.4 375.795 247.838 374.449 245.589C373.073 243.549 371.45 241.688 369.615 240.049Z" fill="#E6E6E6"/>
<path d="M366.22 270.919C365.944 271.255 365.782 271.67 365.759 272.105C365.736 272.539 365.852 272.97 366.091 273.334C366.593 274.053 367.358 274.546 368.221 274.706C369.075 274.859 369.946 274.898 370.811 274.824L370.837 274.178C370.607 273.043 370.084 271.989 369.32 271.119C368.486 270.325 367.011 270.081 366.22 270.919Z" fill="#E6E6E6"/>
<path d="M395.886 271.61L395.473 271.459C394.49 272.942 393.507 274.424 392.524 275.907C391.995 276.705 391.443 277.663 391.766 278.564C392.148 279.63 393.56 279.943 394.656 279.661C395.493 279.434 396.248 278.972 396.832 278.331C397.416 277.689 397.805 276.894 397.954 276.039C398.075 275.18 397.944 274.304 397.577 273.518C397.21 272.731 396.622 272.069 395.886 271.61V271.61Z" fill="#E6E6E6"/>
<path d="M403.38 266.905L400.666 264.746C400.629 265.748 400.593 266.749 400.557 267.751L400.455 267.753C401.081 268.302 401.672 268.89 402.224 269.513C402.859 270.053 403.925 270.3 404.468 269.667C404.63 269.441 404.723 269.171 404.733 268.892C404.743 268.614 404.672 268.338 404.526 268.1C404.228 267.629 403.838 267.222 403.38 266.905Z" fill="#E6E6E6"/>
<path d="M354.352 172.979C353.213 172.944 351.953 172.874 351.071 173.595C350.78 173.855 350.526 174.152 350.313 174.479L350.002 174.915C349.537 175.525 349.131 176.178 348.79 176.866C348.612 177.188 348.505 177.545 348.476 177.912C348.448 178.279 348.499 178.648 348.625 178.994C348.698 179.159 348.806 179.306 348.942 179.425C349.078 179.544 349.239 179.631 349.413 179.681C349.586 179.731 349.769 179.742 349.947 179.714C350.125 179.685 350.295 179.618 350.445 179.517C350.931 179.065 350.818 178.247 351.186 177.695C351.348 177.487 351.556 177.319 351.794 177.205C352.031 177.092 352.292 177.035 352.556 177.039C353.082 177.052 353.605 177.111 354.12 177.216C355.548 177.412 357.002 177.195 358.31 176.59C359.618 175.986 360.726 175.019 361.503 173.805C362.28 172.59 362.693 171.179 362.694 169.737C362.695 168.295 362.284 166.883 361.508 165.668L361.417 165.388C360.628 165.358 359.854 165.605 359.229 166.087C358.604 166.569 358.168 167.255 357.997 168.026C357.742 169.354 358.282 170.896 357.478 171.982C356.799 172.898 355.491 173.015 354.352 172.979Z" fill="#E6E6E6"/>
<path d="M364.545 158.903L364.371 158.888C363.353 159.074 362.375 159.439 361.483 159.965C361.191 160.101 360.957 160.338 360.825 160.633C360.787 160.789 360.787 160.953 360.827 161.109C360.868 161.265 360.946 161.408 361.055 161.527C361.276 161.761 361.535 161.956 361.821 162.103C362.247 162.388 362.717 162.598 363.213 162.726C363.461 162.788 363.721 162.786 363.969 162.722C364.217 162.658 364.445 162.533 364.633 162.359C364.809 162.117 364.931 161.839 364.988 161.545C365.046 161.251 365.038 160.948 364.966 160.657C364.885 160.06 364.744 159.472 364.545 158.903Z" fill="#E6E6E6"/>
<path d="M346.993 173.318C347.265 172.881 347.459 172.4 347.565 171.897C347.671 171.506 347.777 171.115 347.883 170.724L346.748 170.034C346.206 170.317 345.706 170.673 345.262 171.094C345.041 171.306 344.867 171.562 344.75 171.844C344.632 172.127 344.575 172.431 344.58 172.737C344.596 173.043 344.715 173.335 344.917 173.564C345.119 173.794 345.393 173.949 345.695 174.003C345.952 174.011 346.207 173.952 346.434 173.831C346.662 173.711 346.854 173.534 346.993 173.318V173.318Z" fill="#E6E6E6"/>
<path d="M223.336 67.6887C222.887 67.9687 223.014 68.6455 223.196 69.1425C223.405 69.713 223.614 70.2836 223.823 70.854L224.116 69.7465C224.373 69.317 224.486 68.8167 224.439 68.3183C224.338 67.8315 223.758 67.4257 223.336 67.6887Z" fill="#E6E6E6"/>
<path d="M506.741 170.461H316.886C312.311 170.456 307.923 168.635 304.688 165.397C301.452 162.159 299.632 157.769 299.627 153.19V17.2714C299.632 12.6923 301.452 8.30231 304.688 5.06442C307.924 1.82654 312.311 0.00520924 316.886 0H506.741C511.316 0.00520725 515.703 1.82654 518.939 5.06442C522.175 8.30231 523.995 12.6923 524 17.2714V153.19C523.995 157.769 522.175 162.159 518.939 165.397C515.703 168.635 511.316 170.456 506.741 170.461V170.461Z" fill="white"/>
<path d="M506.741 170.461H316.886C312.311 170.456 307.923 168.635 304.688 165.397C301.452 162.159 299.632 157.769 299.627 153.19V17.2714C299.632 12.6923 301.452 8.30231 304.688 5.06442C307.924 1.82654 312.311 0.00520924 316.886 0H506.741C511.316 0.00520725 515.703 1.82654 518.939 5.06442C522.175 8.30231 523.995 12.6923 524 17.2714V153.19C523.995 157.769 522.175 162.159 518.939 165.397C515.703 168.635 511.316 170.456 506.741 170.461V170.461ZM316.886 1.50186C312.708 1.50655 308.703 3.16948 305.749 6.12583C302.794 9.08217 301.132 13.0905 301.128 17.2714V153.19C301.133 157.371 302.794 161.379 305.749 164.335C308.703 167.292 312.708 168.955 316.886 168.959H506.741C510.919 168.955 514.924 167.292 517.878 164.335C520.833 161.379 522.494 157.371 522.499 153.19V17.2714C522.494 13.0905 520.833 9.08217 517.878 6.12583C514.924 3.16948 510.919 1.50655 506.741 1.50186H316.886Z" fill="#3F3D56"/>
<path d="M368.542 20.6949H338.525C337.729 20.6949 336.966 20.3785 336.403 19.8152C335.84 19.2519 335.523 18.4879 335.523 17.6912C335.523 16.8946 335.84 16.1306 336.403 15.5673C336.966 15.004 337.729 14.6875 338.525 14.6875H368.542C369.338 14.6875 370.101 15.004 370.664 15.5673C371.227 16.1306 371.543 16.8946 371.543 17.6912C371.543 18.4879 371.227 19.2519 370.664 19.8152C370.101 20.3785 369.338 20.6949 368.542 20.6949Z" fill="#CCCCCC"/>
<path d="M433.827 88.2784H338.525C337.729 88.2784 336.966 87.962 336.403 87.3987C335.84 86.8354 335.523 86.0714 335.523 85.2747C335.523 84.4781 335.84 83.7141 336.403 83.1508C336.966 82.5875 337.729 82.271 338.525 82.271H433.827C434.623 82.271 435.387 82.5875 435.95 83.1508C436.513 83.7141 436.829 84.4781 436.829 85.2747C436.829 86.0714 436.513 86.8354 435.95 87.3987C435.387 87.962 434.623 88.2784 433.827 88.2784Z" fill="#CCCCCC"/>
<path d="M355.406 69.3163C366.521 69.3163 375.532 60.2997 375.532 49.1772C375.532 38.0547 366.521 29.0381 355.406 29.0381C344.292 29.0381 335.281 38.0547 335.281 49.1772C335.281 60.2997 344.292 69.3163 355.406 69.3163Z" fill="#00BFA6"/>
<path d="M340.026 145.641H335.523V147.142H340.026V145.641Z" fill="#3F3D56"/>
<path d="M472.225 147.142H462.782V145.641H472.225V147.142ZM453.339 147.142H443.896V145.641H453.339V147.142ZM434.454 147.142H425.011V145.641H434.454V147.142ZM415.568 147.142H406.126V145.641H415.568L415.568 147.142ZM396.683 147.142H387.24V145.641H396.683V147.142ZM377.797 147.142H368.354V145.641H377.797L377.797 147.142ZM358.912 147.142H349.469V145.641H358.912V147.142Z" fill="#3F3D56"/>
<path d="M486.168 145.641H481.666V147.142H486.168V145.641Z" fill="#3F3D56"/>
<path d="M411.943 119.067H408.191V144.599H411.943V119.067Z" fill="#00BFA6"/>
<path d="M450.215 119.067H446.463V144.599H450.215V119.067Z" fill="#00BFA6"/>
<path d="M468.975 133.334H465.223V144.598H468.975V133.334Z" fill="#00BFA6"/>
<path d="M430.703 107.803H426.951V144.598H430.703V107.803Z" fill="#00BFA6"/>
<path d="M67.5044 170.13C69.9911 170.13 72.0069 168.113 72.0069 165.624C72.0069 163.136 69.9911 161.119 67.5044 161.119C65.0178 161.119 63.002 163.136 63.002 165.624C63.002 168.113 65.0178 170.13 67.5044 170.13Z" fill="#00BFA6"/>
<path d="M79.5103 148.353C81.9969 148.353 84.0128 146.336 84.0128 143.847C84.0128 141.359 81.9969 139.342 79.5103 139.342C77.0236 139.342 75.0078 141.359 75.0078 143.847C75.0078 146.336 77.0236 148.353 79.5103 148.353Z" fill="#00BFA6"/>
<path d="M211.585 131.081C214.071 131.081 216.087 129.064 216.087 126.576C216.087 124.088 214.071 122.07 211.585 122.07C209.098 122.07 207.082 124.088 207.082 126.576C207.082 129.064 209.098 131.081 211.585 131.081Z" fill="#00BFA6"/>
<path d="M108.232 448.656L115.023 448.655L118.254 422.442L108.23 422.443L108.232 448.656Z" fill="#FFB6B6"/>
<path d="M107.995 455.745L128.878 455.744V455.48C128.878 453.323 128.021 451.254 126.497 449.729C124.973 448.203 122.905 447.346 120.75 447.346H120.749L116.934 444.45L109.817 447.347L107.994 447.347L107.995 455.745Z" fill="#2F2E41"/>
<path d="M159.261 448.656L166.052 448.655L169.283 422.442L159.26 422.443L159.261 448.656Z" fill="#FFB6B6"/>
<path d="M159.022 455.745L179.905 455.744V455.48C179.905 453.323 179.049 451.254 177.524 449.729C176 448.203 173.933 447.346 171.777 447.346H171.776L167.962 444.45L160.844 447.347L159.021 447.347L159.022 455.745Z" fill="#2F2E41"/>
<path d="M107.969 235.421L120.021 233.693C124.097 240.514 125.545 258.668 125.545 258.668L137.34 286.722C138.122 287.253 138.749 287.98 139.16 288.831C139.571 289.682 139.75 290.626 139.681 291.568C139.611 292.51 139.295 293.418 138.763 294.199C138.232 294.98 137.504 295.607 136.653 296.017C135.803 296.427 134.859 296.606 133.917 296.535C132.976 296.464 132.069 296.146 131.289 295.614C130.51 295.081 129.884 294.352 129.475 293.5C129.066 292.648 128.889 291.704 128.961 290.762L109.595 258.108L107.969 235.421Z" fill="#FFB6B6"/>
<path d="M114.501 201.939C112.635 202.228 110.856 202.925 109.291 203.98C107.725 205.035 106.411 206.423 105.442 208.044C104.473 209.665 103.873 211.48 103.685 213.36C103.497 215.239 103.725 217.137 104.353 218.918L106.911 226.173C106.911 226.173 103.689 248.015 108.998 254.181L125.291 252.705C125.291 252.705 122.312 241.685 124.599 236.353C125.999 233.088 125.921 221.81 124.541 212.636C123.488 205.63 121.497 200.854 114.501 201.939Z" fill="#2F5675"/>
<path d="M170.685 267.751C170.685 267.751 183.243 280.007 180.562 282.837C177.88 285.668 171.745 289.633 177.439 290.279C183.133 290.925 185.495 292.325 180.562 293.502C175.629 294.679 176.391 297.703 176.391 297.703C176.391 297.703 183.818 333.082 178.189 356.361C178.189 356.361 175.057 419.943 173.092 424.895C171.126 429.847 170.376 426.843 171.126 429.847C171.876 432.85 173.377 427.594 171.876 432.85C171.058 435.596 170.409 438.39 169.935 441.216L155.255 438.963C155.255 438.963 152.892 431.508 155.255 429.551C157.619 427.594 159.739 428.8 157.178 424.442C154.617 420.085 153.867 426.092 154.617 420.085C155.367 414.077 152.235 381.586 157.178 364.415L148.043 316.234L133.54 366.123C133.54 366.123 125.847 427.053 123.348 429.201C120.848 431.349 117.096 427.594 120.848 431.349C124.601 435.103 124.535 434.457 124.601 435.103C125.299 441.991 103.815 434.457 103.815 434.457C103.935 432.707 103.935 430.951 103.815 429.201C103.589 427.594 106.293 427.08 103.815 425.459C101.338 423.839 105.024 425.446 105.024 425.446C105.024 425.446 110.565 380.496 114.78 366.874L119.657 300.539C119.657 300.539 119.967 301.862 119.657 298.646C119.348 295.43 117.096 297.683 119.348 295.43C121.599 293.177 123.1 292.029 121.599 290.351C120.098 288.672 115.958 285.275 118.403 283.219C120.848 281.163 125.661 267.751 125.661 267.751L172.561 268.126" fill="#00BFA6"/>
<path d="M153.053 193.278L144.596 183.75L131.233 185.235L122.678 197.216C118.124 198.264 114.145 201.018 111.559 204.912C108.973 208.807 107.976 213.545 108.775 218.152C112.094 237.282 123.377 255.835 119.651 265.274C113.996 279.602 113.651 285.446 127.188 283.437C140.725 281.428 186.076 276.797 177.283 267.999C168.491 259.2 166.559 244.497 166.559 244.497L166.207 210.86C166.581 208.831 166.531 206.747 166.061 204.738C165.59 202.73 164.71 200.84 163.474 199.189C162.239 197.537 160.675 196.16 158.881 195.143C157.088 194.125 155.103 193.491 153.053 193.278V193.278Z" fill="#2F5675"/>
<path d="M150.742 230.164L162.794 228.437C166.87 235.258 168.319 253.412 168.319 253.412L180.114 281.465C180.895 281.996 181.523 282.724 181.933 283.574C182.344 284.425 182.524 285.369 182.454 286.312C182.385 287.254 182.068 288.161 181.537 288.942C181.005 289.723 180.277 290.351 179.427 290.761C178.576 291.171 177.632 291.35 176.691 291.279C175.749 291.208 174.843 290.89 174.063 290.357C173.283 289.824 172.657 289.096 172.248 288.244C171.839 287.392 171.662 286.447 171.734 285.505L152.368 252.852L150.742 230.164Z" fill="#FFB6B6"/>
<path d="M157.274 196.682C155.409 196.971 153.63 197.668 152.064 198.723C150.499 199.778 149.185 201.166 148.216 202.787C147.247 204.408 146.647 206.223 146.459 208.103C146.27 209.982 146.498 211.88 147.126 213.662L149.684 220.916C149.684 220.916 146.462 242.758 151.772 248.924L168.064 247.448C168.064 247.448 165.085 236.428 167.372 231.096C168.773 227.831 168.695 216.553 167.315 207.379C166.261 200.373 164.27 195.598 157.274 196.682Z" fill="#2F5675"/>
<path d="M134.239 182.929C143.159 182.929 150.39 175.693 150.39 166.767C150.39 157.841 143.159 150.604 134.239 150.604C125.319 150.604 118.088 157.841 118.088 166.767C118.088 175.693 125.319 182.929 134.239 182.929Z" fill="#FFB6B6"/>
<path d="M131.269 182.588C135.767 181.461 135.92 180.174 140.419 179.047C141.851 178.687 143.511 178.122 143.935 176.707C144.036 176.189 144.015 175.655 143.875 175.147C143.734 174.638 143.478 174.17 143.126 173.777C142.417 173.001 141.753 172.184 141.138 171.332C140.73 170.647 140.494 169.873 140.452 169.077C140.41 168.281 140.562 167.487 140.896 166.763C141.229 166.039 141.734 165.407 142.366 164.922C142.998 164.437 143.738 164.113 144.524 163.979C145.915 163.74 147.35 164.109 148.75 163.931C150.671 163.686 153.496 156.555 152.265 155.06C151.066 153.605 149.099 152.736 148.438 150.97C148.006 149.815 148.242 148.523 148.049 147.305C147.764 145.498 144.111 150.5 144.597 148.737C145.79 144.412 125.609 143.731 123.508 149.28C122.723 151.353 120.597 151.683 118.962 153.179C117.89 154.16 115.327 157.3 114.956 158.992C114.648 160.703 114.707 162.459 115.129 164.146C116.805 172.05 119.576 179.055 126.949 182.348" fill="#2F2E41"/>
<path d="M3.90391 456.77L296.359 457C296.476 457.001 296.593 456.978 296.701 456.933C296.81 456.888 296.909 456.823 296.992 456.74C297.075 456.656 297.141 456.558 297.186 456.449C297.231 456.34 297.255 456.224 297.255 456.106C297.255 455.989 297.231 455.872 297.186 455.764C297.141 455.655 297.075 455.556 296.992 455.473C296.909 455.39 296.81 455.324 296.701 455.28C296.593 455.235 296.476 455.212 296.359 455.212L3.90391 454.981C3.78635 454.981 3.66989 455.004 3.56119 455.049C3.45248 455.094 3.35367 455.159 3.27043 455.242C3.18718 455.325 3.12114 455.424 3.07608 455.533C3.03101 455.641 3.00781 455.758 3.00781 455.876C3.00781 455.993 3.03101 456.11 3.07608 456.218C3.12114 456.327 3.18718 456.426 3.27043 456.509C3.35367 456.592 3.45248 456.658 3.56119 456.702C3.66989 456.747 3.78635 456.77 3.90391 456.77V456.77Z" fill="#CACACA"/>
</g>
<defs>
<clipPath id="clip0_262_280">
<rect width="524" height="457" fill="white"/>
</clipPath>
</defs>
</svg>
