<svg width="481" height="381" viewBox="0 0 481 381" fill="none" xmlns="http://www.w3.org/2000/svg">
<g clip-path="url(#clip0_268_2146)">
<path d="M167.038 59.984C166.623 60.5191 166.049 60.9094 165.398 61.0989C164.748 61.2885 164.054 61.2676 163.416 61.0392C163.222 60.9818 163.032 60.9124 162.847 60.8314C163.056 58.593 162.952 56.3364 162.538 54.1267C162.376 56.0261 161.911 57.8874 161.162 59.6404C160.551 59.0282 160.051 58.3147 159.685 57.5317C159.001 55.9115 158.548 54.2035 158.339 52.4576C157.328 46.5092 156.33 40.321 157.98 34.5078C160.397 26.0159 168.017 19.9111 171.2 11.672L172.769 10.2646C175.453 14.8345 175.572 20.5131 174.477 25.6949C173.389 30.8871 171.196 35.7601 169.462 40.7673C167.728 45.7744 166.429 51.1005 167.233 56.34C167.418 57.5736 167.7 58.9295 167.038 59.984Z" fill="#2F2E41"/>
<path d="M132.186 131.838L121.967 178.566L166.603 193.1L160.04 131.838H132.186Z" fill="#FFB6B6"/>
<path d="M447.171 379.823H467.398V287.117C467.371 263.192 457.852 240.255 440.93 223.337C424.007 206.419 401.064 196.903 377.132 196.876H189.149C165.217 196.903 142.273 206.419 125.351 223.337C108.429 240.255 98.9098 263.192 98.8828 287.117V379.823H119.11V316.489C119.137 292.342 128.744 269.191 145.824 252.116C162.904 235.041 186.061 225.436 210.215 225.409H356.065C380.22 225.436 403.377 235.041 420.457 252.116C437.536 269.191 447.144 292.342 447.171 316.489V379.823Z" fill="#E6E6E6"/>
<path d="M201.378 331.325L179.821 324.8C178.419 319.041 177.712 313.135 177.715 307.207C177.725 305.869 178.117 304.561 178.843 303.436C179.57 302.312 180.602 301.417 181.819 300.858C183.035 300.298 184.386 300.097 185.713 300.277C187.04 300.457 188.288 301.011 189.312 301.874C200.874 311.788 217.809 317.079 228.739 328.377C233.262 333.125 236.658 338.83 238.677 345.068C240.695 351.307 241.283 357.92 240.397 364.417L245.115 379.675C234.555 378.913 224.285 375.871 215.014 370.759C205.742 365.647 197.69 358.586 191.411 350.064C187.935 345.247 185.081 340.013 182.914 334.484C192.057 333.447 201.378 331.325 201.378 331.325Z" fill="#F2F2F2"/>
<path d="M257.561 356.31L268.556 352.982C268.57 352.924 268.584 352.865 268.598 352.807C268.903 351.462 268.806 350.058 268.322 348.768C267.837 347.477 266.984 346.357 265.87 345.545C264.756 344.734 263.428 344.266 262.05 344.2C260.673 344.135 259.307 344.474 258.12 345.175C253.129 348.139 247.587 350.692 243.607 354.806C241.3 357.228 239.567 360.138 238.538 363.32C237.509 366.502 237.209 369.875 237.66 373.188L235.254 380.97C240.64 380.581 245.878 379.03 250.607 376.423C255.335 373.815 259.443 370.214 262.645 365.867C264.418 363.411 265.874 360.741 266.979 357.921C262.315 357.392 257.561 356.31 257.561 356.31Z" fill="#F2F2F2"/>
<path d="M346.562 128.508H303.746C303.14 128.509 302.56 128.75 302.132 129.179C301.704 129.608 301.464 130.189 301.465 130.794V198.412H348.849V130.794C348.849 130.494 348.79 130.196 348.675 129.919C348.56 129.642 348.392 129.389 348.18 129.177C347.967 128.965 347.715 128.796 347.437 128.682C347.16 128.567 346.862 128.508 346.562 128.508V128.508ZM325.298 166.928C323.959 166.921 322.677 166.387 321.73 165.44C320.783 164.494 320.248 163.212 320.242 161.873V154.074C320.244 152.735 320.777 151.451 321.725 150.504C322.673 149.558 323.958 149.026 325.298 149.026C326.638 149.026 327.923 149.558 328.871 150.504C329.819 151.451 330.352 152.735 330.354 154.074V161.873C330.348 163.212 329.813 164.494 328.866 165.44C327.919 166.387 326.637 166.921 325.298 166.928V166.928Z" fill="#3F3D56"/>
<path d="M417.46 22.9824H234.438C232.865 22.9849 231.358 23.6105 230.246 24.7221C229.134 25.8337 228.508 27.3406 228.506 28.9126V152.383C228.507 153.955 229.133 155.462 230.245 156.574C231.357 157.686 232.865 158.311 234.438 158.313H417.46C419.033 158.311 420.541 157.686 421.653 156.574C422.765 155.462 423.391 153.955 423.392 152.383V28.9126C423.39 27.3406 422.764 25.8337 421.652 24.7221C420.54 23.6105 419.033 22.9849 417.46 22.9824V22.9824Z" fill="#3F3D56"/>
<path d="M415.933 27.2656H235.967C235.125 27.2675 234.318 27.6031 233.724 28.1989C233.129 28.7947 232.795 29.602 232.795 30.4437V150.853C232.796 151.694 233.131 152.5 233.726 153.094C234.32 153.689 235.126 154.023 235.967 154.025H415.933C416.774 154.023 417.58 153.689 418.175 153.094C418.769 152.5 419.104 151.694 419.105 150.853V30.4437C419.105 29.602 418.771 28.7947 418.177 28.1989C417.582 27.6031 416.775 27.2675 415.933 27.2656V27.2656Z" fill="white"/>
<path d="M301.318 196.249V202.773C301.319 203.111 301.454 203.435 301.693 203.674C301.932 203.913 302.256 204.047 302.594 204.048H347.721C348.059 204.046 348.382 203.912 348.621 203.673C348.86 203.434 348.995 203.111 348.996 202.773V196.249H301.318Z" fill="#3F3D56"/>
<path d="M380.881 206.319H273.811C273.518 206.319 273.229 206.253 272.964 206.127C272.7 206.001 272.467 205.818 272.282 205.59C272.097 205.363 271.966 205.097 271.897 204.812C271.828 204.527 271.824 204.231 271.884 203.944L273.545 196.056C273.64 195.614 273.883 195.219 274.233 194.934C274.584 194.65 275.021 194.494 275.473 194.492H379.22C379.672 194.494 380.109 194.65 380.459 194.934C380.81 195.219 381.053 195.614 381.147 196.056L382.809 203.944C382.869 204.231 382.865 204.527 382.796 204.812C382.727 205.097 382.595 205.363 382.411 205.59C382.226 205.818 381.993 206.001 381.728 206.127C381.464 206.253 381.174 206.319 380.881 206.319V206.319Z" fill="#3F3D56"/>
<path d="M279.12 195.913H276.642C276.416 195.913 276.232 196.097 276.232 196.323V197.481C276.232 197.708 276.416 197.891 276.642 197.891H279.12C279.347 197.891 279.53 197.708 279.53 197.481V196.323C279.53 196.097 279.347 195.913 279.12 195.913Z" fill="#E6E6E6"/>
<path d="M285.714 195.913H283.236C283.01 195.913 282.826 196.097 282.826 196.323V197.481C282.826 197.708 283.01 197.891 283.236 197.891H285.714C285.94 197.891 286.124 197.708 286.124 197.481V196.323C286.124 196.097 285.94 195.913 285.714 195.913Z" fill="#E6E6E6"/>
<path d="M292.31 195.913H289.832C289.605 195.913 289.422 196.097 289.422 196.323V197.481C289.422 197.708 289.605 197.891 289.832 197.891H292.31C292.536 197.891 292.72 197.708 292.72 197.481V196.323C292.72 196.097 292.536 195.913 292.31 195.913Z" fill="#E6E6E6"/>
<path d="M298.905 195.913H296.427C296.201 195.913 296.018 196.097 296.018 196.323V197.481C296.018 197.708 296.201 197.891 296.427 197.891H298.905C299.132 197.891 299.315 197.708 299.315 197.481V196.323C299.315 196.097 299.132 195.913 298.905 195.913Z" fill="#E6E6E6"/>
<path d="M305.499 195.913H303.021C302.795 195.913 302.611 196.097 302.611 196.323V197.481C302.611 197.708 302.795 197.891 303.021 197.891H305.499C305.725 197.891 305.909 197.708 305.909 197.481V196.323C305.909 196.097 305.725 195.913 305.499 195.913Z" fill="#E6E6E6"/>
<path d="M312.095 195.913H309.617C309.391 195.913 309.207 196.097 309.207 196.323V197.481C309.207 197.708 309.391 197.891 309.617 197.891H312.095C312.321 197.891 312.505 197.708 312.505 197.481V196.323C312.505 196.097 312.321 195.913 312.095 195.913Z" fill="#E6E6E6"/>
<path d="M318.693 195.913H316.214C315.988 195.913 315.805 196.097 315.805 196.323V197.481C315.805 197.708 315.988 197.891 316.214 197.891H318.693C318.919 197.891 319.102 197.708 319.102 197.481V196.323C319.102 196.097 318.919 195.913 318.693 195.913Z" fill="#E6E6E6"/>
<path d="M325.286 195.913H322.808C322.582 195.913 322.398 196.097 322.398 196.323V197.481C322.398 197.708 322.582 197.891 322.808 197.891H325.286C325.513 197.891 325.696 197.708 325.696 197.481V196.323C325.696 196.097 325.513 195.913 325.286 195.913Z" fill="#E6E6E6"/>
<path d="M331.882 195.913H329.404C329.178 195.913 328.994 196.097 328.994 196.323V197.481C328.994 197.708 329.178 197.891 329.404 197.891H331.882C332.108 197.891 332.292 197.708 332.292 197.481V196.323C332.292 196.097 332.108 195.913 331.882 195.913Z" fill="#E6E6E6"/>
<path d="M338.478 195.913H336C335.773 195.913 335.59 196.097 335.59 196.323V197.481C335.59 197.708 335.773 197.891 336 197.891H338.478C338.704 197.891 338.887 197.708 338.887 197.481V196.323C338.887 196.097 338.704 195.913 338.478 195.913Z" fill="#E6E6E6"/>
<path d="M345.071 195.913H342.593C342.367 195.913 342.184 196.097 342.184 196.323V197.481C342.184 197.708 342.367 197.891 342.593 197.891H345.071C345.298 197.891 345.481 197.708 345.481 197.481V196.323C345.481 196.097 345.298 195.913 345.071 195.913Z" fill="#E6E6E6"/>
<path d="M351.667 195.913H349.189C348.963 195.913 348.779 196.097 348.779 196.323V197.481C348.779 197.708 348.963 197.891 349.189 197.891H351.667C351.893 197.891 352.077 197.708 352.077 197.481V196.323C352.077 196.097 351.893 195.913 351.667 195.913Z" fill="#E6E6E6"/>
<path d="M358.263 195.913H355.785C355.558 195.913 355.375 196.097 355.375 196.323V197.481C355.375 197.708 355.558 197.891 355.785 197.891H358.263C358.489 197.891 358.673 197.708 358.673 197.481V196.323C358.673 196.097 358.489 195.913 358.263 195.913Z" fill="#E6E6E6"/>
<path d="M364.859 195.913H362.381C362.154 195.913 361.971 196.097 361.971 196.323V197.481C361.971 197.708 362.154 197.891 362.381 197.891H364.859C365.085 197.891 365.268 197.708 365.268 197.481V196.323C365.268 196.097 365.085 195.913 364.859 195.913Z" fill="#E6E6E6"/>
<path d="M371.454 195.913H368.976C368.75 195.913 368.566 196.097 368.566 196.323V197.481C368.566 197.708 368.75 197.891 368.976 197.891H371.454C371.681 197.891 371.864 197.708 371.864 197.481V196.323C371.864 196.097 371.681 195.913 371.454 195.913Z" fill="#E6E6E6"/>
<path d="M378.05 195.913H375.572C375.346 195.913 375.162 196.097 375.162 196.323V197.481C375.162 197.708 375.346 197.891 375.572 197.891H378.05C378.276 197.891 378.46 197.708 378.46 197.481V196.323C378.46 196.097 378.276 195.913 378.05 195.913Z" fill="#E6E6E6"/>
<path d="M279.04 199.209H276.562C276.336 199.209 276.152 199.392 276.152 199.619V200.777C276.152 201.004 276.336 201.187 276.562 201.187H279.04C279.267 201.187 279.45 201.004 279.45 200.777V199.619C279.45 199.392 279.267 199.209 279.04 199.209Z" fill="#E6E6E6"/>
<path d="M285.638 199.209H283.16C282.933 199.209 282.75 199.392 282.75 199.619V200.777C282.75 201.004 282.933 201.187 283.16 201.187H285.638C285.864 201.187 286.048 201.004 286.048 200.777V199.619C286.048 199.392 285.864 199.209 285.638 199.209Z" fill="#E6E6E6"/>
<path d="M292.234 199.209H289.756C289.529 199.209 289.346 199.392 289.346 199.619V200.777C289.346 201.004 289.529 201.187 289.756 201.187H292.234C292.46 201.187 292.643 201.004 292.643 200.777V199.619C292.643 199.392 292.46 199.209 292.234 199.209Z" fill="#E6E6E6"/>
<path d="M298.827 199.209H296.349C296.123 199.209 295.939 199.392 295.939 199.619V200.777C295.939 201.004 296.123 201.187 296.349 201.187H298.827C299.054 201.187 299.237 201.004 299.237 200.777V199.619C299.237 199.392 299.054 199.209 298.827 199.209Z" fill="#E6E6E6"/>
<path d="M305.423 199.209H302.945C302.719 199.209 302.535 199.392 302.535 199.619V200.777C302.535 201.004 302.719 201.187 302.945 201.187H305.423C305.649 201.187 305.833 201.004 305.833 200.777V199.619C305.833 199.392 305.649 199.209 305.423 199.209Z" fill="#E6E6E6"/>
<path d="M312.019 199.209H309.541C309.314 199.209 309.131 199.392 309.131 199.619V200.777C309.131 201.004 309.314 201.187 309.541 201.187H312.019C312.245 201.187 312.429 201.004 312.429 200.777V199.619C312.429 199.392 312.245 199.209 312.019 199.209Z" fill="#E6E6E6"/>
<path d="M318.612 199.209H316.134C315.908 199.209 315.725 199.392 315.725 199.619V200.777C315.725 201.004 315.908 201.187 316.134 201.187H318.612C318.839 201.187 319.022 201.004 319.022 200.777V199.619C319.022 199.392 318.839 199.209 318.612 199.209Z" fill="#E6E6E6"/>
<path d="M325.208 199.209H322.73C322.504 199.209 322.32 199.392 322.32 199.619V200.777C322.32 201.004 322.504 201.187 322.73 201.187H325.208C325.434 201.187 325.618 201.004 325.618 200.777V199.619C325.618 199.392 325.434 199.209 325.208 199.209Z" fill="#E6E6E6"/>
<path d="M331.804 199.209H329.326C329.099 199.209 328.916 199.392 328.916 199.619V200.777C328.916 201.004 329.099 201.187 329.326 201.187H331.804C332.03 201.187 332.214 201.004 332.214 200.777V199.619C332.214 199.392 332.03 199.209 331.804 199.209Z" fill="#E6E6E6"/>
<path d="M338.4 199.209H335.922C335.695 199.209 335.512 199.392 335.512 199.619V200.777C335.512 201.004 335.695 201.187 335.922 201.187H338.4C338.626 201.187 338.809 201.004 338.809 200.777V199.619C338.809 199.392 338.626 199.209 338.4 199.209Z" fill="#E6E6E6"/>
<path d="M344.995 199.209H342.517C342.291 199.209 342.107 199.392 342.107 199.619V200.777C342.107 201.004 342.291 201.187 342.517 201.187H344.995C345.222 201.187 345.405 201.004 345.405 200.777V199.619C345.405 199.392 345.222 199.209 344.995 199.209Z" fill="#E6E6E6"/>
<path d="M351.591 199.209H349.113C348.887 199.209 348.703 199.392 348.703 199.619V200.777C348.703 201.004 348.887 201.187 349.113 201.187H351.591C351.817 201.187 352.001 201.004 352.001 200.777V199.619C352.001 199.392 351.817 199.209 351.591 199.209Z" fill="#E6E6E6"/>
<path d="M358.185 199.209H355.707C355.48 199.209 355.297 199.392 355.297 199.619V200.777C355.297 201.004 355.48 201.187 355.707 201.187H358.185C358.411 201.187 358.595 201.004 358.595 200.777V199.619C358.595 199.392 358.411 199.209 358.185 199.209Z" fill="#E6E6E6"/>
<path d="M364.78 199.209H362.302C362.076 199.209 361.893 199.392 361.893 199.619V200.777C361.893 201.004 362.076 201.187 362.302 201.187H364.78C365.007 201.187 365.19 201.004 365.19 200.777V199.619C365.19 199.392 365.007 199.209 364.78 199.209Z" fill="#E6E6E6"/>
<path d="M371.376 199.209H368.898C368.672 199.209 368.488 199.392 368.488 199.619V200.777C368.488 201.004 368.672 201.187 368.898 201.187H371.376C371.602 201.187 371.786 201.004 371.786 200.777V199.619C371.786 199.392 371.602 199.209 371.376 199.209Z" fill="#E6E6E6"/>
<path d="M377.97 199.209H375.492C375.265 199.209 375.082 199.392 375.082 199.619V200.777C375.082 201.004 375.265 201.187 375.492 201.187H377.97C378.196 201.187 378.38 201.004 378.38 200.777V199.619C378.38 199.392 378.196 199.209 377.97 199.209Z" fill="#E6E6E6"/>
<path d="M333.782 203.165H308.22C307.994 203.165 307.811 203.348 307.811 203.575V204.733C307.811 204.96 307.994 205.143 308.22 205.143H333.782C334.008 205.143 334.192 204.96 334.192 204.733V203.575C334.192 203.348 334.008 203.165 333.782 203.165Z" fill="#E6E6E6"/>
<path d="M93.0914 309.645L85.2216 314.517L62.0371 286.026L73.6516 278.837L93.0914 309.645Z" fill="#FFB6B6"/>
<path d="M99.8847 319.821L93.5542 322.647L89.7561 317.176L89.5302 324.442L72.7402 331.936C71.9354 332.295 71.0368 332.387 70.1756 332.2C69.3145 332.012 68.5358 331.555 67.9533 330.893C67.3708 330.232 67.015 329.402 66.9378 328.524C66.8606 327.647 67.0661 326.767 67.5242 326.015L76.7984 310.773L74.1011 304.733L88.5798 299.28L99.8847 319.821Z" fill="#2F2E41"/>
<path d="M71.0465 304.164L84.3381 291.287C74.4631 266.925 73.674 251.825 59.9841 222.362C92.4647 229.003 115.686 228.6 142.548 222.645C151.642 220.661 175.107 202.541 173.177 193.25C173.087 192.816 172.981 192.386 172.858 191.96C169.974 182.131 172.005 167.081 165.764 156.174C154.217 151.822 136.675 166.518 122.952 175.476C116.335 179.796 121.179 185.682 116.237 187.225L97.2915 193.373L50.8095 185.868C48.5631 185.528 46.2715 185.635 44.0669 186.184C41.8622 186.733 39.788 187.713 37.9639 189.067C36.1398 190.422 34.6018 192.123 33.4387 194.075C32.2755 196.026 31.5101 198.188 31.1865 200.436C31.1079 200.941 31.0509 201.448 31.0156 201.958C33.1543 213.794 35.3838 225.319 37.784 236.259C38.5588 239.791 37.2508 246.561 40.1644 246.661C43.078 246.762 41.9044 253.764 42.8118 257.188C48.3981 278.263 51.9307 288.463 71.0465 304.164Z" fill="#00BFA6"/>
<path d="M45.607 360.645L37.4082 356.366L50.3801 322.013L62.4806 328.327L45.607 360.645Z" fill="#FFB6B6"/>
<path d="M44.2402 334.998L57.3869 344.047C73.4996 320.751 83.9615 289.621 91.7528 254.789C122.089 241.559 148.634 226.423 167.132 206.121C170.17 202.717 171.762 198.264 171.573 193.706C171.383 189.149 169.426 184.844 166.117 181.704C165.793 181.4 165.458 181.11 165.113 180.832C157.1 174.452 139.306 178.123 127.932 172.79L107.614 200.903L109.95 207.451L102.882 210.891L96.914 213.795L90.0825 217.12L67.6878 228.019C65.6575 229.034 63.8482 230.44 62.3643 232.157C60.8803 233.874 59.7512 235.868 59.0419 238.024C58.3326 240.179 58.0572 242.454 58.2316 244.716C58.406 246.979 59.0268 249.184 60.0581 251.206C60.2844 251.664 60.53 252.111 60.7948 252.548L52.4776 293.972C52.4776 293.972 54.7662 301.183 51.1651 300.508C47.5641 299.834 49.5264 308.67 49.5264 308.67L44.2402 334.998Z" fill="#00BFA6"/>
<path d="M40.6406 379.578L34.4946 376.372L36.426 369.998L30.588 374.333L14.2875 365.828C13.5061 365.42 12.8755 364.774 12.4878 363.983C12.1001 363.191 11.9755 362.297 12.1323 361.43C12.2891 360.563 12.7191 359.768 13.3594 359.163C13.9996 358.557 14.8168 358.172 15.6914 358.064L33.4006 355.868L36.4622 350.004L49.7274 357.965L40.6406 379.578Z" fill="#2F2E41"/>
<path d="M219.843 199.482L210.254 176.315L202.699 180.511L207.262 204.078C206.805 205.571 206.773 207.162 207.171 208.672C207.569 210.182 208.381 211.551 209.514 212.625C210.647 213.699 212.058 214.436 213.587 214.753C215.117 215.069 216.704 214.953 218.171 214.417C219.638 213.881 220.926 212.947 221.891 211.719C222.856 210.492 223.459 209.019 223.633 207.467C223.807 205.916 223.544 204.346 222.875 202.936C222.205 201.525 221.155 200.329 219.843 199.482V199.482Z" fill="#FFB6B6"/>
<path d="M58.9355 16.2866L73.5259 36.679L79.9333 30.8808L70.1482 8.96047C70.2549 7.40276 69.9248 5.84619 69.1951 4.46574C68.4654 3.08529 67.365 1.93569 66.0175 1.14619C64.6701 0.356689 63.1291 -0.0414155 61.5678 -0.00336612C60.0065 0.0346833 58.4867 0.507378 57.1794 1.36157C55.872 2.21577 54.8289 3.4176 54.1674 4.83196C53.5058 6.24632 53.252 7.81712 53.4345 9.36778C53.6169 10.9184 54.2284 12.3875 55.2003 13.6098C56.1721 14.832 57.4657 15.7591 58.9356 16.2866H58.9355Z" fill="#FFB6B6"/>
<path d="M124.821 145.536C115.358 160.211 150.028 192.184 168.281 184.708C171.477 183.398 182.471 179.074 174.956 173.079C167.441 167.084 175.827 173.793 176.026 169.891C176.158 167.282 174.138 161.558 176.246 161.804C178.354 162.049 179.564 155.953 174.973 154.401C173.376 153.831 171.975 152.817 170.934 151.479C169.894 150.142 169.256 148.535 169.096 146.848C168.657 130.763 174.106 113.97 174.106 113.97L196.35 170.813C196.35 170.813 196.185 180.648 199.022 177.642C201.858 174.637 201.652 184.364 201.652 184.364C201.652 184.364 205.87 187.307 203.444 188.944C201.019 190.582 206.056 195.617 206.056 195.617L217.808 194.778C217.808 194.778 217.624 186.05 215.617 184.12C213.611 182.19 214.596 179.153 214.596 179.153C214.596 179.153 210.459 175.306 212.874 170.775C215.289 166.245 195.287 85.2087 195.287 85.2087C194.486 81.3099 192.622 77.7085 189.901 74.8027C187.18 71.8968 183.709 69.7997 179.87 68.7431L167.177 65.2492L164.923 56.309H147.05L143.937 62.1834L115.396 59.6658C115.396 59.6658 87.1549 33.9777 88.5338 31.972C89.9126 29.9662 85.5348 25.2703 85.5348 25.2703C85.5348 25.2703 81.7961 24.0469 83.9058 23.3938C86.0155 22.7406 82.0277 21.2306 82.0277 21.2306C82.0277 21.2306 78.3345 20.2604 80.0764 18.9829C81.8182 17.7054 74.2633 16.8662 74.2633 16.8662L64.4609 24.8618L66.4421 28.2202C66.4421 28.2202 65.2341 32.7934 66.8106 31.1239C68.3871 29.4544 68.6839 34.2994 68.6839 34.2994C68.6839 34.2994 69.489 39.6048 74.2632 41.2033C79.0375 42.8017 82.6576 57.9874 82.6576 57.9874L122.951 91.5557C116.814 98.5976 118.275 105.962 123.711 113.494L124.821 145.536Z" fill="#1B67A5"/>
<path d="M155.584 50.3689C166.273 50.3689 174.938 41.7063 174.938 31.0204C174.938 20.3345 166.273 11.6719 155.584 11.6719C144.896 11.6719 136.23 20.3345 136.23 31.0204C136.23 41.7063 144.896 50.3689 155.584 50.3689Z" fill="#FFB6B6"/>
<path d="M172.479 25.258C171.984 25.4006 164.714 26.3489 161.566 26.9364C158.477 27.5154 157.94 23.5796 155.413 24.3181C155.415 24.3008 155.412 24.2836 155.405 24.2677C155.013 22.1823 154.344 20.1586 153.415 18.2506C153.752 20.078 153.801 21.947 153.558 23.7894C153.557 23.8373 153.551 23.8851 153.541 23.932C153.533 24.0159 153.516 24.0915 153.508 24.1754C150.838 23.0005 149.143 24.0495 147.296 24.4188C145.231 24.83 143.619 25.7363 144.778 32.8108C147.153 47.3627 159.51 52.5574 157.369 62.1831C156.95 64.0881 155.892 66.4714 154.566 67.0673C154.174 64.9818 153.505 62.9582 152.576 61.0501C152.913 62.8776 152.961 64.7466 152.719 66.5889C150.662 64.365 149.176 56.594 142.259 50.4342C140.555 48.9236 132.018 39.9609 130.994 37.8461C131.308 39.5369 131.46 41.2539 131.447 42.9736C131.449 44.1246 131.371 45.2743 131.212 46.4144C131.212 46.4878 131.204 46.561 131.187 46.6326C131.179 46.7668 131.154 46.8843 131.137 47.0102C131.12 47.1529 131.095 47.2872 131.07 47.4298C128.274 47.027 125.798 46.5403 124.631 45.3989C118.956 39.877 125.882 29.1183 129.668 19.3835C135.082 5.44428 150.805 3.58964 152.333 3.43858C159.065 2.75882 170.439 4.20226 174.158 11.8307C176.76 17.1764 175.098 24.5027 172.479 25.258Z" fill="#2F2E41"/>
<path d="M131.669 28.4042L145.689 6.6014C142.329 4.65143 138.503 3.64809 134.618 3.69807C132.682 3.73829 130.776 4.18592 129.025 5.01178C127.273 5.83763 125.716 7.02318 124.453 8.49115C121.59 12.0487 121.099 17.0777 122.171 21.5162C122.542 23.0491 129.597 17.6555 127.918 20.1732C126.54 22.1443 124.286 30.4295 123.721 32.7613C122.811 36.514 120.31 40.3663 122.538 43.5203C125.173 47.2502 129.875 49.1041 134.439 49.2924C139.002 49.4807 143.494 48.2164 147.831 46.7843L131.669 28.4042Z" fill="#2F2E41"/>
<path d="M137.055 27.5451C136.853 27.5449 136.657 27.4715 136.505 27.3385C136.352 27.2056 136.253 27.0219 136.225 26.8215C136.197 26.621 136.242 26.4172 136.353 26.2477C136.463 26.0781 136.632 25.9541 136.826 25.8987C137.046 25.5356 136.956 24.0076 136.884 22.7729C136.611 18.1372 136.154 10.3787 143.688 5.1414C143.871 5.01436 144.097 4.96509 144.316 5.00443C144.535 5.04378 144.729 5.16851 144.856 5.3512C144.983 5.53389 145.033 5.75956 144.993 5.97857C144.954 6.19758 144.829 6.392 144.646 6.51904C137.885 11.2195 138.291 18.113 138.56 22.6742C138.713 25.282 138.824 27.1656 137.242 27.5242C137.181 27.5382 137.118 27.5452 137.055 27.5451Z" fill="#00BFA6"/>
<path d="M326.5 41.125C314.54 41.1625 302.987 45.4762 293.929 53.2869C286.987 59.2681 281.958 67.0619 280.662 74.8828C265.473 78.2359 254 91.4672 254 107.444C254 126.004 269.479 140.812 288.265 140.812H368.976C385.424 140.812 399 127.853 399 111.568C399 96.7416 387.744 84.6613 373.317 82.6222C371.115 59.2409 350.878 41.125 326.5 41.125ZM347.833 87.7606C348.254 88.1819 348.589 88.6821 348.817 89.2325C349.045 89.783 349.162 90.3729 349.162 90.9688C349.162 91.5646 349.045 92.1545 348.817 92.705C348.589 93.2554 348.254 93.7556 347.833 94.1769C347.412 94.5982 346.912 94.9324 346.361 95.1604C345.811 95.3884 345.221 95.5057 344.625 95.5057C344.029 95.5057 343.439 95.3884 342.889 95.1604C342.338 94.9324 341.838 94.5982 341.417 94.1769L331.031 83.7822V118.156C331.031 119.358 330.554 120.511 329.704 121.36C328.854 122.21 327.702 122.688 326.5 122.688C325.298 122.688 324.146 122.21 323.296 121.36C322.446 120.511 321.969 119.358 321.969 118.156V83.7822L311.583 94.1769C310.732 95.0277 309.578 95.5057 308.375 95.5057C307.172 95.5057 306.018 95.0277 305.167 94.1769C304.316 93.326 303.838 92.172 303.838 90.9688C303.838 89.7655 304.316 88.6115 305.167 87.7606L323.292 69.6356C323.713 69.2136 324.213 68.8788 324.763 68.6504C325.314 68.422 325.904 68.3044 326.5 68.3044C327.096 68.3044 327.686 68.422 328.237 68.6504C328.787 68.8788 329.287 69.2136 329.708 69.6356L347.833 87.7606Z" fill="#00BFA6"/>
<path d="M-61.2793 379.28C-61.2801 379.544 -61.1759 379.798 -60.9897 379.985C-60.8034 380.172 -60.5504 380.278 -60.2863 380.279H540.164C540.429 380.279 540.683 380.173 540.87 379.986C541.057 379.799 541.163 379.545 541.163 379.28C541.163 379.015 541.057 378.761 540.87 378.574C540.683 378.386 540.429 378.281 540.164 378.281H-60.2803C-60.4111 378.281 -60.5407 378.306 -60.6617 378.356C-60.7827 378.406 -60.8927 378.479 -60.9855 378.571C-61.0782 378.663 -61.1519 378.773 -61.2023 378.893C-61.2527 379.014 -61.2789 379.143 -61.2793 379.274L-61.2793 379.28Z" fill="#CCCCCC"/>
</g>
<defs>
<clipPath id="clip0_268_2146">
<rect width="481" height="381" fill="white"/>
</clipPath>
</defs>
</svg>
