<svg width="360" height="312" viewBox="0 0 360 312" fill="none" xmlns="http://www.w3.org/2000/svg">
<g clip-path="url(#clip0_268_2007)">
<path d="M263.418 35.374H126.144C123.358 35.3776 120.687 36.4866 118.717 38.4577C116.747 40.4288 115.638 43.1012 115.635 45.8887V114.705H136.761C138.306 114.7 139.827 115.091 141.179 115.839C142.531 116.587 143.67 117.668 144.488 118.979L151.811 130.641L158.812 141.783L160.126 143.878L168.137 156.626L168.228 156.771H273.928V45.8887C273.924 43.1011 272.816 40.4288 270.846 38.4577C268.876 36.4866 266.204 35.3776 263.418 35.374V35.374Z" fill="#CCCCCC"/>
<path d="M209.006 56.4111H140.988C139.185 56.4111 137.456 57.1278 136.181 58.4034C134.906 59.679 134.189 61.4092 134.189 63.2132C134.189 65.0172 134.906 66.7473 136.181 68.023C137.456 69.2986 139.185 70.0153 140.988 70.0153H209.006C210.809 70.0153 212.539 69.2986 213.814 68.023C215.089 66.7473 215.805 65.0172 215.805 63.2132C215.805 61.4092 215.089 59.679 213.814 58.4034C212.539 57.1278 210.809 56.4111 209.006 56.4111Z" fill="white"/>
<path d="M246.726 89.8135H141.607C139.639 89.8135 137.751 90.5958 136.359 91.9883C134.967 93.3808 134.186 95.2695 134.186 97.2388C134.186 99.2081 134.967 101.097 136.359 102.489C137.751 103.882 139.639 104.664 141.607 104.664H246.726C248.694 104.664 250.582 103.882 251.973 102.489C253.365 101.097 254.147 99.2081 254.147 97.2388C254.147 95.2695 253.365 93.3808 251.973 91.9883C250.582 90.5958 248.694 89.8135 246.726 89.8135V89.8135Z" fill="white"/>
<path d="M253.438 120.074C252.841 118.797 251.892 117.717 250.704 116.96C249.515 116.203 248.136 115.8 246.727 115.799H141.609C141.448 115.799 141.295 115.806 141.135 115.814C142.506 116.564 143.662 117.654 144.49 118.98L151.813 130.642H246.727C247.975 130.642 249.203 130.327 250.297 129.726C251.391 129.125 252.316 128.257 252.985 127.203C253.655 126.149 254.047 124.943 254.126 123.696C254.205 122.45 253.969 121.204 253.438 120.074V120.074Z" fill="white"/>
<path d="M254.071 148.207C253.829 146.429 252.952 144.799 251.602 143.618C250.251 142.437 248.519 141.785 246.726 141.783H158.812L160.127 143.878L168.137 156.626H246.726C248.27 156.629 249.776 156.145 251.029 155.242C251.991 154.556 252.776 153.65 253.317 152.599C253.858 151.548 254.14 150.383 254.14 149.201C254.14 148.868 254.117 148.536 254.071 148.207V148.207Z" fill="white"/>
<path d="M337.979 94.6391L327.278 90.4561L273.928 69.6255L210.099 44.7038C207.501 43.695 204.609 43.758 202.057 44.879C199.505 45.9999 197.502 48.0874 196.486 50.6838L194.254 56.4114L188.942 70.0155L181.223 89.8138L175.429 104.664L171.087 115.798L165.294 130.641L160.945 141.783L160.823 142.104L160.127 143.878L168.137 156.626L168.229 156.771H316.593C317.955 156.77 319.3 157.075 320.529 157.662C321.758 158.25 322.839 159.106 323.694 160.167L324.32 158.576L331.979 138.954L343.949 108.266C344.959 105.667 344.898 102.773 343.779 100.218C342.66 97.6637 340.574 95.6574 337.979 94.6391V94.6391Z" fill="#00BFA6"/>
<path d="M279.646 94.4397L273.929 92.2068L216.283 69.7015C214.602 69.0507 212.732 69.0914 211.081 69.8149C209.43 70.5384 208.132 71.8858 207.47 73.5633C206.819 75.2459 206.86 77.1182 207.585 78.7706C208.31 80.4229 209.659 81.7208 211.338 82.3803L230.377 89.8133L253.927 99.005L273.929 106.82L274.701 107.119C276.381 107.771 278.25 107.73 279.9 107.004C281.549 106.279 282.844 104.928 283.499 103.249C284.154 101.569 284.116 99.6985 283.394 98.0469C282.671 96.3954 281.324 95.098 279.646 94.4397V94.4397Z" fill="white"/>
<path d="M302.638 139.283L273.93 128.072L253.438 120.073L242.493 115.799L213.983 104.665L204.719 101.048C202.991 100.373 201.073 100.369 199.343 101.039C197.613 101.708 196.196 103.002 195.372 104.665C195.28 104.856 195.188 105.055 195.112 105.261C194.757 106.169 194.585 107.138 194.605 108.112C194.625 109.087 194.836 110.048 195.228 110.94C195.619 111.833 196.182 112.64 196.884 113.314C197.587 113.989 198.416 114.519 199.323 114.873L201.693 115.799L239.695 130.642L273.93 144.009L297.242 153.116C298.099 153.452 299.012 153.623 299.932 153.621C301.663 153.624 303.341 153.022 304.674 151.918C306.008 150.814 306.914 149.278 307.235 147.576C307.556 145.874 307.273 144.114 306.433 142.599C305.593 141.085 304.251 139.911 302.638 139.283H302.638Z" fill="white"/>
<path d="M273.929 155.96L272.087 155.241L254.072 148.206L237.615 141.782L209.075 130.641L195.272 125.25C194.363 124.894 193.394 124.721 192.419 124.741C191.444 124.76 190.482 124.972 189.589 125.364C188.696 125.756 187.889 126.32 187.214 127.024C186.539 127.728 186.009 128.558 185.655 129.467C185.301 130.376 185.129 131.346 185.15 132.322C185.171 133.297 185.384 134.259 185.777 135.152C186.169 136.045 186.734 136.852 187.439 137.527C188.143 138.201 188.974 138.73 189.883 139.083L196.793 141.782L231.264 155.241L234.81 156.625L235.177 156.771H276L273.929 155.96Z" fill="white"/>
<path d="M204.199 156.626L200.653 155.242L185.832 149.453C184.797 149.047 183.683 148.88 182.574 148.963C181.466 149.047 180.39 149.379 179.427 149.935C178.463 150.491 177.638 151.256 177.01 152.175C176.383 153.094 175.971 154.142 175.804 155.242C175.73 155.699 175.702 156.163 175.72 156.626C175.718 156.675 175.721 156.723 175.728 156.771H204.573L204.199 156.626Z" fill="white"/>
<path d="M234.811 156.626L231.265 155.242H175.805C175.731 155.7 175.703 156.163 175.721 156.626H168.139L168.23 156.772H235.178L234.811 156.626ZM234.811 156.626H168.138L168.23 156.772H235.178L234.811 156.626ZM234.811 156.626H168.138L168.23 156.772H235.178L234.811 156.626ZM235.178 156.772L234.811 156.626H168.138L168.23 156.772H235.178ZM101.413 309.904C98.9933 309.9 96.6742 308.937 94.9635 307.226C93.2529 305.514 92.2902 303.194 92.2865 300.773V123.843C92.2886 121.422 93.2505 119.1 94.9613 117.387C96.6721 115.674 98.9921 114.709 101.413 114.705H115.637V113.176H101.413C98.587 113.181 95.8789 114.307 93.8817 116.307C91.8844 118.306 90.7611 121.017 90.7578 123.843V300.773C90.7602 302.818 91.3501 304.82 92.4572 306.539C93.5644 308.258 95.142 309.623 97.0023 310.47H231.662C231.54 310.286 231.418 310.095 231.295 309.904H101.413ZM324.322 158.576C323.329 157.523 322.132 156.683 320.803 156.11C319.474 155.536 318.042 155.241 316.595 155.242H169.079L160.824 142.105L160.625 141.783L153.624 130.642L145.782 118.162C144.821 116.637 143.49 115.381 141.913 114.509C140.336 113.637 138.564 113.179 136.763 113.176H101.413C98.587 113.181 95.8789 114.307 93.8817 116.307C91.8844 118.306 90.7611 121.017 90.7578 123.843V300.773C90.7602 302.819 91.3501 304.82 92.4572 306.539C93.5644 308.258 95.142 309.623 97.0023 310.47C98.3853 311.107 99.8901 311.436 101.413 311.433H316.595C318.12 311.436 319.627 311.107 321.013 310.47C322.873 309.622 324.451 308.258 325.558 306.539C326.665 304.82 327.255 302.819 327.257 300.773V165.91C327.259 163.178 326.208 160.552 324.322 158.576V158.576ZM325.728 300.773C325.724 303.195 324.76 305.516 323.048 307.228C321.336 308.939 319.015 309.902 316.595 309.904H101.413C98.9933 309.9 96.6742 308.937 94.9635 307.226C93.2528 305.514 92.2902 303.194 92.2865 300.773V123.843C92.2886 121.422 93.2505 119.1 94.9613 117.387C96.6721 115.674 98.9921 114.709 101.413 114.705H136.763C138.308 114.701 139.829 115.091 141.181 115.839C142.533 116.587 143.672 117.668 144.49 118.98L151.813 130.642L158.814 141.783L160.128 143.879L168.139 156.626L168.23 156.772H316.595C319.016 156.774 321.338 157.737 323.051 159.45C324.763 161.164 325.726 163.487 325.728 165.91V300.773ZM234.811 156.626H168.139L168.23 156.772H235.178L234.811 156.626ZM234.811 156.626H168.139L168.23 156.772H235.178L234.811 156.626ZM234.811 156.626H168.139L168.23 156.772H235.178L234.811 156.626ZM234.811 156.626L231.265 155.242H169.079L160.824 142.105L160.128 143.879L168.139 156.626L168.23 156.772H235.178L234.811 156.626Z" fill="#00BFA6"/>
<path d="M59.5638 220.06L55.1857 229.218L17.7969 216.681L24.2578 203.165L59.5638 220.06Z" fill="#FFB8B8"/>
<path d="M49.0346 235.357L57.8844 216.845L68.9991 222.164L55.2397 250.946L54.3898 250.539C51.6674 249.236 49.5738 246.905 48.5695 244.058C47.5652 241.211 47.7325 238.081 49.0346 235.357V235.357Z" fill="#2F2E41"/>
<path d="M68.3762 301.841L58.2359 301.498L57.8086 262.006L69.6962 262.708L68.3762 301.841Z" fill="#FFB8B8"/>
<path d="M50.1493 298.323L70.6479 299.016L70.2323 311.335L38.3617 310.259L38.3935 309.317C38.4953 306.3 39.7911 303.446 41.9957 301.384C44.2003 299.323 47.1333 298.222 50.1493 298.323Z" fill="#2F2E41"/>
<path d="M84.706 136.561C84.706 136.561 53.6704 128.695 39.6009 140.287L31.7385 163.058L0.289062 207.771L45.808 235.096L54.0842 214.395L34.2214 204.459L58.2223 183.758L54.0842 293.057L69.809 295.541C69.809 295.541 104.569 160.573 84.706 136.561Z" fill="#1B67A5"/>
<path d="M37.6211 143.655L37.9993 142.982C41.9869 135.889 41.3407 124.34 40.0967 115.9C39.0547 108.832 39.086 96.374 39.2957 87.1679C39.3475 84.0606 40.4552 81.0634 42.4365 78.6698C44.4177 76.2762 47.1544 74.6289 50.1962 73.9988C59.6376 72.033 71.2285 71.6166 77.2974 71.543L77.3025 71.957L77.2974 71.543C78.9464 71.5364 80.5322 72.1767 81.7147 73.3265C82.8972 74.4764 83.5822 76.0441 83.6226 77.6934C83.8073 87.607 83.7499 105.685 81.2909 115.385C77.6413 129.78 83.3482 139.563 83.4064 139.66L83.7507 140.236L37.6211 143.655Z" fill="#00BFA6"/>
<path d="M21.6562 183.356C22.6664 182.872 23.5584 182.172 24.2691 181.306C24.9798 180.44 25.4921 179.428 25.7697 178.343C26.0474 177.257 26.0838 176.123 25.8763 175.022C25.6688 173.921 25.2224 172.878 24.5687 171.968L42.0839 96.4014H28.842L13.3839 170.479C11.9286 171.679 10.9639 173.371 10.6726 175.236C10.3812 177.1 10.7835 179.006 11.8032 180.594C12.8228 182.181 14.389 183.339 16.205 183.848C18.021 184.357 19.9605 184.182 21.6562 183.356Z" fill="#FFB8B8"/>
<path d="M128.156 108.972L98.9259 81.3086L91.0259 92.374L110.776 109.762L84.8749 130.341C84.6878 130.328 84.5014 130.313 84.3109 130.313C82.717 130.311 81.1565 130.769 79.8159 131.631C78.4754 132.494 77.4116 133.725 76.7519 135.176C76.0921 136.628 75.8643 138.239 76.0957 139.817C76.3272 141.394 77.008 142.872 78.0568 144.073C79.1056 145.273 80.478 146.146 82.0097 146.587C83.5415 147.028 85.1677 147.018 86.6939 146.558C88.2201 146.099 89.5816 145.209 90.6156 143.995C91.6495 142.782 92.3121 141.296 92.5241 139.715L92.6059 139.797L128.156 108.972Z" fill="#FFB8B8"/>
<path d="M48.3365 74.9701C48.3365 74.9701 30.0834 71.9747 28.4282 86.0511C26.7729 100.128 25.9453 100.128 25.9453 100.128C25.9453 100.128 39.1872 97.6435 42.4977 100.956C45.8082 104.268 48.3365 74.9701 48.3365 74.9701Z" fill="#00BFA6"/>
<path d="M75.6035 72.802C75.6035 72.802 90.5006 70.3179 97.1216 76.9421C103.742 83.5663 107.053 85.2223 107.053 85.2223C107.053 85.2223 92.1559 93.5025 97.9492 100.955C97.9492 100.955 82.2245 93.5025 79.7416 95.9866C77.2588 98.4707 75.6035 72.802 75.6035 72.802Z" fill="#00BFA6"/>
<path d="M62.5362 24.7293C57.8371 20.9746 56.6023 13.728 59.3287 8.36518C62.0551 3.00231 68.2192 -0.228656 74.2282 0.0126321C80.2371 0.25392 85.8992 3.70546 89.3804 8.61162C94.2706 15.5034 95.2968 25.0821 101.799 30.4776C107.672 35.3509 116.086 35.2113 123.706 34.8236C126.275 34.6929 128.926 34.5414 131.231 33.3996C133.536 32.2577 135.42 29.8495 135.122 27.2935C137.037 30.3255 135.926 34.5766 133.358 37.0782C130.789 39.5799 127.132 40.628 123.572 41.0453C117.291 41.7058 110.947 40.7181 105.163 38.1794C99.38 35.6406 94.3574 31.6385 90.5901 26.5672C87.9388 22.9078 85.8926 18.6465 82.2544 15.9672C78.6161 13.2879 72.5499 13.1014 70.3164 17.0301C69.2117 18.9732 69.3201 21.4106 68.3043 23.4016C67.2884 25.3926 63.9896 26.4662 63.0115 24.4564" fill="#2F2E41"/>
<path d="M61.8186 64.6607C74.4825 64.6607 84.7485 54.3896 84.7485 41.7195C84.7485 29.0494 74.4825 18.7783 61.8186 18.7783C49.1548 18.7783 38.8887 29.0494 38.8887 41.7195C38.8887 54.3896 49.1548 64.6607 61.8186 64.6607Z" fill="#2F2E41"/>
<path d="M61.679 66.4565C72.0469 66.4565 80.4518 58.0475 80.4518 47.6745C80.4518 37.3016 72.0469 28.8926 61.679 28.8926C51.3111 28.8926 42.9062 37.3016 42.9062 47.6745C42.9062 58.0475 51.3111 66.4565 61.679 66.4565Z" fill="#FFB8B8"/>
<path d="M44.5625 33.8799C47.1138 34.4382 46.279 38.7202 48.295 40.3811C50.1137 41.8794 52.7327 40.3386 55.0216 39.7808C57.9114 39.0766 60.936 40.1082 63.604 41.4234C66.2721 42.7386 68.8447 44.3707 71.7552 44.9834C74.6658 45.5961 78.1164 44.9056 79.748 42.4175C81.308 40.0386 80.7338 36.8305 79.5132 34.2606C77.9957 31.0653 75.6141 28.359 72.6382 26.4484C69.6623 24.5377 66.2111 23.4991 62.6755 23.4501C59.1399 23.401 55.6612 24.3436 52.6336 26.171C49.6059 27.9984 47.1503 30.6376 45.5448 33.7896" fill="#2F2E41"/>
<path d="M486.878 311.234C486.878 311.437 486.797 311.631 486.654 311.774C486.511 311.918 486.316 311.999 486.114 311.999H-59.6185C-59.8212 311.999 -60.0156 311.919 -60.1589 311.775C-60.3023 311.632 -60.3828 311.437 -60.3828 311.234C-60.3828 311.032 -60.3023 310.837 -60.1589 310.694C-60.0156 310.55 -59.8212 310.47 -59.6185 310.47H486.114C486.316 310.47 486.511 310.551 486.654 310.694C486.797 310.838 486.878 311.032 486.878 311.234V311.234Z" fill="#E8E8E8"/>
</g>
<defs>
<clipPath id="clip0_268_2007">
<rect width="360" height="312" fill="white"/>
</clipPath>
</defs>
</svg>
