<svg width="427" height="362" viewBox="0 0 427 362" fill="none" xmlns="http://www.w3.org/2000/svg">
<g clip-path="url(#clip0_268_1948)">
<path d="M411.631 296.213H15.3693C6.89483 296.213 0 289.312 0 280.829V233.092H427V280.829C427 289.312 420.106 296.213 411.631 296.213Z" fill="#E6E6E6"/>
<path d="M265 296H164V351H265V296Z" fill="#BDBDBD"/>
<path d="M270.864 351.349H157.656V360.475H270.864V351.349Z" fill="#E6E6E6"/>
<path d="M426.62 253.245H0V10.5571C0 4.73602 4.7316 0 10.5472 0H416.073C421.889 0 426.62 4.73602 426.62 10.5571V253.245Z" fill="#BDBDBD"/>
<path d="M416.362 11.0273H9.87695V239.937H416.362V11.0273Z" fill="white"/>
<path d="M88.597 147.463C91.7082 144.89 95.5564 144.411 97.1921 146.393C98.8278 148.375 97.6315 152.067 94.5189 154.64C93.2896 155.686 91.8282 156.421 90.2568 156.785L76.9372 167.521L72.0371 161.157L85.6881 151.249C86.3418 149.772 87.3392 148.474 88.597 147.463H88.597Z" fill="#FFB6B6"/>
<path d="M11.6119 171.686C11.6051 171.211 11.6096 167.07 14.6728 164.452C18.1915 161.445 23.1566 162.662 24.8981 163.089C28.921 164.075 29.2509 165.802 33.0288 167.577C40.0968 170.898 31.2408 169.198 35.4465 168.133C36.9023 167.765 57.8456 166.311 63.0588 163.099C73.1978 156.853 80.1062 153.065 80.1062 153.065L84.6223 162.106C84.6223 162.106 78.092 171.195 68.9011 177.928C59.4733 184.835 54.7594 188.288 47.5955 189.622C46.9786 189.737 31.8062 192.33 19.586 183.192C16.7986 181.108 11.6915 177.288 11.6119 171.686L11.6119 171.686Z" fill="#00BFA6"/>
<path d="M25.6211 148.693C34.3098 148.693 41.3535 141.643 41.3535 132.946C41.3535 124.249 34.3098 117.199 25.6211 117.199C16.9323 117.199 9.88867 124.249 9.88867 132.946C9.88867 141.643 16.9323 148.693 25.6211 148.693Z" fill="#FFB6B6"/>
<path d="M148.832 238.741L132.629 222.141L124.266 230.873L136.337 246.79L148.31 248.161L148.832 238.741Z" fill="#FFB6B6"/>
<path d="M56.3168 207.612C57.2645 207.691 60.276 208.295 63.1545 206.709C65.1189 205.628 66.1264 204.019 66.4667 203.508C70.6883 197.161 86.8915 187.265 101.434 186.656C104.727 186.518 106.894 186.9 108.865 187.928C111.658 189.386 112.774 191.474 116.319 196.365C118.258 199.04 120.404 201.561 122.366 204.219C133.856 219.783 138.212 221.005 137.767 225.994C137.273 231.53 131.308 236.782 127.343 236.176C125.72 235.928 125.091 234.798 122.922 232.51C116.561 225.803 113.93 227.042 109.402 221.904C104.115 215.906 104.807 210.933 102.049 210.741C99.4909 210.563 98.4039 214.805 92.9431 220.441C90.4443 223.02 88.6649 224.204 83.244 227.968C62.1336 242.627 61.7967 243.657 57.5364 244.826C55.6724 245.338 42.4429 248.968 37.7301 243.191C30.3552 234.15 47.7778 206.902 56.3168 207.612V207.612Z" fill="#1B67A5"/>
<path d="M143.879 242.493C145.07 241.957 146.463 241.331 146.912 239.891C147.215 238.916 147.04 237.715 146.413 236.885C145.69 235.927 144.619 235.8 144.663 235.631C144.729 235.373 147.261 235.474 150.04 236.457C150.564 236.643 152.941 237.512 155.963 239.874C158.385 241.766 158.059 242.146 159.578 243.237C164.239 246.586 168.611 243.946 171.133 247.087C172.107 248.3 172.522 250.021 172.112 251.412C171.29 254.207 167.289 255.169 165.102 255.666C159.836 256.861 155.85 255.885 151.688 255.183C137.534 252.796 129.581 254.97 128.517 251.688C128.316 251.067 128.643 251.12 129.734 246.561C130.811 242.062 130.776 240.826 131.693 240.466C133.074 239.923 134.001 242.391 137.48 243.235C140.563 243.983 143.106 242.84 143.879 242.493H143.879Z" fill="#2F2E41"/>
<path d="M120.028 293.048L115.935 270.205L104.115 272.73L105.174 292.685L114.313 300.549L120.028 293.048Z" fill="#FFB6B6"/>
<path d="M60.9401 215.29C61.6801 215.888 63.8331 218.081 67.1042 218.387C69.3366 218.596 71.0727 217.831 71.6412 217.599C78.6947 214.721 97.654 215.639 110.028 223.309C112.831 225.046 114.41 226.58 115.464 228.538C116.958 231.314 116.709 233.669 116.898 239.709C117.002 243.013 117.363 246.304 117.496 249.607C118.272 268.943 121.191 272.402 118.023 276.281C114.509 280.584 106.627 281.577 103.686 278.847C102.482 277.729 102.596 276.441 102.084 273.328C100.584 264.204 97.7118 263.75 96.8471 256.954C95.8375 249.019 99.2003 245.293 97.0258 243.583C95.0092 241.998 91.7295 244.898 84.049 246.492C80.5345 247.222 78.3984 247.201 71.8011 247.269C46.1094 247.533 45.2527 248.196 41.0716 246.769C39.2423 246.144 26.2588 241.712 25.6004 234.283C24.5701 222.657 54.2729 209.903 60.9401 215.29H60.9401Z" fill="#1B67A5"/>
<path d="M113.825 293.368C115.111 293.594 116.615 293.859 117.794 292.92C118.592 292.284 119.121 291.191 119.068 290.152C119.007 288.953 118.192 288.246 118.323 288.131C118.522 287.954 120.561 289.461 122.309 291.837C122.639 292.285 124.117 294.34 125.293 297.993C126.236 300.92 125.753 301.051 126.398 302.807C128.376 308.199 133.474 308.472 133.799 312.488C133.925 314.039 133.302 315.696 132.183 316.617C129.934 318.468 126.084 317.015 123.996 316.197C118.968 314.226 116.217 311.178 113.167 308.258C102.795 298.327 94.9944 295.656 95.955 292.342C96.1369 291.715 96.378 291.943 99.8385 288.784C103.254 285.666 103.918 284.624 104.879 284.842C106.326 285.169 105.709 287.732 108.114 290.385C110.245 292.737 112.991 293.221 113.825 293.368V293.368Z" fill="#2F2E41"/>
<path d="M27.767 135.957C28.3795 133.764 27.6102 132.964 28.3943 131.98C28.3943 131.98 28.7098 131.584 31.5306 130.515C30.6984 125.682 31.3215 124.864 31.3215 124.864C32.0397 123.922 33.4785 123.695 34.4579 123.818C36.5294 124.079 36.8961 125.953 38.2215 125.911C40.0526 125.853 42.2486 122.184 41.567 119.004C41.011 116.411 38.6135 114.484 38.0125 114.819C37.4166 115.15 35.2714 113.689 34.4579 113.981C33.9023 114.181 31.2872 113.915 30.6943 114.191C30.0467 114.491 28.1922 116.364 28.0149 116.128C26.7829 114.489 26.8091 113.916 26.0943 113.563C24.8276 112.937 23.4505 114.094 21.0761 115.237C16.1905 117.589 14.76 116.186 12.5034 118.167C11.3634 119.168 10.7521 121.08 9.57607 124.864C7.93138 130.156 7.10904 132.802 7.90335 135.329C8.71339 137.905 9.90629 137.344 11.667 140.979C13.6269 145.026 12.9514 147.378 14.8034 148.304C16.2347 149.021 18.5349 148.565 19.4034 147.258C20.8903 145.021 17.047 141.994 18.3579 138.468C19.1626 136.304 21.6448 134.662 23.167 135.119C24.8882 135.636 25.0149 138.725 26.0943 138.677C27.0186 138.636 27.6603 136.339 27.767 135.957H27.767Z" fill="#2F2E41"/>
<path d="M15.8488 151.025C19.0682 147.412 32.1816 151.152 33.4125 156.885C33.9187 159.244 32.0498 160.239 32.5761 162.955C33.3459 166.926 37.7045 166.655 40.9397 170.698C45.5328 176.438 40.801 182.048 45.9579 191.627C47.0599 193.674 47.9887 195.399 49.9306 197.068C54.387 200.899 58.5343 199.586 60.8034 203.138C62.5003 205.794 61.8031 209.068 61.6397 209.835C60.9701 212.98 59.155 213.746 57.8761 216.323C55.7483 220.61 58.1575 223.757 58.2943 228.88C58.4655 235.289 55.0628 244.173 48.2579 247.088C40.6129 250.363 31.3925 244.939 26.9306 239.553C24.2682 236.34 23.4954 233.376 22.3306 229.717C17.1251 213.365 14.1842 214.844 10.2034 201.882C5.65252 187.064 4.75789 169.704 10.2034 164.21C10.9251 163.482 12.9115 161.799 14.1761 158.769C15.8778 154.691 14.4077 152.643 15.8488 151.025L15.8488 151.025Z" fill="#00BFA6"/>
<path d="M63.4183 235.133C65.9144 238.308 66.3013 242.17 64.2827 243.759C62.2642 245.349 58.6051 244.064 56.1086 240.888C55.094 239.633 54.3944 238.154 54.0683 236.573L43.6621 222.989L49.0392 218.884L59.706 232.132C61.1652 232.822 62.4381 233.851 63.4183 235.133H63.4183Z" fill="#FFB6B6"/>
<path d="M25.3072 164.795C25.7701 164.692 29.8216 163.851 33.0068 166.318C36.6657 169.153 36.4884 174.266 36.4263 176.06C36.2827 180.203 34.6606 180.879 33.6956 184.943C31.8903 192.546 35.3284 199.612 37.228 203.516C37.8855 204.867 39.9978 209.002 44.2027 213.455C52.3806 222.115 59.6774 226.672 59.6774 226.672L51.8386 233.647C51.8386 233.647 39.3522 229.837 30.8915 222.205C22.2128 214.376 8.86643 186.677 6.09969 179.93C5.86143 179.349 9.23648 188.795 15.6807 174.957C17.1506 171.8 19.8438 166.016 25.3072 164.795H25.3072Z" fill="#00BFA6"/>
<path d="M225.934 158.298L216.574 153.86C220.413 159.222 223.721 167.597 225.492 174.261C228.49 168.054 233.324 160.458 238.108 155.921L228.216 158.468C234.311 128.567 257.237 107.102 283.491 107.102L283.862 106.021C256.44 106.021 232.157 127.19 225.934 158.298V158.298Z" fill="#3F3D56"/>
<path d="M269.011 203.857H209.875C207.367 203.857 205.326 201.814 205.326 199.304C205.326 196.793 207.367 194.75 209.875 194.75H269.011C271.52 194.75 273.56 196.793 273.56 199.304C273.56 201.814 271.52 203.857 269.011 203.857Z" fill="#00BFA6"/>
<path d="M347.699 203.857H288.563C286.054 203.857 284.014 201.814 284.014 199.304C284.014 196.793 286.054 194.75 288.563 194.75H347.699C350.207 194.75 352.248 196.793 352.248 199.304C352.248 201.814 350.207 203.857 347.699 203.857Z" fill="#E6E6E6"/>
<path d="M312.692 79.9916H255.208C253.759 79.9916 252.58 78.8113 252.58 77.3608C252.58 75.9102 253.759 74.7305 255.208 74.7305H312.692C314.141 74.7305 315.32 75.9102 315.32 77.3608C315.32 78.8113 314.141 79.9916 312.692 79.9916V79.9916Z" fill="#3F3D56"/>
<path d="M343.538 108.058H224.363C222.914 108.058 221.734 106.878 221.734 105.427C221.734 103.977 222.914 102.797 224.363 102.797H343.538C344.988 102.797 346.166 103.977 346.166 105.427C346.166 106.878 344.988 108.058 343.538 108.058Z" fill="#3F3D56"/>
<path d="M25.8398 361.148C25.8398 361.621 26.219 362 26.6912 362H400.31C400.782 362 401.162 361.621 401.162 361.148C401.162 360.675 400.782 360.296 400.31 360.296H26.6912C26.219 360.296 25.8398 360.675 25.8398 361.148Z" fill="#CCCCCC"/>
<path d="M103.5 144C120.345 144 134 130.569 134 114C134 97.4315 120.345 84 103.5 84C86.6553 84 73 97.4315 73 114C73 130.569 86.6553 144 103.5 144Z" fill="#00BFA6"/>
<path d="M99.6652 101.341C86.3949 104.897 77.5347 113.41 79.4941 120.722C81.4534 128.035 93.383 130.977 106.653 127.421C119.924 123.865 128.784 115.352 126.824 108.04C124.865 100.728 112.935 97.7853 99.6652 101.341ZM98.283 106.012L100.866 105.32L101.121 109.552L103.429 108.933C104.892 108.541 105.93 108.487 106.629 108.856C107.313 109.224 107.704 110.022 107.793 111.228L108.052 116.295L105.425 116.999L105.182 112.315C105.134 111.676 104.975 111.265 104.714 111.096C104.455 110.927 103.986 110.934 103.327 111.111L101.258 111.665L101.623 118.018L99.0353 118.711L98.283 106.012V106.012ZM88.0107 113.065L93.2683 111.656C95.7748 110.984 97.7513 112.287 97.841 114.995C97.9447 118.144 96.3138 119.441 92.9139 120.352L91.2889 120.787L91.5805 123.934L88.9675 124.634L88.0107 113.065ZM108.718 107.516L113.975 106.107C116.482 105.436 118.458 106.738 118.548 109.447C118.652 112.595 117.019 113.893 113.621 114.803L111.996 115.239L112.288 118.386L109.675 119.086L108.718 107.516ZM90.7866 114.471L91.1182 118.683L92.8043 118.231C94.2637 117.84 95.5753 117.308 95.2087 115.032C95.0639 114.153 94.5059 113.474 92.8198 113.926L90.7866 114.471ZM111.494 108.923L111.825 113.134L113.511 112.682C114.971 112.291 116.282 111.759 115.916 109.484C115.771 108.604 115.215 107.925 113.527 108.378L111.494 108.923V108.923Z" fill="white"/>
</g>
<defs>
<clipPath id="clip0_268_1948">
<rect width="427" height="362" fill="white"/>
</clipPath>
</defs>
</svg>
