<svg width="616" height="403" viewBox="0 0 616 403" fill="none" xmlns="http://www.w3.org/2000/svg">
<path d="M116.855 101.237L81.6406 91.6421C91.0437 82.7769 95.1342 74.4255 93.9122 66.5879H116.855V101.237Z" fill="#9F616A"/>
<path d="M120.591 370.971L109.216 372.57L95.5137 246.766L73.6384 372.037L61.9004 372.57V213.716H134.463L120.591 370.971Z" fill="#00BFA6"/>
<path d="M67.807 396.331C69.5924 396.382 71.3435 395.834 72.7814 394.776C74.2193 393.717 75.2613 392.208 75.7414 390.49L76.5722 378.102L74.8974 369.317C70.4784 365.689 66.011 365.764 61.4984 369.317L60.0595 387.718C59.975 388.798 60.1111 389.884 60.4593 390.909C60.8075 391.935 61.3607 392.879 62.0853 393.684C62.8098 394.49 63.6906 395.139 64.6741 395.594C65.6577 396.049 66.7236 396.3 67.807 396.331V396.331Z" fill="#2F2E41"/>
<path d="M114.76 396.331C116.546 396.382 118.297 395.834 119.735 394.776C121.172 393.717 122.214 392.208 122.695 390.49L123.525 378.102L121.85 369.317C117.431 365.689 112.964 365.764 108.451 369.317L107.013 387.718C106.928 388.798 107.064 389.884 107.412 390.909C107.761 391.935 108.314 392.879 109.038 393.684C109.763 394.49 110.644 395.139 111.627 395.594C112.611 396.049 113.677 396.3 114.76 396.331V396.331Z" fill="#2F2E41"/>
<path d="M112.054 83.1138C123.251 83.1138 132.329 74.0446 132.329 62.8572C132.329 51.6698 123.251 42.6006 112.054 42.6006C100.857 42.6006 91.7793 51.6698 91.7793 62.8572C91.7793 74.0446 100.857 83.1138 112.054 83.1138Z" fill="#9F616A"/>
<path d="M137.663 216.381H60.2988C70.326 169.952 70.2979 132.558 62.3108 102.317C61.802 100.392 62.0227 98.3464 62.9305 96.5736C63.8382 94.8008 65.3691 93.4254 67.2295 92.711L88.0432 84.7129C94.2919 92.7754 103.11 96.2969 116.855 91.1097L127.761 93.345C130.417 93.886 132.787 95.3702 134.431 97.5228C136.076 99.6754 136.884 102.351 136.706 105.053C135.903 116.88 136.219 128.798 135.529 139.086C133.39 170.944 132.466 195.781 137.663 216.381Z" fill="#1B67A5"/>
<path d="M101.382 36.2033C101.382 36.2033 113.12 22.8766 126.992 35.6702L130.727 36.7364L128.059 38.8686C128.059 38.8686 141.932 45.2654 140.865 58.5922C140.865 58.5922 138.73 58.0591 137.663 58.5922C136.596 59.1252 136.063 64.989 136.063 64.989C136.063 64.989 134.462 60.7244 133.928 60.1914C133.395 59.6583 125.925 66.0551 113.654 56.4599C113.654 56.4599 109.919 66.0551 105.651 64.989C101.382 63.9229 95.5132 64.4559 92.8455 71.3858C92.8454 71.3858 78.4397 40.4678 101.382 36.2033Z" fill="#2F2E41"/>
<path d="M141.399 204.653L134.55 213.824C133.836 214.78 133.32 215.867 133.031 217.023C132.742 218.18 132.687 219.382 132.867 220.56C133.048 221.738 133.461 222.869 134.083 223.886C134.705 224.903 135.523 225.786 136.49 226.484V226.484C137.735 227.383 139.19 227.949 140.716 228.127C142.241 228.305 143.788 228.09 145.207 227.502C146.626 226.914 147.87 225.973 148.822 224.768C149.774 223.563 150.401 222.135 150.644 220.62L152.603 208.384L156.338 155.61L153.67 128.957L136.597 135.354L141.399 158.276V204.653Z" fill="#9F616A"/>
<path d="M134.463 141.751L155.271 132.156L154.204 124.604C154.204 118.351 152.312 112.244 148.776 107.084C145.24 101.925 140.225 97.9548 134.39 95.6942L128.061 93.2422L134.463 141.751Z" fill="#1B67A5"/>
<path d="M58.699 202.521L65.5481 211.693C66.2614 212.648 66.7775 213.735 67.0663 214.892C67.3551 216.048 67.4108 217.25 67.2302 218.428C67.0496 219.606 66.6364 220.737 66.0144 221.754C65.3925 222.771 64.5743 223.654 63.6075 224.352V224.352C62.3625 225.251 60.9077 225.817 59.3819 225.995C57.8561 226.173 56.31 225.958 54.891 225.37C53.472 224.782 52.2273 223.841 51.2756 222.636C50.3238 221.431 49.6967 220.003 49.454 218.488L47.4946 206.252L43.7598 153.479L46.4275 126.825L63.5009 133.222L58.699 156.144V202.521Z" fill="#9F616A"/>
<path d="M65.6344 139.619L44.8262 130.023L45.8933 122.471C45.8933 116.218 47.7855 110.111 51.3217 104.952C54.8578 99.7925 59.8726 95.822 65.7078 93.5613L72.037 91.1094L65.6344 139.619Z" fill="#1B67A5"/>
<path d="M535.587 343.585H179.526C178.039 343.584 176.613 342.993 175.561 341.942C174.509 340.891 173.918 339.466 173.916 337.98V183.277C173.918 181.791 174.509 180.366 175.561 179.315C176.613 178.265 178.039 177.673 179.526 177.672H535.587C537.074 177.673 538.5 178.265 539.552 179.315C540.604 180.366 541.196 181.791 541.197 183.277V337.98C541.196 339.466 540.604 340.891 539.552 341.942C538.5 342.993 537.074 343.584 535.587 343.585V343.585ZM179.526 179.914C178.634 179.915 177.778 180.27 177.147 180.9C176.516 181.531 176.161 182.385 176.16 183.277V337.98C176.161 338.872 176.516 339.727 177.147 340.357C177.778 340.988 178.634 341.342 179.526 341.343H535.587C536.479 341.342 537.335 340.988 537.966 340.357C538.597 339.727 538.952 338.872 538.953 337.98V183.277C538.952 182.385 538.597 181.531 537.966 180.9C537.335 180.27 536.479 179.915 535.587 179.914H179.526Z" fill="#E6E6E6"/>
<path d="M194.112 196.729C193.219 196.729 192.363 197.084 191.732 197.715C191.101 198.345 190.746 199.201 190.746 200.093C190.746 200.985 191.101 201.84 191.732 202.471C192.363 203.101 193.219 203.456 194.112 203.456H241.238C242.131 203.456 242.987 203.101 243.618 202.471C244.249 201.84 244.604 200.985 244.604 200.093C244.604 199.201 244.249 198.345 243.618 197.715C242.987 197.084 242.131 196.729 241.238 196.729H194.112Z" fill="#E6E6E6"/>
<path d="M516.73 220.118V282.484H198.945V249.647C201.146 248.235 203.36 246.83 205.594 245.471C215.134 239.638 225.345 234.183 236.474 232.161C241.738 231.181 247.131 231.114 252.417 231.963C258.001 232.884 263.347 234.806 268.639 236.735C273.857 238.644 279.09 240.613 284.548 241.72C289.867 242.763 295.327 242.87 300.683 242.038C310.901 240.507 320.501 236.404 330.061 232.692C339.681 228.96 349.594 225.434 360.005 224.97C370.283 224.506 380.435 226.932 390.188 229.941C410.073 236.072 430.376 245.166 451.431 238.929C472.812 232.606 492.477 214.351 516.172 219.766C516.396 219.808 516.596 219.933 516.73 220.118V220.118Z" fill="#E6E6E6"/>
<path d="M516.73 221.205C516.628 221.395 516.466 221.545 516.268 221.632C516.071 221.718 515.85 221.736 515.642 221.682C512.818 221.035 509.926 220.737 507.03 220.794C483.724 221.205 465.804 239.95 443.015 242.754C422.469 245.279 403.13 235.297 383.811 230.08C373.773 227.369 363.423 225.931 353.094 227.773C342.844 229.596 333.224 233.785 323.564 237.504C314.263 241.083 304.597 244.411 294.526 244.576C283.453 244.762 273.482 240.202 263.212 236.728C257.871 234.919 252.391 233.487 246.732 233.348C241.216 233.282 235.728 234.131 230.491 235.86C219.578 239.327 209.745 245.504 200.172 251.642C200.008 251.758 199.808 251.812 199.608 251.795C199.402 251.767 199.208 251.677 199.054 251.537C198.899 251.397 198.791 251.214 198.744 251.011C198.696 250.808 198.712 250.596 198.788 250.402C198.864 250.208 198.997 250.042 199.17 249.926L199.608 249.647C201.804 248.235 204.013 246.83 206.243 245.471C215.763 239.638 225.953 234.183 237.059 232.161C242.311 231.181 247.693 231.114 252.968 231.963C258.541 232.884 263.875 234.806 269.156 236.735C274.364 238.644 279.585 240.613 285.032 241.72C290.34 242.763 295.789 242.87 301.134 242.038C311.33 240.507 320.91 236.404 330.451 232.692C340.051 228.96 349.942 225.434 360.332 224.97C370.588 224.506 380.719 226.932 390.452 229.941C410.295 236.072 430.556 245.166 451.567 238.929C472.903 232.606 492.528 214.351 516.172 219.766C516.396 219.808 516.596 219.934 516.73 220.118C516.832 220.28 516.886 220.469 516.886 220.661C516.886 220.853 516.832 221.042 516.73 221.205V221.205Z" fill="#00BFA6"/>
<path d="M242.732 237.412C245.297 237.412 247.376 235.334 247.376 232.772C247.376 230.209 245.297 228.132 242.732 228.132C240.167 228.132 238.088 230.209 238.088 232.772C238.088 235.334 240.167 237.412 242.732 237.412Z" fill="#00BFA6"/>
<path d="M360.16 231.446C362.725 231.446 364.804 229.368 364.804 226.806C364.804 224.243 362.725 222.166 360.16 222.166C357.595 222.166 355.516 224.243 355.516 226.806C355.516 229.368 357.595 231.446 360.16 231.446Z" fill="#00BFA6"/>
<path d="M503.46 225.48C506.025 225.48 508.104 223.403 508.104 220.84C508.104 218.278 506.025 216.2 503.46 216.2C500.896 216.2 498.816 218.278 498.816 220.84C498.816 223.403 500.896 225.48 503.46 225.48Z" fill="#00BFA6"/>
<path d="M240.116 308.833C239.223 308.833 238.367 309.187 237.736 309.818C237.105 310.449 236.75 311.304 236.75 312.196C236.75 313.088 237.105 313.944 237.736 314.574C238.367 315.205 239.223 315.559 240.116 315.559H287.242C288.135 315.559 288.991 315.205 289.622 314.574C290.253 313.944 290.608 313.088 290.608 312.196C290.608 311.304 290.253 310.449 289.622 309.818C288.991 309.187 288.135 308.833 287.242 308.833H240.116Z" fill="#E6E6E6"/>
<path d="M209.822 324.527C216.845 324.527 222.538 318.839 222.538 311.822C222.538 304.805 216.845 299.117 209.822 299.117C202.799 299.117 197.105 304.805 197.105 311.822C197.105 318.839 202.799 324.527 209.822 324.527Z" fill="#00BFA6"/>
<path d="M353.817 308.833C352.925 308.833 352.068 309.187 351.437 309.818C350.806 310.449 350.451 311.304 350.451 312.196C350.451 313.088 350.806 313.944 351.437 314.574C352.068 315.205 352.925 315.559 353.817 315.559H400.943C401.836 315.559 402.692 315.205 403.323 314.574C403.954 313.944 404.309 313.088 404.309 312.196C404.309 311.304 403.954 310.449 403.323 309.818C402.692 309.187 401.836 308.833 400.943 308.833H353.817Z" fill="#E6E6E6"/>
<path d="M323.521 324.527C330.544 324.527 336.238 318.839 336.238 311.822C336.238 304.805 330.544 299.117 323.521 299.117C316.498 299.117 310.805 304.805 310.805 311.822C310.805 318.839 316.498 324.527 323.521 324.527Z" fill="#00BFA6"/>
<path d="M467.517 308.833C466.624 308.833 465.768 309.187 465.136 309.818C464.505 310.449 464.15 311.304 464.15 312.196C464.15 313.088 464.505 313.944 465.136 314.574C465.768 315.205 466.624 315.559 467.517 315.559H514.642C515.535 315.559 516.391 315.205 517.022 314.574C517.654 313.944 518.008 313.088 518.008 312.196C518.008 311.304 517.654 310.449 517.022 309.818C516.391 309.187 515.535 308.833 514.642 308.833H467.517Z" fill="#E6E6E6"/>
<path d="M437.222 324.527C444.245 324.527 449.939 318.839 449.939 311.822C449.939 304.805 444.245 299.117 437.222 299.117C430.199 299.117 424.506 304.805 424.506 311.822C424.506 318.839 430.199 324.527 437.222 324.527Z" fill="#00BFA6"/>
<path d="M511.216 135.901H335.551C332.127 135.901 329.351 133.926 329.348 131.492V93.345C329.351 90.9108 332.127 88.9355 335.551 88.9355H511.216C514.641 88.9355 517.416 90.9108 517.419 93.345V131.491C517.416 133.925 514.641 135.898 511.216 135.901ZM335.551 90.6978C333.496 90.6978 331.831 91.8831 331.829 93.3435V131.489C331.829 132.95 333.496 134.134 335.551 134.135H511.216C513.271 134.135 514.936 132.95 514.938 131.489V93.345C514.938 91.8846 513.271 90.7008 511.216 90.6993L335.551 90.6978Z" fill="#E6E6E6"/>
<path d="M375.269 110.614C374.278 110.615 373.327 111.009 372.626 111.71C371.925 112.411 371.53 113.36 371.529 114.351V140.509C371.53 141.499 371.925 142.449 372.626 143.15C373.327 143.85 374.278 144.244 375.269 144.245H509.166C510.158 144.244 511.108 143.85 511.81 143.15C512.511 142.449 512.905 141.499 512.906 140.509V114.351C512.905 113.36 512.511 112.411 511.81 111.71C511.108 111.009 510.158 110.615 509.166 110.614H375.269Z" fill="#00BFA6"/>
<path d="M393.97 136.025C398.515 136.025 402.199 132.344 402.199 127.804C402.199 123.264 398.515 119.583 393.97 119.583C389.426 119.583 385.742 123.264 385.742 127.804C385.742 132.344 389.426 136.025 393.97 136.025Z" fill="white"/>
<path d="M431.47 124.235C430.577 124.235 429.721 124.59 429.089 125.22C428.458 125.851 428.104 126.707 428.104 127.598C428.104 128.49 428.458 129.346 429.089 129.977C429.721 130.607 430.577 130.962 431.47 130.962H478.595C479.488 130.962 480.344 130.607 480.976 129.977C481.607 129.346 481.961 128.49 481.961 127.598C481.961 126.707 481.607 125.851 480.976 125.22C480.344 124.59 479.488 124.235 478.595 124.235H431.47Z" fill="white"/>
<path d="M379.564 46.9655H203.899C200.474 46.9655 197.699 44.9902 197.695 42.5561V4.40942C197.699 1.97528 200.474 0 203.899 0H379.564C382.988 0 385.763 1.97528 385.767 4.40942V42.5553C385.764 44.9895 382.988 46.9625 379.564 46.9655ZM203.899 1.76227C201.844 1.76227 200.179 2.94758 200.176 4.40792V42.5538C200.176 44.0142 201.844 45.198 203.899 45.1995H379.564C381.619 45.1995 383.284 44.0142 383.286 42.5538V4.40942C383.286 2.94908 381.619 1.76526 379.564 1.76377L203.899 1.76227Z" fill="#E6E6E6"/>
<path d="M243.617 21.6787C242.625 21.6799 241.675 22.0739 240.974 22.7745C240.273 23.475 239.878 24.4248 239.877 25.4155V51.573C239.878 52.5637 240.273 53.5135 240.974 54.2141C241.675 54.9146 242.625 55.3087 243.617 55.3098H377.514C378.505 55.3087 379.456 54.9146 380.157 54.2141C380.858 53.5135 381.253 52.5637 381.254 51.573V25.4155C381.253 24.4248 380.858 23.475 380.157 22.7745C379.456 22.0739 378.505 21.6799 377.514 21.6787H243.617Z" fill="#00BFA6"/>
<path d="M262.316 47.0893C266.861 47.0893 270.544 43.4087 270.544 38.8684C270.544 34.3281 266.861 30.6475 262.316 30.6475C257.772 30.6475 254.088 34.3281 254.088 38.8684C254.088 43.4087 257.772 47.0893 262.316 47.0893Z" fill="white"/>
<path d="M299.817 35.2998C298.925 35.2998 298.068 35.6541 297.437 36.2848C296.806 36.9155 296.451 37.771 296.451 38.6629C296.451 39.5549 296.806 40.4103 297.437 41.041C298.068 41.6717 298.925 42.026 299.817 42.026H346.943C347.836 42.026 348.692 41.6717 349.323 41.041C349.954 40.4103 350.309 39.5549 350.309 38.6629C350.309 37.771 349.954 36.9155 349.323 36.2848C348.692 35.6541 347.836 35.2998 346.943 35.2998H299.817Z" fill="white"/>
</svg>
