<svg width="476" height="330" viewBox="0 0 476 330" fill="none" xmlns="http://www.w3.org/2000/svg">
<g clip-path="url(#clip0_268_1983)">
<path d="M179.383 64.4287C175.758 51.2196 204.997 39.8925 212.675 50.5299C213.743 49.0176 217.688 48.099 219.499 48.5629C221.309 49.0268 222.832 50.1866 224.317 51.3093C226.359 52.8773 228.476 54.501 229.729 56.7556C230.992 59.0009 231.187 62.0628 229.488 64.0112C228.142 65.5607 224.168 66.5627 222.145 66.971C220.733 67.2586 219.545 67.4906 218.524 67.6576C217.614 66.3308 217.15 64.6885 217.317 63.0834C215.943 63.9926 215.014 65.5514 214.866 67.2029C214.838 67.5462 226.276 109.605 226.276 109.605C225.097 110.3 223.639 110.95 221.959 111.544C219.109 107.248 216.769 102.182 215.228 96.8841C214.875 100.159 214.931 103.713 215.358 107.322C215.581 109.243 215.915 111.173 216.342 113.102C202.75 116.034 182.307 115.07 173.413 102.6C173.412 102.548 173.41 102.496 173.409 102.445C173.345 100.111 170.16 99.5315 169.307 101.705C169.091 102.255 168.893 102.731 168.716 103.11C166.125 93.8501 169.477 83.1337 179.383 64.4288V64.4287Z" fill="#2F2E41"/>
<path d="M364.133 169.176C360.917 172.988 355.218 173.473 351.404 170.259C351.034 169.948 350.691 169.607 350.376 169.241L307.453 182.827L300.773 171.886L351.872 156.122C355.881 153.166 361.528 154.017 364.486 158.024C366.961 161.376 366.815 165.987 364.133 169.176H364.133Z" fill="#FFB6B6"/>
<path d="M212.125 135.225C212.125 135.225 231.133 113.858 239.413 122.934C247.693 132.011 273.525 171.784 273.525 171.784L333.827 159.07L339.658 174.974L271.189 197.148C266.042 198.815 260.401 197.086 257.073 192.822L212.125 135.225V135.225Z" fill="#00BFA6"/>
<path d="M253.409 330H159.13L159.044 329.265L158.989 328.774L158.179 321.909L157.032 312.132L156.591 308.374C156.56 308.184 156.529 308 156.505 307.81C156.118 305.364 155.897 302.906 155.818 300.454C155.701 297.083 155.854 293.718 156.216 290.395V290.377C156.413 288.581 156.664 286.803 156.977 285.044C157.369 282.782 157.842 280.557 158.388 278.381C159.013 275.855 159.725 273.397 160.504 271.025C161.399 268.248 162.381 265.588 163.393 263.074C163.503 262.805 163.613 262.535 163.718 262.271L163.724 262.265C169.06 249.264 175.12 240.382 175.12 240.382H243.804C243.804 240.382 246.981 254.315 248.557 265.821C248.809 267.641 249.017 269.394 249.171 271.025C249.447 274.035 249.526 276.621 249.287 278.381C249.14 279.472 248.87 280.244 248.453 280.6C244.675 283.824 248.999 290.665 248.999 290.665C248.999 290.665 252.237 295.612 249.416 298.395C248.858 298.946 248.539 299.657 248.386 300.454C248.14 301.772 248.355 303.305 248.692 304.659C249.03 306.02 249.496 307.203 249.753 307.81C249.87 308.08 249.943 308.233 249.943 308.233L250.422 312.015L250.888 315.656L251.679 321.909L251.918 323.012L253.151 328.774L253.256 329.265L253.409 330H253.409Z" fill="#1B67A5"/>
<path d="M205.786 105.993L176.959 108.558L171.646 125.082L165.856 125.92C155.962 127.351 150.073 137.722 153.918 146.945L159.012 159.167C159.012 159.167 151.529 182.251 160.72 191.95L164.631 234.668L155.808 262.829L258.934 266.156L241.368 230.832L240.847 208.9C240.847 208.9 252.072 169.257 241.665 156.648L237.605 120.782L216.45 117.611L205.785 105.993H205.786Z" fill="#00BFA6"/>
<path d="M225.303 84.7938C228.273 71.9895 220.295 59.203 207.483 56.2343C194.671 53.2656 181.876 61.239 178.906 74.0433C175.935 86.8476 183.914 99.6341 196.726 102.603C209.538 105.571 222.332 97.5981 225.303 84.7938Z" fill="#FFB6B6"/>
<path d="M166.387 66.2842C162.762 53.0751 192.001 41.748 199.679 52.3853C200.746 50.873 204.692 49.9544 206.503 50.4183C208.313 50.8823 209.835 52.042 211.321 53.1647C213.363 54.7328 215.48 56.3565 216.733 58.6111C217.996 60.8564 218.191 63.9183 216.492 65.8667C215.146 67.4161 211.172 68.4182 209.148 68.8265C207.737 69.1141 206.549 69.346 205.528 69.513C204.618 68.1863 204.154 66.544 204.321 64.9389C202.947 65.8481 202.018 67.4069 201.87 69.0584C201.842 69.4017 213.28 111.46 213.28 111.46C212.101 112.156 210.643 112.805 208.963 113.399C206.113 109.103 203.773 104.037 202.232 98.7396C201.879 102.015 201.935 105.568 202.362 109.178C202.585 111.098 202.919 113.028 203.346 114.958C189.754 117.89 169.311 116.925 160.417 104.455C160.416 104.403 160.414 104.352 160.413 104.3C160.349 101.967 157.164 101.387 156.311 103.56C156.095 104.11 155.897 104.587 155.72 104.965C153.129 95.7056 156.481 84.9892 166.387 66.2842L166.387 66.2842Z" fill="#2F2E41"/>
<path d="M369.952 329.264H49.7796L0.0976562 329.877L348.523 309.088C360.145 308.395 369.952 317.628 369.952 329.264V329.264V329.264Z" fill="#3F3D56"/>
<path d="M448.364 328.774V330H0V0H1.22671V328.774H448.364Z" fill="#BBBBBB"/>
<path d="M400.389 76.3283H318.78C316.898 76.3283 315.367 74.8036 315.367 72.9297C315.367 71.0558 316.898 69.5317 318.78 69.5317H400.389C402.271 69.5317 403.801 71.0558 403.801 72.9297C403.801 74.8036 402.271 76.3283 400.389 76.3283Z" fill="#00BFA6"/>
<path d="M359.554 87.289C359.249 86.5377 358.196 86.5378 357.891 87.2892C355.763 92.5314 352.734 98.402 349.439 102.889C348.911 103.607 349.638 104.567 350.477 104.264L357.54 101.71V145.406H359.904V101.71L366.97 104.264C367.808 104.567 368.535 103.607 368.008 102.889C364.713 98.4023 361.683 92.5314 359.554 87.289V87.289Z" fill="#3F3D56"/>
<path d="M473.897 101.306H423.583C422.423 101.306 421.479 100.366 421.479 99.2111C421.479 98.0558 422.423 97.1162 423.583 97.1162H473.897C475.057 97.1162 476 98.0558 476 99.2111C476 100.366 475.057 101.306 473.897 101.306Z" fill="#F2F2F2"/>
<path d="M448.72 108.064C448.532 107.6 447.882 107.601 447.694 108.064C446.382 111.296 444.515 114.915 442.483 117.681C442.158 118.124 442.606 118.716 443.123 118.529L447.478 116.954V143.894H448.936V116.954L453.292 118.529C453.809 118.716 454.257 118.124 453.932 117.681C451.9 114.915 450.032 111.296 448.72 108.064V108.064Z" fill="#F2F2F2"/>
<path d="M448.747 169.889C454.785 169.889 459.68 164.997 459.68 158.962C459.68 152.928 454.785 148.036 448.747 148.036C442.709 148.036 437.814 152.928 437.814 158.962C437.814 164.997 442.709 169.889 448.747 169.889Z" fill="#F2F2F2"/>
<path d="M312.584 39.3949H262.27C261.11 39.3949 260.166 38.4548 260.166 37.2995C260.166 36.1442 261.11 35.2046 262.27 35.2046H312.584C313.744 35.2046 314.688 36.1442 314.688 37.2995C314.688 38.4548 313.744 39.3949 312.584 39.3949V39.3949Z" fill="#F2F2F2"/>
<path d="M287.407 46.1525C287.219 45.6893 286.57 45.6894 286.382 46.1527C285.07 49.3846 283.202 53.004 281.171 55.77C280.846 56.2129 281.294 56.8046 281.811 56.6178L286.165 55.0434V81.9831H287.623V55.0433L291.979 56.618C292.496 56.8048 292.944 56.2131 292.619 55.7702C290.588 53.0042 288.72 49.3846 287.407 46.1525H287.407Z" fill="#F2F2F2"/>
<path d="M287.435 107.977C293.473 107.977 298.368 103.085 298.368 97.0508C298.368 91.0164 293.473 86.1245 287.435 86.1245C281.397 86.1245 276.502 91.0164 276.502 97.0508C276.502 103.085 281.397 107.977 287.435 107.977Z" fill="#F2F2F2"/>
<path d="M160.68 308.765C163.26 304.498 161.89 298.948 157.619 296.37C157.206 296.12 156.773 295.904 156.324 295.723L155.419 250.735L142.906 247.926L144.373 301.351C142.859 306.095 145.479 311.166 150.225 312.68C154.196 313.946 158.519 312.327 160.68 308.765V308.765Z" fill="#FFB6B6"/>
<path d="M169.384 131.27C169.384 131.27 154.05 127.592 149.144 138.013C144.237 148.434 143.819 193.78 143.819 193.78L141.17 285.742L160.62 284.886L176.131 171.727L169.384 131.27V131.27Z" fill="#00BFA6"/>
<path d="M162.504 322.334C162.849 322.767 163.373 323.017 163.927 323.014H263.499C264.511 323.013 265.33 322.192 265.329 321.181C265.329 321.056 265.316 320.931 265.29 320.808L263.745 313.47C263.614 312.862 263.185 312.362 262.604 312.14C262.397 312.059 262.176 312.017 261.954 312.018H165.466C165.244 312.017 165.023 312.059 164.816 312.14C164.235 312.362 163.805 312.862 163.675 313.47L162.13 320.808C162.018 321.347 162.156 321.907 162.504 322.334V322.334Z" fill="#CCCCCC"/>
<path d="M124.383 158.079V272.866C124.385 275.912 126.855 278.381 129.903 278.383H300.11C303.157 278.381 305.627 275.912 305.63 272.866V158.079C305.623 155.036 303.154 152.572 300.11 152.568H129.903C126.858 152.572 124.39 155.036 124.383 158.079V158.079Z" fill="#E6E6E6"/>
<path d="M236.29 253.836C236.088 253.769 235.873 253.738 235.658 253.738H195.839C194.668 253.738 193.711 254.688 193.711 255.859V318.727H237.781V255.859C237.781 254.934 237.18 254.112 236.29 253.836V253.836ZM220.318 284.755C220.306 287.354 218.19 289.451 215.589 289.438C213.007 289.42 210.922 287.336 210.909 284.755V277.461C210.934 274.868 213.062 272.784 215.657 272.808C218.221 272.833 220.294 274.905 220.318 277.461V284.755V284.755Z" fill="#CCCCCC"/>
</g>
<defs>
<clipPath id="clip0_268_1983">
<rect width="476" height="330" fill="white"/>
</clipPath>
</defs>
</svg>
