<svg width="358" height="418" viewBox="0 0 358 418" fill="none" xmlns="http://www.w3.org/2000/svg">
<g clip-path="url(#clip0_268_2272)">
<path d="M346.429 154.064H11.2642C8.27782 154.06 5.41472 152.871 3.30301 150.757C1.19131 148.643 0.00344833 145.777 0 142.788V11.2759C0.00344833 8.28644 1.19131 5.42036 3.30301 3.30646C5.41472 1.19255 8.27782 0.00345192 11.2642 0H346.429C349.416 0.00345192 352.279 1.19255 354.39 3.30646C356.502 5.42036 357.69 8.28644 357.693 11.2759V142.788C357.69 145.777 356.502 148.643 354.39 150.757C352.279 152.871 349.416 154.06 346.429 154.064V154.064Z" fill="#F2F2F2"/>
<path d="M268.261 146.872H64.4661C49.2796 146.855 34.72 140.808 23.9816 130.058C13.2431 119.309 7.20268 104.734 7.18555 89.5316V64.538C7.20267 49.3356 13.243 34.7608 23.9815 24.011C34.72 13.2613 49.2796 7.21451 64.4661 7.19727H293.228C308.415 7.21451 322.975 13.2613 333.713 24.011C344.451 34.7608 350.492 49.3356 350.509 64.538C350.484 86.3667 341.811 107.294 326.392 122.73C310.973 138.165 290.067 146.847 268.261 146.872Z" fill="white"/>
<path d="M215.69 44.8445H80.9793C80.2088 44.8445 79.4699 44.5381 78.9251 43.9927C78.3803 43.4473 78.0742 42.7077 78.0742 41.9364C78.0742 41.1651 78.3803 40.4254 78.9251 39.8801C79.4699 39.3347 80.2088 39.0283 80.9793 39.0283H215.69C216.46 39.0283 217.199 39.3347 217.744 39.8801C218.289 40.4254 218.595 41.1651 218.595 41.9364C218.595 42.7077 218.289 43.4473 217.744 43.9927C217.199 44.5381 216.46 44.8445 215.69 44.8445V44.8445Z" fill="#E6E6E6"/>
<path d="M283.883 75.8718H80.9793C80.2088 75.8718 79.4699 75.5654 78.9251 75.0201C78.3803 74.4747 78.0742 73.735 78.0742 72.9637C78.0742 72.1925 78.3803 71.4528 78.9251 70.9074C79.4699 70.362 80.2088 70.0557 80.9793 70.0557H283.883C284.653 70.0557 285.392 70.362 285.937 70.9074C286.482 71.4528 286.788 72.1925 286.788 72.9637C286.788 73.735 286.482 74.4747 285.937 75.0201C285.392 75.5654 284.653 75.8718 283.883 75.8718V75.8718Z" fill="#E6E6E6"/>
<path d="M283.883 106.899H80.9793C80.2088 106.899 79.4699 106.593 78.9251 106.047C78.3803 105.502 78.0742 104.762 78.0742 103.991C78.0742 103.22 78.3803 102.48 78.9251 101.935C79.4699 101.389 80.2088 101.083 80.9793 101.083H283.883C284.653 101.083 285.392 101.389 285.937 101.935C286.482 102.48 286.788 103.22 286.788 103.991C286.788 104.762 286.482 105.502 285.937 106.047C285.392 106.593 284.653 106.899 283.883 106.899V106.899Z" fill="#E6E6E6"/>
<path d="M283.883 106.899H80.9793C80.2088 106.899 79.4699 106.593 78.9251 106.047C78.3803 105.502 78.0742 104.762 78.0742 103.991C78.0742 103.22 78.3803 102.48 78.9251 101.935C79.4699 101.389 80.2088 101.083 80.9793 101.083H283.883C284.653 101.083 285.392 101.389 285.937 101.935C286.482 102.48 286.788 103.22 286.788 103.991C286.788 104.762 286.482 105.502 285.937 106.047C285.392 106.593 284.653 106.899 283.883 106.899V106.899Z" fill="#E6E6E6"/>
<path d="M201.474 79.4332C201.507 80.3092 201.73 81.1674 202.13 81.9474C202.529 82.7275 203.095 83.4103 203.786 83.9479C204.478 84.4855 205.279 84.8648 206.133 85.059C206.987 85.2532 207.873 85.2576 208.729 85.0719L219.807 103.266L224.522 93.2496L213.279 77.5081C212.872 76.0897 211.96 74.8699 210.714 74.0799C209.469 73.29 207.978 72.9847 206.523 73.222C205.067 73.4593 203.75 74.2226 202.82 75.3674C201.889 76.5122 201.411 77.9588 201.474 79.4332H201.474Z" fill="#FFB6B6"/>
<path d="M284.613 131.575L246.433 110.844L234.391 99.534C234.391 99.534 229.156 98.1309 231.082 96.4269C233.009 94.7228 227.518 93.0794 227.518 93.0794L221.053 87.0078L211.867 93.5145L214.526 97.64C214.526 97.64 214.343 104.469 218.08 103.156C221.818 101.842 220.884 107.506 220.884 107.506L243.192 142.122L284.613 131.575Z" fill="#1B67A5"/>
<path d="M146.965 126.007C181.178 126.007 208.914 98.0944 208.914 63.663C208.914 29.2315 181.178 1.31934 146.965 1.31934C112.751 1.31934 85.0156 29.2315 85.0156 63.663C85.0156 98.0944 112.751 126.007 146.965 126.007Z" fill="#00BFA6"/>
<path d="M284.731 403.486H276.977L273.287 373.547H284.731V403.486Z" fill="#FFB6B6"/>
<path d="M288.825 416.935H283.264L282.272 411.68L279.73 416.935H264.982C264.275 416.935 263.586 416.709 263.017 416.289C262.447 415.87 262.027 415.28 261.816 414.604C261.606 413.928 261.617 413.203 261.847 412.534C262.078 411.865 262.516 411.287 263.098 410.885L274.875 402.743V397.43L287.263 398.17L288.825 416.935Z" fill="#2F2E41"/>
<path d="M222.716 403.486H214.961L211.271 373.547H222.716V403.486Z" fill="#FFB6B6"/>
<path d="M226.808 416.935H221.247L220.254 411.68L217.712 416.935H202.964C202.257 416.935 201.568 416.709 200.999 416.289C200.43 415.87 200.009 415.28 199.799 414.604C199.588 413.928 199.599 413.203 199.83 412.534C200.06 411.865 200.498 411.287 201.08 410.885L212.858 402.743V397.43L225.246 398.17L226.808 416.935Z" fill="#2F2E41"/>
<path d="M276.504 177.057H237.367V221.659H276.504V177.057Z" fill="#FFB6B6"/>
<path d="M238.27 199.057L231.647 206.892L220.207 231.001L191.381 299.658L185.285 314.178L190.208 339.846C190.208 339.846 191.005 357.93 191.005 360.89C191.005 366.917 196.041 370.257 196.041 370.257L199.736 389.519L235.561 388.012C235.561 388.012 234.311 366.78 226.807 361.424C219.304 356.068 215.855 328.155 215.855 328.155L211.778 315.77L251.516 268.615L251.773 285.098L251.897 293.077C251.897 293.077 246.078 344.968 252.861 355.038C259.645 365.109 252.999 363.924 252.999 363.924L253.323 384.697L295.771 384.999L286.406 325.191C286.406 325.191 281.651 321.433 284.195 317.655C286.739 313.877 281.729 309.249 281.729 309.249L283.976 262.559C283.976 262.559 281.488 254.495 284.415 253.446C287.341 252.398 284.799 245.463 284.799 245.463L285.234 236.426L276.504 208.399L238.27 199.057Z" fill="#00BFA6"/>
<path d="M277.107 177.057L281.322 164.399L284.332 160.18L285.536 148.126C285.536 115.578 278.284 120.998 278.284 120.998L274.096 109.551L254.829 108.948L242.486 120.701L232.25 124.318L228.242 145.166L235.562 167.413L237.368 179.468C233.923 185.835 234.214 182.823 237.067 187.604L271.086 196.947C283.128 201.166 283.128 190.317 280.713 187.604C278.299 184.892 277.107 177.057 277.107 177.057Z" fill="#1B67A5"/>
<path d="M261.973 104.902C271.837 104.902 279.834 96.8965 279.834 87.0217C279.834 77.1468 271.837 69.1416 261.973 69.1416C252.108 69.1416 244.111 77.1468 244.111 87.0217C244.111 96.8965 252.108 104.902 261.973 104.902Z" fill="#FFB6B6"/>
<path d="M285.819 110.889C285.987 111.173 286.089 111.492 286.117 111.821C286.145 112.15 286.099 112.482 285.981 112.79C285.864 113.099 285.678 113.377 285.439 113.604C285.199 113.831 284.911 114.001 284.596 114.101C282.2 114.897 280.725 117.218 279.003 119.074C277.287 120.924 274.523 122.461 272.331 121.202C270.146 119.948 269.995 116.747 268.165 115.012C266.383 113.324 263.42 113.529 261.325 114.813L261.262 114.851C260.901 115.087 260.478 115.212 260.046 115.21C259.614 115.208 259.193 115.08 258.833 114.84C258.474 114.601 258.192 114.261 258.023 113.864C257.854 113.466 257.806 113.027 257.883 112.602C258.618 108.693 259.351 104.785 260.085 100.878C258.158 105.525 255.36 109.76 251.842 113.354C250.873 114.473 249.645 115.338 248.265 115.874C247.013 116.271 245.797 114.975 244.581 115.21C247.603 112.565 257.767 95.6037 255.948 84.2663C253.811 84.5074 251.673 84.7485 249.536 84.9896C249.305 83.977 248.81 83.0435 248.103 82.2834C248.189 83.2689 248.064 84.2615 247.736 85.1945C246.844 85.297 245.947 85.3935 245.056 85.4959C243.816 85.6346 242.467 85.7551 241.401 85.1042C239.625 84.0193 239.571 81.4516 240.077 79.4264C241.558 73.5377 246.05 68.6134 251.547 66.0338C257.044 63.4601 258.67 69.1921 264.462 67.3598C275.902 63.7434 284.669 69.9275 287.757 81.4034C290.352 91.029 288.468 101.245 285.819 110.889Z" fill="#2F2E41"/>
<path d="M335.267 417.324H313.396L313.302 417.153C313.022 416.645 312.752 416.107 312.5 415.555C310.247 410.727 309.295 405.205 308.455 400.333L307.822 396.661C307.745 396.216 307.803 395.758 307.988 395.347C308.172 394.935 308.476 394.588 308.859 394.349C309.241 394.111 309.687 393.993 310.137 394.009C310.588 394.026 311.023 394.177 311.387 394.442C314.711 396.863 318.036 399.282 321.363 401.699C322.622 402.616 324.061 403.678 325.438 404.825C325.571 404.179 325.71 403.531 325.849 402.892C325.945 402.45 326.17 402.048 326.496 401.735C326.822 401.423 327.233 401.215 327.678 401.138C328.122 401.061 328.58 401.119 328.991 401.304C329.403 401.488 329.75 401.792 329.988 402.175L332.547 406.291C334.414 409.296 336.061 412.258 335.725 415.452C335.727 415.491 335.724 415.53 335.717 415.568C335.65 416.093 335.525 416.609 335.345 417.106L335.267 417.324Z" fill="#F0F0F0"/>
<path d="M357.22 417.798L149.388 418C149.181 417.999 148.982 417.916 148.836 417.769C148.69 417.622 148.607 417.422 148.607 417.215C148.607 417.007 148.69 416.808 148.836 416.661C148.982 416.514 149.181 416.43 149.388 416.429L357.22 416.227C357.427 416.228 357.626 416.311 357.772 416.458C357.918 416.605 358 416.804 358 417.012C358 417.22 357.918 417.419 357.772 417.566C357.626 417.713 357.427 417.797 357.22 417.798V417.798Z" fill="#CACACA"/>
<path d="M160.742 109.635C161.609 109.763 162.437 110.079 163.168 110.561C163.899 111.043 164.516 111.68 164.974 112.427C165.433 113.174 165.722 114.012 165.822 114.883C165.922 115.753 165.831 116.636 165.553 117.467L182.415 130.47L171.956 134.073L157.547 121.173C156.183 120.614 155.071 119.573 154.422 118.248C153.773 116.923 153.632 115.405 154.026 113.983C154.419 112.561 155.321 111.333 156.559 110.532C157.797 109.73 159.285 109.411 160.742 109.635L160.742 109.635Z" fill="#FFB6B6"/>
<path d="M248.531 116.064L205.358 142.637C205.358 142.637 187.951 136.189 191.353 133.205C194.755 130.22 183.925 128.202 183.925 128.202L171.962 120.145L165.02 128.222C165.02 128.222 166.284 141.34 168.437 139.069C170.589 136.797 173.806 143.002 173.806 143.002C173.806 143.002 174.757 149.931 180.884 148.187C187.01 146.444 203.45 164.72 203.45 164.72L256.583 144.883L248.531 116.064Z" fill="#1B67A5"/>
<path d="M171.019 68.9343C171.681 67.3226 172.643 65.8761 173.845 64.6852L174.838 63.7004C174.871 63.6679 174.912 63.6448 174.956 63.6332C174.999 63.6216 175.045 63.6218 175.089 63.6338C175.133 63.6459 175.173 63.6693 175.207 63.7021C175.24 63.735 175.265 63.7762 175.281 63.8221L175.724 65.1979C176 66.061 176.508 66.9425 177.227 67.8093C177.275 67.8646 177.33 67.8794 177.367 67.8831C177.405 67.8868 177.463 67.8794 177.514 67.8277C177.561 67.7835 177.585 67.7171 177.582 67.6507C177.456 65.4303 178.069 62.9259 179.413 60.2001C180.524 57.9355 182.068 56.1687 183.998 54.9368L185.406 54.0405C185.59 53.9225 185.825 54.0774 185.815 54.3098L185.74 56.0802C185.689 57.29 185.818 58.3596 186.125 59.2485C186.5 60.3366 187.039 61.3472 187.727 62.2546C188.207 62.8852 188.75 63.4555 189.347 63.9549C190.784 65.1506 191.953 66.6826 192.766 68.4363C193.577 70.2053 193.999 72.153 194 74.1275C194 75.8684 193.683 77.554 193.056 79.1437C192.45 80.6743 191.576 82.0634 190.482 83.2342C189.377 84.4144 188.095 85.3439 186.667 85.9894C185.188 86.6607 183.619 87 182 87C180.381 87 178.813 86.6607 177.333 85.9931C175.908 85.3514 174.612 84.4155 173.518 83.2378C172.414 82.0576 171.548 80.6781 170.944 79.1474C170.318 77.5621 169.997 75.8553 170 74.1312C170 72.3313 170.341 70.583 171.019 68.9343Z" fill="white"/>
<path d="M115.659 39.583H166.405C167.366 39.583 168.288 40.0058 168.968 40.7585C169.647 41.5111 170.029 42.5319 170.029 43.5963V83.7293C170.029 84.7937 169.647 85.8145 168.968 86.5672C168.288 87.3198 167.366 87.7426 166.405 87.7426H115.659C114.698 87.7426 113.776 87.3198 113.096 86.5672C112.416 85.8145 112.034 84.7937 112.034 83.7293V43.5963C112.034 42.5319 112.416 41.5111 113.096 40.7585C113.776 40.0058 114.698 39.583 115.659 39.583V39.583ZM148.281 83.7293H151.906V75.7027H148.281V83.7293ZM130.158 83.7293H133.782V75.7027H130.158V83.7293ZM115.659 71.6894H166.405V67.6761H160.968V59.6495H157.343V67.6761H142.844V59.6495H139.219V67.6761H124.721V59.6495H121.096V67.6761H115.659V71.6894ZM115.659 55.6362H166.405V51.6229H151.906V43.5963H148.281V51.6229H133.782V43.5963H130.158V51.6229H115.659V55.6362Z" fill="white"/>
</g>
<defs>
<clipPath id="clip0_268_2272">
<rect width="358" height="418" fill="white"/>
</clipPath>
</defs>
</svg>
