<svg width="377" height="466" viewBox="0 0 377 466" fill="none" xmlns="http://www.w3.org/2000/svg">
<g clip-path="url(#clip0_268_2034)">
<path d="M19.8699 188.035H344.033C352.483 188.035 359.332 194.882 359.332 203.326V392.446C359.332 400.89 352.483 407.737 344.033 407.737H19.8699C11.4199 407.737 4.57031 400.89 4.57031 392.446V203.326C4.57031 194.882 11.4199 188.035 19.8699 188.035Z" stroke="#00BFA6"/>
<path d="M359.832 226.156H4.07031V266.618H359.832V226.156Z" fill="#00BFA6"/>
<path opacity="0.3" d="M359.832 226.156H4.07031V266.618H359.832V226.156Z" fill="#00BFA6"/>
<path d="M326.099 296.66H37.8086V316.277H326.099V296.66Z" fill="#D6D6E3"/>
<path d="M61.7274 393.527C77.3116 393.527 89.9451 380.9 89.9451 365.324C89.9451 349.748 77.3116 337.121 61.7274 337.121C46.1433 337.121 33.5098 349.748 33.5098 365.324C33.5098 380.9 46.1433 393.527 61.7274 393.527Z" fill="#00BFA6"/>
<path opacity="0.3" d="M61.7274 393.527C77.3116 393.527 89.9451 380.9 89.9451 365.324C89.9451 349.748 77.3116 337.121 61.7274 337.121C46.1433 337.121 33.5098 349.748 33.5098 365.324C33.5098 380.9 46.1433 393.527 61.7274 393.527Z" fill="#00BFA6"/>
<path d="M337.151 156.126L348.822 158.292L353.046 135.557L341.375 133.391L337.151 156.126Z" fill="#8ED16F"/>
<path d="M347.653 146.357C348.145 143.713 347.472 141.371 346.151 141.126C344.83 140.881 343.361 142.826 342.87 145.47C342.379 148.114 343.051 150.456 344.372 150.701C345.693 150.946 347.162 149.001 347.653 146.357Z" fill="#8ED16F"/>
<path opacity="0.1" d="M347.653 146.357C348.145 143.713 347.472 141.371 346.151 141.126C344.83 140.881 343.361 142.826 342.87 145.47C342.379 148.114 343.051 150.456 344.372 150.701C345.693 150.946 347.162 149.001 347.653 146.357Z" fill="black"/>
<path d="M339.147 204.113L350.818 206.279L355.042 183.544L343.372 181.378L339.147 204.113Z" fill="#8ED16F"/>
<path d="M349.644 194.339C350.135 191.695 349.462 189.353 348.141 189.108C346.82 188.862 345.351 190.807 344.86 193.451C344.369 196.095 345.042 198.437 346.362 198.682C347.683 198.927 349.153 196.983 349.644 194.339Z" fill="#8ED16F"/>
<path opacity="0.1" d="M349.644 194.339C350.135 191.695 349.462 189.353 348.141 189.108C346.82 188.862 345.351 190.807 344.86 193.451C344.369 196.095 345.042 198.437 346.362 198.682C347.683 198.927 349.153 196.983 349.644 194.339Z" fill="black"/>
<path d="M296.937 86.1614L291.287 96.5957L311.635 107.601L317.284 97.1666L296.937 86.1614Z" fill="#8ED16F"/>
<path d="M310.554 99.6656C311.199 98.4839 309.803 96.4796 307.435 95.1888C305.067 93.898 302.625 93.8096 301.98 94.9912C301.335 96.1729 302.732 98.1772 305.1 99.468C307.467 100.759 309.909 100.847 310.554 99.6656Z" fill="#8ED16F"/>
<path opacity="0.1" d="M310.554 99.6656C311.199 98.4839 309.803 96.4796 307.435 95.1888C305.067 93.898 302.625 93.8096 301.98 94.9912C301.335 96.1729 302.732 98.1772 305.1 99.468C307.467 100.759 309.909 100.847 310.554 99.6656Z" fill="black"/>
<path d="M252.259 292.08L246.609 302.515L266.957 313.52L272.606 303.086L252.259 292.08Z" fill="#8ED16F"/>
<path d="M263.827 305.256C264.466 304.075 263.066 302.08 260.7 300.8C258.333 299.521 255.897 299.44 255.257 300.621C254.618 301.802 256.018 303.797 258.384 305.077C260.751 306.357 263.187 306.437 263.827 305.256Z" fill="#8ED16F"/>
<path opacity="0.1" d="M263.827 305.256C264.466 304.075 263.066 302.08 260.7 300.8C258.333 299.521 255.897 299.44 255.257 300.621C254.618 301.802 256.018 303.797 258.384 305.077C260.751 306.357 263.187 306.437 263.827 305.256Z" fill="black"/>
<path d="M224.923 122.15L219.273 132.584L239.621 143.589L245.27 133.155L224.923 122.15Z" fill="#8ED16F"/>
<path d="M236.485 135.317C237.124 134.136 235.724 132.141 233.358 130.861C230.992 129.581 228.555 129.501 227.916 130.682C227.276 131.863 228.676 133.858 231.042 135.138C233.409 136.418 235.845 136.498 236.485 135.317Z" fill="#8ED16F"/>
<path opacity="0.1" d="M236.485 135.317C237.124 134.136 235.724 132.141 233.358 130.861C230.992 129.581 228.555 129.501 227.916 130.682C227.276 131.863 228.676 133.858 231.042 135.138C233.409 136.418 235.845 136.498 236.485 135.317Z" fill="black"/>
<path d="M259.185 86.1595L253.535 96.5938L273.883 107.599L279.532 97.1647L259.185 86.1595Z" fill="#8ED16F"/>
<path d="M270.745 99.3265C271.384 98.1455 269.984 96.1506 267.618 94.8707C265.251 93.5909 262.815 93.5107 262.175 94.6917C261.536 95.8727 262.936 97.8676 265.302 99.1474C267.668 100.427 270.105 100.507 270.745 99.3265Z" fill="#8ED16F"/>
<path opacity="0.1" d="M270.745 99.3265C271.384 98.1455 269.984 96.1506 267.618 94.8707C265.251 93.5909 262.815 93.5107 262.175 94.6917C261.536 95.8727 262.936 97.8676 265.302 99.1474C267.668 100.427 270.105 100.507 270.745 99.3265Z" fill="black"/>
<path d="M293.39 128.625L281.59 129.915L284.105 152.902L295.905 151.612L293.39 128.625Z" fill="#8ED16F"/>
<path d="M289.12 145.623C290.455 145.477 291.301 143.192 291.009 140.519C290.716 137.846 289.396 135.797 288.061 135.943C286.725 136.089 285.88 138.374 286.172 141.047C286.465 143.721 287.784 145.769 289.12 145.623Z" fill="#8ED16F"/>
<path opacity="0.1" d="M289.12 145.623C290.455 145.477 291.301 143.192 291.009 140.519C290.716 137.846 289.396 135.797 288.061 135.943C286.725 136.089 285.88 138.374 286.172 141.047C286.465 143.721 287.784 145.769 289.12 145.623Z" fill="black"/>
<path d="M374.292 254.496L362.492 255.785L365.007 278.772L376.807 277.482L374.292 254.496Z" fill="#8ED16F"/>
<path d="M370.028 271.493C371.364 271.347 372.209 269.062 371.917 266.389C371.624 263.716 370.305 261.667 368.969 261.813C367.633 261.959 366.788 264.244 367.08 266.917C367.373 269.591 368.693 271.639 370.028 271.493Z" fill="#8ED16F"/>
<path opacity="0.1" d="M370.028 271.493C371.364 271.347 372.209 269.062 371.917 266.389C371.624 263.716 370.305 261.667 368.969 261.813C367.633 261.959 366.788 264.244 367.08 266.917C367.373 269.591 368.693 271.639 370.028 271.493Z" fill="black"/>
<path d="M247.183 177.454L241.533 187.889L261.881 198.894L267.53 188.46L247.183 177.454Z" fill="#8ED16F"/>
<path d="M258.741 190.63C259.38 189.449 257.98 187.454 255.614 186.174C253.248 184.895 250.811 184.814 250.171 185.995C249.532 187.176 250.932 189.171 253.298 190.451C255.665 191.731 258.101 191.811 258.741 190.63Z" fill="#8ED16F"/>
<path opacity="0.1" d="M258.741 190.63C259.38 189.449 257.98 187.454 255.614 186.174C253.248 184.895 250.811 184.814 250.171 185.995C249.532 187.176 250.932 189.171 253.298 190.451C255.665 191.731 258.101 191.811 258.741 190.63Z" fill="black"/>
<path d="M195.837 162.798L190.188 173.232L210.535 184.238L216.185 173.803L195.837 162.798Z" fill="#8ED16F"/>
<path d="M209.09 176.666C209.734 175.484 208.338 173.48 205.97 172.189C203.602 170.898 201.16 170.81 200.515 171.991C199.87 173.173 201.267 175.177 203.635 176.468C206.002 177.759 208.445 177.847 209.09 176.666Z" fill="#8ED16F"/>
<path opacity="0.1" d="M209.09 176.666C209.734 175.484 208.338 173.48 205.97 172.189C203.602 170.898 201.16 170.81 200.515 171.991C199.87 173.173 201.267 175.177 203.635 176.468C206.002 177.759 208.445 177.847 209.09 176.666Z" fill="black"/>
<path d="M179.392 409.568L173.742 420.002L194.09 431.007L199.739 420.573L179.392 409.568Z" fill="#8ED16F"/>
<path d="M190.954 422.738C191.593 421.557 190.193 419.562 187.827 418.282C185.46 417.002 183.024 416.922 182.384 418.103C181.745 419.284 183.145 421.279 185.511 422.559C187.877 423.838 190.314 423.919 190.954 422.738Z" fill="#8ED16F"/>
<path opacity="0.1" d="M190.954 422.738C191.593 421.557 190.193 419.562 187.827 418.282C185.46 417.002 183.024 416.922 182.384 418.103C181.745 419.284 183.145 421.279 185.511 422.559C187.877 423.838 190.314 423.919 190.954 422.738Z" fill="black"/>
<path d="M164.587 413.589L162.422 425.254L185.17 429.472L187.335 417.807L164.587 413.589Z" fill="#8ED16F"/>
<path opacity="0.05" d="M164.587 413.589L162.422 425.254L185.17 429.472L187.335 417.807L164.587 413.589Z" fill="black"/>
<path d="M179.647 422.567C179.892 421.247 177.946 419.779 175.301 419.289C172.655 418.798 170.312 419.471 170.067 420.791C169.822 422.111 171.768 423.579 174.413 424.07C177.058 424.56 179.402 423.888 179.647 422.567Z" fill="#8ED16F"/>
<path opacity="0.1" d="M179.647 422.567C179.892 421.247 177.946 419.779 175.301 419.289C172.655 418.798 170.312 419.471 170.067 420.791C169.822 422.111 171.768 423.579 174.413 424.07C177.058 424.56 179.402 423.888 179.647 422.567Z" fill="black"/>
<path d="M166.72 420.585L164.555 432.25L187.302 436.468L189.468 424.803L166.72 420.585Z" fill="#8ED16F"/>
<path d="M181.772 429.562C182.017 428.242 180.071 426.774 177.426 426.284C174.78 425.793 172.437 426.466 172.192 427.786C171.947 429.106 173.893 430.574 176.538 431.065C179.183 431.555 181.527 430.883 181.772 429.562Z" fill="#8ED16F"/>
<path opacity="0.1" d="M181.772 429.562C182.017 428.242 180.071 426.774 177.426 426.284C174.78 425.793 172.437 426.466 172.192 427.786C171.947 429.106 173.893 430.574 176.538 431.065C179.183 431.555 181.527 430.883 181.772 429.562Z" fill="black"/>
<path d="M203.394 439.558L197.744 449.992L218.092 460.997L223.741 450.563L203.394 439.558Z" fill="#8ED16F"/>
<path d="M214.961 452.728C215.601 451.547 214.201 449.552 211.835 448.272C209.468 446.992 207.032 446.912 206.392 448.093C205.753 449.274 207.153 451.269 209.519 452.549C211.885 453.829 214.322 453.909 214.961 452.728Z" fill="#8ED16F"/>
<path opacity="0.1" d="M214.961 452.728C215.601 451.547 214.201 449.552 211.835 448.272C209.468 446.992 207.032 446.912 206.392 448.093C205.753 449.274 207.153 451.269 209.519 452.549C211.885 453.829 214.322 453.909 214.961 452.728Z" fill="black"/>
<path d="M188.595 443.571L186.43 455.236L209.177 459.454L211.343 447.789L188.595 443.571Z" fill="#8ED16F"/>
<path opacity="0.05" d="M188.595 443.571L186.43 455.236L209.177 459.454L211.343 447.789L188.595 443.571Z" fill="black"/>
<path d="M203.645 452.549C203.89 451.229 201.944 449.761 199.299 449.27C196.653 448.78 194.31 449.452 194.065 450.772C193.82 452.093 195.766 453.561 198.411 454.051C201.057 454.542 203.4 453.869 203.645 452.549Z" fill="#8ED16F"/>
<path opacity="0.1" d="M203.645 452.549C203.89 451.229 201.944 449.761 199.299 449.27C196.653 448.78 194.31 449.452 194.065 450.772C193.82 452.093 195.766 453.561 198.411 454.051C201.057 454.542 203.4 453.869 203.645 452.549Z" fill="black"/>
<path d="M190.724 450.574L188.559 462.239L211.306 466.457L213.472 454.792L190.724 450.574Z" fill="#8ED16F"/>
<path d="M205.781 459.552C206.027 458.231 204.081 456.764 201.435 456.273C198.79 455.783 196.447 456.455 196.202 457.775C195.956 459.096 197.902 460.564 200.548 461.054C203.193 461.545 205.536 460.872 205.781 459.552Z" fill="#8ED16F"/>
<path opacity="0.1" d="M205.781 459.552C206.027 458.231 204.081 456.764 201.435 456.273C198.79 455.783 196.447 456.455 196.202 457.775C195.956 459.096 197.902 460.564 200.548 461.054C203.193 461.545 205.536 460.872 205.781 459.552Z" fill="black"/>
<path d="M239.405 420.231L233.756 430.665L254.103 441.67L259.753 431.236L239.405 420.231Z" fill="#8ED16F"/>
<path d="M250.959 433.398C251.599 432.217 250.199 430.222 247.833 428.942C245.466 427.662 243.03 427.582 242.39 428.763C241.751 429.944 243.151 431.939 245.517 433.219C247.883 434.499 250.32 434.579 250.959 433.398Z" fill="#8ED16F"/>
<path opacity="0.1" d="M250.959 433.398C251.599 432.217 250.199 430.222 247.833 428.942C245.466 427.662 243.03 427.582 242.39 428.763C241.751 429.944 243.151 431.939 245.517 433.219C247.883 434.499 250.32 434.579 250.959 433.398Z" fill="black"/>
<path d="M224.601 424.248L222.436 435.913L245.183 440.131L247.348 428.466L224.601 424.248Z" fill="#8ED16F"/>
<path opacity="0.05" d="M224.601 424.248L222.436 435.913L245.183 440.131L247.348 428.466L224.601 424.248Z" fill="black"/>
<path d="M239.655 433.226C239.9 431.905 237.954 430.437 235.308 429.947C232.663 429.456 230.32 430.129 230.075 431.449C229.83 432.77 231.775 434.237 234.421 434.728C237.066 435.219 239.409 434.546 239.655 433.226Z" fill="#8ED16F"/>
<path opacity="0.1" d="M239.655 433.226C239.9 431.905 237.954 430.437 235.308 429.947C232.663 429.456 230.32 430.129 230.075 431.449C229.83 432.77 231.775 434.237 234.421 434.728C237.066 435.219 239.409 434.546 239.655 433.226Z" fill="black"/>
<path d="M226.732 431.25L224.566 442.915L247.314 447.133L249.479 435.468L226.732 431.25Z" fill="#8ED16F"/>
<path d="M241.789 440.229C242.034 438.909 240.089 437.441 237.443 436.951C234.798 436.46 232.454 437.133 232.209 438.453C231.964 439.773 233.91 441.241 236.556 441.732C239.201 442.222 241.544 441.55 241.789 440.229Z" fill="#8ED16F"/>
<path opacity="0.1" d="M241.789 440.229C242.034 438.909 240.089 437.441 237.443 436.951C234.798 436.46 232.454 437.133 232.209 438.453C231.964 439.773 233.91 441.241 236.556 441.732C239.201 442.222 241.544 441.55 241.789 440.229Z" fill="black"/>
<g clip-path="url(#clip1_268_2034)">
<path d="M82.586 358.445L73.5017 358.445L69.1808 323.424L82.5879 323.425L82.586 358.445Z" fill="#FFB6B6"/>
<path d="M82.9058 367.916L54.971 367.915V367.562C54.9712 364.68 56.1169 361.916 58.1559 359.878C60.1949 357.84 62.9604 356.695 65.844 356.695H65.8447L70.9473 352.826L80.4677 356.696L82.9062 356.696L82.9058 367.916Z" fill="#2F2E41"/>
<path d="M77.475 321.765L84.8596 327.053L108.781 301.102L97.8826 293.298L77.475 321.765Z" fill="#FFB6B6"/>
<path d="M71.6968 329.277L94.4041 345.539L94.6099 345.252C96.2894 342.909 96.969 339.996 96.4992 337.152C96.0295 334.308 94.4489 331.768 92.105 330.089L92.1045 330.088L90.2116 323.973L80.2179 321.576L78.2357 320.156L71.6968 329.277Z" fill="#2F2E41"/>
<path d="M111.538 159.227C111.538 159.227 167.857 219.795 158.116 237.549C148.375 255.303 101.387 316.011 101.387 316.011L88.5054 301.227C99.3317 275.552 110.981 253.112 124.571 238.304L85.1912 209.229C85.1912 209.229 82.2935 257.36 84.6775 264.922C87.0615 272.484 91.0727 268.475 87.0615 272.484C83.0504 276.493 81.027 277.229 83.1848 279.725C85.3425 282.22 86.8944 339.072 86.8944 339.072H68.364C68.364 339.072 51.0716 234.334 52.1625 230.501C53.2534 226.667 52.6277 228.425 52.654 223.537C52.6804 218.649 44.7727 178.607 44.7727 178.607L111.538 159.227Z" fill="#1B67A5"/>
<path d="M73.3075 45.8418L91.0711 46.9872L102.728 61.9083L122.123 76.68L109.817 114.112C109.817 114.112 110.423 133.242 112.494 135.645C114.565 138.049 118.003 135.185 114.565 140.34C112.469 143.606 111.282 147.372 111.127 151.249C111.127 151.249 130.718 167.544 123.733 171.839C116.748 176.134 102.64 164.966 95.4231 171.553C88.206 178.139 40.2621 191.402 40.0724 182.148C39.8827 172.894 52.0437 100.637 52.0437 100.637L49.2407 65.8868L65.2852 55.0052L73.3075 45.8418Z" fill="#00BFA6"/>
<path d="M101.426 191.848L107.447 173.731L118.281 175.725L111.233 194.652C111.662 195.761 111.772 196.968 111.552 198.136C111.332 199.304 110.791 200.388 109.988 201.266C109.186 202.143 108.155 202.78 107.01 203.103C105.866 203.427 104.653 203.425 103.51 203.098C102.366 202.771 101.337 202.132 100.537 201.252C99.737 200.372 99.1985 199.287 98.982 198.118C98.7654 196.949 98.8794 195.743 99.3111 194.635C99.7428 193.527 100.475 192.562 101.426 191.848H101.426Z" fill="#FFB6B6"/>
<path d="M117.446 73.7656L117.731 73.8846C120.388 74.9918 122.734 76.7294 124.567 78.9472C126.401 81.1649 127.666 83.7958 128.252 86.6121C129.788 93.9585 131.299 104.584 130.105 114.534C127.995 132.107 132.318 139.839 129.505 145.462C126.692 151.085 125.989 148.977 126.692 153.194C127.395 157.411 130.912 153.897 127.395 159.52C123.879 165.143 121.769 163.738 123.176 166.549C124.582 169.361 126.692 169.361 123.879 172.875C121.066 176.39 121.066 177.796 120.363 179.202C119.659 180.607 117.55 191.151 117.55 191.151C117.55 191.151 106.297 187.636 99.9675 189.042C99.9675 189.042 105.594 179.202 104.187 177.093C102.781 174.984 100.671 174.281 102.781 172.173C104.891 170.064 108.407 170.767 104.89 168.658C101.374 166.549 104.25 123.732 104.25 123.732L117.446 73.7656Z" fill="#00BFA6"/>
<path d="M24.2026 170.829L28.3125 152.187L17.9849 148.354L14.3413 168.219C13.405 168.952 12.692 169.932 12.2823 171.048C11.8726 172.164 11.7826 173.372 12.0222 174.536C12.2619 175.701 12.8218 176.775 13.6389 177.639C14.4561 178.503 15.4981 179.122 16.6479 179.426C17.7977 179.731 19.0096 179.708 20.1474 179.362C21.2853 179.016 22.3039 178.359 23.0888 177.466C23.8737 176.573 24.3938 175.478 24.5906 174.306C24.7873 173.134 24.6529 171.93 24.2026 170.829V170.829Z" fill="#FFB6B6"/>
<path d="M66.0195 58.2714L65.7133 58.2273C62.8642 57.8187 59.9584 58.1103 57.2474 59.0769C54.5365 60.0435 52.1021 61.6559 50.1551 63.7745C45.072 69.2987 38.33 77.6523 34.2583 86.81C27.0671 102.984 24.3138 110.345 23.849 116.615C23.3842 122.884 25.0687 121.433 22.3038 124.696C19.5389 127.958 18.3192 123.14 18.4585 129.769C18.5978 136.399 21.1302 136.272 18.4816 137.967C15.8329 139.662 14.0207 138.582 14.6363 143.041C15.2519 147.499 14.5316 148.707 14.4154 150.274C14.2992 151.841 10.7094 161.978 10.7094 161.978C10.7094 161.978 22.1753 164.718 26.8916 169.165C26.8916 169.165 27.1009 157.833 29.3895 156.741C31.678 155.65 33.8504 156.126 33.1186 153.235C32.3867 150.344 29.0062 149.148 33.107 149.136C37.2078 149.125 61.8482 96.2412 61.8482 96.2412L66.0195 58.2714Z" fill="#00BFA6"/>
<path d="M83.212 44.0015C72.8842 44.0015 64.5119 35.6336 64.5119 25.3113C64.5119 14.989 72.8842 6.62109 83.212 6.62109C93.5398 6.62109 101.912 14.989 101.912 25.3113C101.912 35.6336 93.5398 44.0015 83.212 44.0015Z" fill="#FFB6B6"/>
<path d="M61.4158 19.2387C63.3366 20.114 64.5811 26.4538 66.0908 24.98C67.6005 23.5061 67.4997 21.5881 69.5351 21.0441C71.1787 20.603 72.9476 21.1071 74.4469 21.9023C74.7146 22.0426 74.9741 22.1951 75.227 22.3468C75.394 22.2353 75.5602 22.1304 75.7386 22.0336C77.0796 21.3163 78.6448 21.1404 80.1118 21.542C78.9526 21.93 77.9448 22.6725 77.2309 23.6643C77.7327 24.0004 78.2409 24.3373 78.7608 24.6359C83.1039 27.1409 89.2839 21.6939 93.8554 19.6476C90.992 25.0182 92.402 27.2425 94.8883 32.7968L94.9741 33.1131C94.8329 31.721 99.1429 30.6836 98.8929 32.6432C98.4563 34.6279 97.7649 36.548 96.836 38.3556C101.642 32.801 104.927 26.0036 104.234 18.9916C104.083 17.5186 104.129 15.9644 103.368 14.6859C102.607 13.414 101.021 12.5215 99.6174 13.0065C99.7363 10.7703 99.2467 8.54365 98.2006 6.56333C97.1546 4.58301 95.5911 2.92302 93.6765 1.75984C91.7619 0.596651 89.5677 -0.0262456 87.3272 -0.0426367C85.0867 -0.0590278 82.8837 0.531698 80.9522 1.66675C79.1575 2.71928 77.6593 4.20789 76.0144 5.49195C74.3695 6.77599 72.4733 7.89526 70.3875 8.00126C69.0643 8.06504 67.6244 7.74217 66.4876 8.42712C65.1707 9.22191 64.9453 10.8859 64.7477 12.4872C65.9222 12.6029 67.0355 13.066 67.9454 13.8173C66.7302 13.6934 65.5068 13.9556 64.4492 14.5668C64.4292 14.5758 64.4101 14.5867 64.392 14.5993C63.6958 17.2456 63.7671 17.8322 61.4158 19.2387Z" fill="#2F2E41"/>
</g>
</g>
<defs>
<clipPath id="clip0_268_2034">
<rect width="377" height="466" fill="white"/>
</clipPath>
<clipPath id="clip1_268_2034">
<rect width="173.216" height="369.162" fill="white" transform="matrix(-1 0 0 1 184.043 0)"/>
</clipPath>
</defs>
</svg>
