<svg width="443" height="329" viewBox="0 0 443 329" fill="none" xmlns="http://www.w3.org/2000/svg">
<path d="M378.173 326.531C382.874 315.526 386.188 303.548 384.619 291.694C384.082 287.675 382.911 283.765 381.152 280.111C379.734 277.133 377.904 274.369 375.714 271.9C374.957 271.03 373.918 270.453 372.779 270.269C371.64 270.086 370.472 270.309 369.48 270.898C369.327 270.987 369.174 271.081 369.032 271.181C368.264 271.722 367.659 272.462 367.281 273.321C367.207 273.485 367.146 273.655 367.098 273.828C366.881 274.552 366.823 275.314 366.927 276.062C367.754 282.162 367.574 288.357 366.396 294.4C366.095 295.938 365.728 297.463 365.293 298.974C364.317 297.756 363.28 296.59 362.185 295.478C359.346 292.603 356.072 290.192 352.484 288.334H352.478C352.46 288.323 352.448 288.317 352.43 288.305C348.078 286.089 342.275 287.008 338.884 288.517C338.66 288.611 338.447 288.717 338.241 288.818C336.472 289.725 335.593 290.769 336.348 291.453C336.519 291.6 336.69 291.753 336.849 291.906C341.99 296.657 346.202 302.321 349.269 308.611V308.617C350.489 311.122 351.516 313.715 352.342 316.374C353.48 320.047 354.424 324.12 356.647 327.114C356.875 327.429 357.121 327.731 357.384 328.016L377.248 327.857C377.295 327.833 377.336 327.816 377.383 327.792L378.173 327.822C378.144 327.68 378.109 327.539 378.073 327.397V327.385C378.055 327.309 378.032 327.226 378.014 327.156C377.996 327.097 377.985 327.044 377.973 326.996C378.008 326.908 378.044 326.825 378.085 326.737C378.114 326.666 378.144 326.601 378.173 326.531Z" fill="#F0F0F0"/>
<path d="M378.073 327.385C378.066 327.429 378.049 327.471 378.022 327.506C377.995 327.542 377.96 327.57 377.919 327.588C377.878 327.605 377.833 327.612 377.789 327.608C377.744 327.603 377.702 327.587 377.666 327.562C376.849 326.97 375.954 326.496 375.006 326.153C375 326.147 375 326.153 375 326.153C373.803 325.723 372.572 325.396 371.32 325.175C371.308 325.175 371.302 325.169 371.29 325.169C370.783 325.068 370.276 324.98 369.769 324.886C367.304 324.432 364.797 323.884 362.662 322.481C361.793 321.943 361.048 321.227 360.476 320.381C359.904 319.535 359.517 318.577 359.342 317.571C359.029 315.596 359.424 313.61 359.59 311.641C359.601 311.499 359.613 311.352 359.619 311.21C359.631 311.028 359.637 310.851 359.637 310.674C359.697 308.887 359.338 307.11 358.587 305.487C357.622 303.544 356.356 301.765 354.836 300.217C354.052 299.374 353.234 298.563 352.383 297.783H352.377C352.341 297.747 352.312 297.718 352.276 297.688C352.276 297.683 352.271 297.677 352.265 297.671C348.625 294.366 344.498 291.642 340.027 289.595C339.868 289.525 339.703 289.448 339.538 289.377C339.107 289.183 338.677 289 338.24 288.817C338.447 288.717 338.659 288.611 338.883 288.517C343.869 290.624 348.471 293.545 352.501 297.158C352.636 297.276 352.772 297.4 352.902 297.523C353.922 298.467 354.893 299.455 355.815 300.488C357.289 302.076 358.484 303.901 359.348 305.888C359.981 307.495 360.261 309.22 360.167 310.945C360.156 311.275 360.132 311.605 360.103 311.941C359.92 313.928 359.513 315.979 359.967 317.966C360.486 320.229 362.243 321.809 364.284 322.775C365.635 323.377 367.052 323.817 368.507 324.084C371.514 324.715 374.622 325.021 377.253 326.636H377.259C377.3 326.666 377.341 326.689 377.377 326.713C377.382 326.713 377.382 326.713 377.382 326.719C377.572 326.832 377.756 326.956 377.931 327.09C377.943 327.096 377.955 327.108 377.966 327.114C377.983 327.126 377.999 327.14 378.014 327.155C378.041 327.186 378.06 327.223 378.071 327.263C378.081 327.303 378.081 327.345 378.073 327.385Z" fill="white"/>
<path d="M352.748 297.725C353.82 296.397 354.384 294.731 354.34 293.025C354.297 291.319 353.648 289.684 352.509 288.412C352.278 288.156 351.868 288.503 352.1 288.76C353.162 289.942 353.767 291.465 353.804 293.054C353.841 294.642 353.31 296.192 352.304 297.423C352.086 297.691 352.531 297.991 352.748 297.725Z" fill="white"/>
<path d="M359.808 310.657C356.341 311.059 352.85 310.141 350.03 308.086C349.751 307.882 349.449 308.325 349.728 308.529C352.666 310.663 356.302 311.611 359.908 311.184C360.252 311.143 360.15 310.616 359.808 310.657Z" fill="white"/>
<path d="M340.063 289.53C340.051 289.554 340.04 289.572 340.028 289.595C339.703 290.192 339.249 290.709 338.699 291.109C338.149 291.509 337.517 291.781 336.849 291.906C336.69 291.753 336.519 291.599 336.348 291.452C336.374 291.435 336.405 291.425 336.436 291.423C337.078 291.352 337.695 291.13 338.234 290.774C338.773 290.418 339.22 289.94 339.538 289.377C339.568 289.33 339.597 289.277 339.621 289.23C339.64 289.201 339.666 289.176 339.695 289.156C339.724 289.137 339.757 289.124 339.792 289.117C339.826 289.11 339.862 289.111 339.896 289.118C339.931 289.125 339.963 289.139 339.992 289.159C340.049 289.201 340.088 289.262 340.101 289.331C340.114 289.4 340.101 289.471 340.063 289.53Z" fill="white"/>
<path d="M43.2071 3.20801C32.6031 3.21996 22.4369 7.43547 14.9388 14.9297C7.44061 22.4239 3.22289 32.5849 3.21094 43.1833V196.381C3.22289 206.98 7.44061 217.141 14.9388 224.635C22.4369 232.129 32.6031 236.345 43.2071 236.357H399.794C410.398 236.345 420.565 232.129 428.063 224.635C435.561 217.141 439.779 206.98 439.791 196.381V43.1833C439.779 32.5849 435.561 22.4239 428.063 14.9297C420.565 7.43547 410.398 3.21996 399.794 3.20801H43.2071Z" fill="white"/>
<path d="M399.794 239.566H43.2063C31.7512 239.553 20.769 234.999 12.6691 226.903C4.56911 218.807 0.0128935 207.831 0 196.382V43.1837C0.0128935 31.7346 4.56911 20.7582 12.6691 12.6625C20.769 4.56673 31.7512 0.0128868 43.2063 0H399.794C411.249 0.012879 422.231 4.56672 430.331 12.6624C438.431 20.7582 442.987 31.7346 443 43.1837V196.382C442.987 207.831 438.431 218.807 430.331 226.903C422.231 234.999 411.249 239.553 399.794 239.566V239.566ZM43.2063 6.41691C33.4534 6.42793 24.1032 10.3051 17.2068 17.1978C10.3105 24.0906 6.43129 33.4359 6.42027 43.1837V196.382C6.43129 206.13 10.3105 215.475 17.2068 222.368C24.1032 229.26 33.4534 233.138 43.2063 233.149H399.794C409.546 233.138 418.897 229.26 425.793 222.368C432.689 215.475 436.569 206.13 436.58 196.382V43.1837C436.569 33.4359 432.689 24.0906 425.793 17.1978C418.897 10.3051 409.546 6.42793 399.794 6.41691H43.2063Z" fill="#E6E6E6"/>
<path d="M222.458 34.9268H52.8765C49.2572 34.933 45.7879 36.3727 43.2287 38.9307C40.6694 41.4886 39.2289 44.956 39.2227 48.5735V125.021C39.2212 125.831 39.2964 126.641 39.4474 127.438C39.5009 127.801 39.5865 128.154 39.6721 128.507C40.4489 131.416 42.1636 133.988 44.5507 135.825C46.9377 137.662 49.864 138.661 52.8765 138.667H222.458C222.736 138.667 223.014 138.657 223.282 138.635H223.474V138.624C223.528 138.626 223.582 138.623 223.635 138.614C223.688 138.614 223.753 138.603 223.806 138.603C223.824 138.605 223.843 138.601 223.859 138.592C223.977 138.582 224.095 138.571 224.202 138.56C224.395 138.528 224.587 138.507 224.769 138.475C224.793 138.466 224.818 138.462 224.844 138.464C224.877 138.448 224.914 138.44 224.951 138.443C224.955 138.439 224.96 138.436 224.966 138.434C224.971 138.432 224.977 138.431 224.983 138.432C225.101 138.411 225.218 138.389 225.336 138.357C225.401 138.348 225.466 138.334 225.529 138.314C225.764 138.261 226 138.207 226.224 138.133C226.331 138.1 226.428 138.079 226.535 138.047C226.674 138.004 226.824 137.951 226.963 137.897C227.036 137.877 227.107 137.852 227.177 137.822C227.185 137.822 227.193 137.82 227.2 137.817C227.208 137.813 227.214 137.808 227.219 137.801C227.529 137.692 227.832 137.567 228.129 137.427C228.386 137.309 228.632 137.181 228.878 137.052C228.974 137.01 229.06 136.956 229.156 136.903C229.18 136.892 229.202 136.878 229.22 136.86C229.467 136.71 229.713 136.56 229.948 136.421C229.959 136.411 229.959 136.4 229.969 136.4C229.971 136.4 229.972 136.4 229.974 136.399C229.975 136.399 229.976 136.398 229.977 136.397C229.978 136.396 229.979 136.395 229.979 136.393C229.98 136.392 229.98 136.391 229.98 136.389C230.232 136.231 230.475 136.06 230.708 135.876H230.719C230.783 135.822 230.836 135.78 230.89 135.737C230.965 135.683 231.04 135.619 231.104 135.566C231.232 135.459 231.361 135.352 231.478 135.245C231.551 135.19 231.619 135.129 231.682 135.063C231.863 134.903 232.035 134.732 232.206 134.56C232.297 134.473 232.383 134.38 232.463 134.282C232.596 134.155 232.721 134.019 232.837 133.876C232.944 133.737 233.062 133.598 233.169 133.459C233.296 133.313 233.414 133.159 233.522 132.999C233.715 132.742 233.886 132.486 234.057 132.208C234.196 131.983 234.335 131.748 234.464 131.512C234.528 131.395 234.592 131.266 234.656 131.138C234.667 131.138 234.667 131.127 234.667 131.117C234.785 130.892 234.892 130.667 234.988 130.432C235.031 130.336 235.074 130.25 235.106 130.154C235.191 129.972 235.256 129.78 235.33 129.587C235.448 129.234 235.566 128.871 235.662 128.507C235.748 128.154 235.833 127.801 235.887 127.438C236.038 126.641 236.113 125.832 236.112 125.021V48.5735C236.105 44.956 234.665 41.4886 232.106 38.9307C229.546 36.3727 226.077 34.933 222.458 34.9268V34.9268Z" fill="#00BFA6"/>
<path opacity="0.3" d="M236.112 56.8516H39.2227V57.921H236.112V56.8516Z" fill="white"/>
<path opacity="0.3" d="M236.112 68.6152H39.2227V69.6847H236.112V68.6152Z" fill="white"/>
<path opacity="0.3" d="M236.112 80.3799H39.2227V81.4494H236.112V80.3799Z" fill="white"/>
<path opacity="0.3" d="M236.112 92.1445H39.2227V93.214H236.112V92.1445Z" fill="white"/>
<path opacity="0.3" d="M236.112 103.908H39.2227V104.978H236.112V103.908Z" fill="white"/>
<path opacity="0.3" d="M236.112 115.673H39.2227V116.742H236.112V115.673Z" fill="white"/>
<path opacity="0.3" d="M235.887 127.438C235.833 127.801 235.748 128.154 235.662 128.507H39.3725C39.308 128.153 39.2652 127.796 39.2441 127.438H235.887Z" fill="white"/>
<path d="M343.074 107.755H267.38C267.021 107.754 266.665 107.825 266.333 107.962C266.002 108.098 265.7 108.299 265.446 108.553C265.192 108.807 264.99 109.108 264.853 109.439C264.715 109.771 264.645 110.126 264.645 110.485C264.645 110.844 264.715 111.199 264.853 111.53C264.99 111.862 265.192 112.163 265.446 112.416C265.7 112.67 266.002 112.871 266.333 113.008C266.665 113.145 267.021 113.215 267.38 113.214H343.074C343.798 113.214 344.493 112.927 345.005 112.415C345.517 111.903 345.805 111.209 345.805 110.485C345.805 109.761 345.517 109.066 345.005 108.554C344.493 108.042 343.798 107.755 343.074 107.755V107.755Z" fill="#E6E6E6"/>
<path d="M343.074 149.092H267.38C266.655 149.092 265.961 149.379 265.448 149.891C264.936 150.403 264.648 151.098 264.648 151.822C264.648 152.546 264.936 153.24 265.448 153.752C265.961 154.264 266.655 154.551 267.38 154.551H343.074C343.798 154.551 344.493 154.264 345.005 153.752C345.517 153.24 345.805 152.546 345.805 151.822C345.805 151.098 345.517 150.403 345.005 149.891C344.493 149.379 343.798 149.092 343.074 149.092V149.092Z" fill="#E6E6E6"/>
<path d="M343.074 190.429H267.38C266.655 190.429 265.961 190.716 265.448 191.228C264.936 191.74 264.648 192.435 264.648 193.159C264.648 193.883 264.936 194.577 265.448 195.089C265.961 195.601 266.655 195.888 267.38 195.888H343.074C343.798 195.888 344.493 195.601 345.005 195.089C345.517 194.577 345.805 193.883 345.805 193.159C345.805 192.435 345.517 191.74 345.005 191.228C344.493 190.716 343.798 190.429 343.074 190.429Z" fill="#E6E6E6"/>
<path d="M388.938 117.506C392.705 117.506 395.759 114.454 395.759 110.689C395.759 106.924 392.705 103.872 388.938 103.872C385.171 103.872 382.117 106.924 382.117 110.689C382.117 114.454 385.171 117.506 388.938 117.506Z" fill="#F2F2F2"/>
<path d="M388.007 114.237C387.889 114.237 387.773 114.209 387.667 114.157C387.562 114.104 387.47 114.028 387.4 113.933L385.539 111.454C385.479 111.374 385.435 111.283 385.411 111.187C385.386 111.09 385.38 110.99 385.394 110.891C385.408 110.792 385.442 110.697 385.492 110.612C385.543 110.526 385.61 110.451 385.69 110.391C385.77 110.331 385.861 110.288 385.957 110.263C386.054 110.239 386.154 110.233 386.253 110.247C386.352 110.261 386.447 110.295 386.533 110.346C386.618 110.397 386.693 110.464 386.753 110.544L387.97 112.166L391.097 107.478C391.209 107.311 391.382 107.195 391.58 107.155C391.777 107.116 391.982 107.156 392.149 107.268C392.317 107.38 392.433 107.553 392.472 107.75C392.512 107.947 392.471 108.152 392.36 108.32L388.638 113.899C388.571 114 388.48 114.083 388.374 114.142C388.268 114.201 388.149 114.233 388.028 114.237L388.007 114.237Z" fill="white"/>
<path d="M388.938 158.843C392.705 158.843 395.759 155.791 395.759 152.026C395.759 148.261 392.705 145.209 388.938 145.209C385.171 145.209 382.117 148.261 382.117 152.026C382.117 155.791 385.171 158.843 388.938 158.843Z" fill="#F2F2F2"/>
<path d="M388.007 155.574C387.889 155.574 387.773 155.546 387.667 155.494C387.562 155.441 387.47 155.365 387.4 155.27L385.539 152.791C385.479 152.711 385.435 152.62 385.411 152.524C385.386 152.427 385.38 152.327 385.394 152.228C385.408 152.129 385.442 152.034 385.492 151.949C385.543 151.863 385.61 151.788 385.69 151.728C385.77 151.668 385.861 151.625 385.957 151.6C386.054 151.575 386.154 151.57 386.253 151.584C386.352 151.598 386.447 151.632 386.533 151.683C386.618 151.734 386.693 151.801 386.753 151.881L387.97 153.503L391.097 148.815C391.152 148.732 391.223 148.661 391.306 148.606C391.389 148.55 391.482 148.512 391.58 148.492C391.677 148.473 391.778 148.473 391.876 148.492C391.973 148.511 392.066 148.55 392.149 148.605C392.232 148.66 392.303 148.731 392.359 148.814C392.414 148.897 392.453 148.989 392.472 149.087C392.492 149.185 392.492 149.285 392.473 149.383C392.453 149.481 392.415 149.574 392.36 149.657L388.638 155.236C388.571 155.337 388.48 155.42 388.374 155.479C388.268 155.538 388.149 155.57 388.028 155.573L388.007 155.574Z" fill="white"/>
<path d="M388.938 200.18C392.705 200.18 395.759 197.128 395.759 193.363C395.759 189.598 392.705 186.546 388.938 186.546C385.171 186.546 382.117 189.598 382.117 193.363C382.117 197.128 385.171 200.18 388.938 200.18Z" fill="#F2F2F2"/>
<path d="M343.074 66.418H267.38C266.655 66.418 265.961 66.7056 265.448 67.2175C264.936 67.7295 264.648 68.4238 264.648 69.1478C264.648 69.8718 264.936 70.5661 265.448 71.078C265.961 71.59 266.655 71.8776 267.38 71.8776H343.074C343.798 71.8776 344.493 71.59 345.005 71.078C345.517 70.5661 345.805 69.8718 345.805 69.1478C345.805 68.4238 345.517 67.7295 345.005 67.2175C344.493 66.7056 343.798 66.418 343.074 66.418Z" fill="#E6E6E6"/>
<path d="M388.938 76.1695C392.705 76.1695 395.759 73.1173 395.759 69.3523C395.759 65.5873 392.705 62.5352 388.938 62.5352C385.171 62.5352 382.117 65.5873 382.117 69.3523C382.117 73.1173 385.171 76.1695 388.938 76.1695Z" fill="#00BFA6"/>
<path d="M388.007 72.8999C387.889 72.8999 387.773 72.8725 387.667 72.8198C387.562 72.7671 387.47 72.6907 387.4 72.5965L385.539 70.1167C385.479 70.037 385.435 69.9463 385.411 69.8498C385.386 69.7533 385.38 69.6528 385.394 69.5541C385.408 69.4555 385.442 69.3606 385.492 69.2748C385.543 69.189 385.61 69.1141 385.69 69.0543C385.77 68.9945 385.861 68.951 385.957 68.9263C386.054 68.9016 386.154 68.8962 386.253 68.9104C386.352 68.9245 386.447 68.958 386.533 69.0088C386.618 69.0597 386.693 69.1269 386.753 69.2068L387.97 70.829L391.097 66.1414C391.152 66.0585 391.223 65.9874 391.306 65.9319C391.389 65.8765 391.482 65.838 391.58 65.8184C391.677 65.7989 391.778 65.7988 391.876 65.8181C391.973 65.8375 392.066 65.8758 392.149 65.9311C392.232 65.9863 392.303 66.0573 392.359 66.1401C392.414 66.2228 392.453 66.3157 392.472 66.4133C392.492 66.511 392.492 66.6115 392.473 66.7092C392.453 66.8069 392.415 66.8998 392.36 66.9827L388.638 72.5622C388.571 72.6631 388.48 72.7464 388.374 72.8051C388.268 72.8638 388.149 72.8962 388.028 72.8996L388.007 72.8999Z" fill="white"/>
<path d="M366.309 76.1695C370.076 76.1695 373.13 73.1173 373.13 69.3523C373.13 65.5873 370.076 62.5352 366.309 62.5352C362.542 62.5352 359.488 65.5873 359.488 69.3523C359.488 73.1173 362.542 76.1695 366.309 76.1695Z" fill="#F2F2F2"/>
<path d="M366.309 117.506C370.076 117.506 373.13 114.454 373.13 110.689C373.13 106.924 370.076 103.872 366.309 103.872C362.542 103.872 359.488 106.924 359.488 110.689C359.488 114.454 362.542 117.506 366.309 117.506Z" fill="#F2F2F2"/>
<path d="M366.309 158.843C370.076 158.843 373.13 155.791 373.13 152.026C373.13 148.261 370.076 145.209 366.309 145.209C362.542 145.209 359.488 148.261 359.488 152.026C359.488 155.791 362.542 158.843 366.309 158.843Z" fill="#F2F2F2"/>
<path d="M366.309 200.18C370.076 200.18 373.13 197.128 373.13 193.363C373.13 189.598 370.076 186.546 366.309 186.546C362.542 186.546 359.488 189.598 359.488 193.363C359.488 197.128 362.542 200.18 366.309 200.18Z" fill="#F2F2F2"/>
<path d="M388.008 196.911C387.89 196.911 387.774 196.883 387.669 196.831C387.563 196.778 387.472 196.701 387.401 196.607L385.54 194.127C385.481 194.048 385.437 193.957 385.412 193.861C385.388 193.764 385.382 193.664 385.396 193.565C385.41 193.467 385.444 193.372 385.495 193.286C385.545 193.2 385.612 193.126 385.692 193.066C385.772 193.006 385.863 192.963 385.959 192.938C386.056 192.913 386.156 192.908 386.255 192.922C386.353 192.936 386.448 192.969 386.534 193.02C386.62 193.071 386.695 193.138 386.754 193.217L387.972 194.84L391.098 190.152C391.21 189.985 391.384 189.869 391.581 189.829C391.778 189.79 391.983 189.83 392.151 189.942C392.318 190.053 392.434 190.227 392.474 190.424C392.513 190.621 392.473 190.826 392.361 190.993L388.639 196.573C388.572 196.674 388.482 196.757 388.375 196.816C388.269 196.875 388.151 196.907 388.029 196.91L388.008 196.911Z" fill="white"/>
<path d="M378.174 326.531C378.176 326.57 378.169 326.609 378.154 326.644C378.138 326.68 378.115 326.712 378.085 326.737C378.039 326.772 377.984 326.794 377.926 326.802C377.867 326.814 377.806 326.803 377.756 326.771C377.705 326.739 377.669 326.689 377.655 326.631C376.841 323.896 374.847 321.798 372.96 319.74C371.262 317.895 369.593 315.95 368.738 313.551C368.367 312.598 368.203 311.577 368.256 310.556C368.309 309.535 368.577 308.537 369.044 307.627C369.338 307.083 369.679 306.566 370.064 306.083C370.908 305.01 371.91 304.055 372.813 303.041C372.907 302.935 373.001 302.823 373.09 302.717C373.214 302.581 373.326 302.44 373.432 302.298C374.557 300.908 375.339 299.272 375.714 297.524C376.117 295.392 376.179 293.209 375.897 291.058C375.779 289.914 375.616 288.778 375.408 287.651C375.396 287.598 375.39 287.55 375.378 287.503C374.468 282.666 372.813 277.999 370.471 273.669C370.383 273.51 370.3 273.351 370.212 273.197C369.834 272.514 369.445 271.842 369.032 271.181C369.174 271.081 369.327 270.987 369.481 270.898C370.833 273.087 372.01 275.38 373.001 277.754C374.283 280.8 375.245 283.97 375.874 287.214C375.915 287.391 375.944 287.574 375.974 287.751C376.222 289.112 376.404 290.492 376.516 291.865C376.738 294.02 376.59 296.197 376.08 298.302C375.617 299.972 374.798 301.523 373.68 302.847C373.479 303.1 373.267 303.348 373.043 303.589C372.146 304.568 371.156 305.517 370.348 306.584C369.935 307.12 369.585 307.701 369.304 308.317C368.354 310.439 368.802 312.761 369.852 314.754C371.751 318.379 375.372 320.848 377.301 324.403C377.657 325.058 377.945 325.747 378.162 326.46C378.169 326.483 378.173 326.507 378.174 326.531Z" fill="white"/>
<path d="M375.73 287.813C377.386 287.397 378.84 286.407 379.833 285.018C380.826 283.63 381.292 281.934 381.149 280.233C381.119 279.889 380.583 279.92 380.613 280.264C380.749 281.848 380.314 283.427 379.387 284.718C378.46 286.009 377.102 286.927 375.558 287.305C375.222 287.387 375.397 287.895 375.73 287.813Z" fill="white"/>
<path d="M373.579 302.385C370.568 300.621 368.333 297.787 367.32 294.449C367.22 294.118 366.712 294.29 366.812 294.621C367.872 298.093 370.204 301.037 373.341 302.866C373.64 303.041 373.876 302.558 373.579 302.385V302.385Z" fill="white"/>
<path d="M370.536 273.639C370.512 273.651 370.495 273.656 370.471 273.668C369.409 274.153 368.201 274.21 367.098 273.827C367.146 273.654 367.207 273.485 367.28 273.32C368.238 273.649 369.285 273.605 370.212 273.197C370.265 273.179 370.312 273.155 370.365 273.132C370.432 273.109 370.506 273.113 370.57 273.144C370.634 273.175 370.683 273.23 370.707 273.297C370.726 273.365 370.719 273.438 370.688 273.501C370.656 273.564 370.602 273.613 370.536 273.639V273.639Z" fill="white"/>
<path d="M341.138 183.315C341.654 182.694 342.027 181.968 342.232 181.188C342.436 180.407 342.467 179.592 342.322 178.798C342.177 178.004 341.86 177.252 341.392 176.594C340.925 175.936 340.319 175.389 339.617 174.991L343.178 155.705L333.789 159.678L331.846 177.383C331.255 178.606 331.133 180.003 331.503 181.31C331.873 182.617 332.711 183.743 333.856 184.474C335.001 185.205 336.375 185.491 337.717 185.277C339.059 185.064 340.276 184.366 341.138 183.315V183.315Z" fill="#FFB6B6"/>
<path d="M346.869 126.235L343.885 116.208L322.843 83.3937C321.672 82.0274 320.273 80.8745 318.708 79.9867C315.598 78.2099 311.973 77.5522 308.436 78.1233C304.9 78.6944 301.666 80.4597 299.274 83.1249C296.882 85.7902 295.476 89.1943 295.291 92.77C295.105 96.3457 296.152 99.8769 298.256 102.775C298.689 103.38 299.168 103.952 299.689 104.484L326.941 132.577L328.492 134.181L330.946 140.382L331.913 168.658L332.78 168.864L340.417 170.662L341.485 170.915L343.272 161.679L344.392 157.264C345.345 153.499 345.827 149.63 345.825 145.746C345.825 144.549 345.784 143.347 345.69 142.15L346.869 126.235Z" fill="#1B67A5"/>
<path d="M317.941 321.219H310.634L307.158 293.049L317.943 293.049L317.941 321.219Z" fill="#FFB6B6"/>
<path d="M317.747 318.832L309.95 315.667L309.72 315.572L305.415 318.832C303.052 318.832 300.781 319.743 299.074 321.376C297.368 323.009 296.358 325.238 296.256 327.597C296.244 327.727 296.244 327.862 296.244 327.998V328.298H319.805V318.832H317.747Z" fill="#2F2E41"/>
<path d="M304.025 306.65L297.727 310.354L280.438 287.838L289.732 282.372L304.025 306.65Z" fill="#FFB6B6"/>
<path d="M308.376 310.362L307.521 308.906L304.425 303.648L302.815 304.597L302.65 304.692L294.322 305.918L294.075 305.953L292.022 310.946C290.984 311.556 290.076 312.365 289.35 313.326C288.625 314.287 288.096 315.381 287.794 316.547C287.491 317.712 287.422 318.925 287.589 320.118C287.756 321.31 288.156 322.458 288.767 323.495L288.92 323.749L309.226 311.806L308.376 310.362Z" fill="#2F2E41"/>
<path d="M327.196 149.005C330.622 159.332 330.259 170.542 326.372 182.573L325.358 223.931L322.099 250.02C324.064 255.132 325.072 260.561 325.073 266.037C325.059 280.392 324.093 300.784 319.197 310.364H307.611L304.996 267.703L301.875 246.254L301.49 223.27L301.155 203.223L288.557 221.636L276.315 239.527L288.483 260.04L299.098 293.05L287.893 302.481L275.181 278.394L269.021 271.24L252.203 234.853L253.714 229.786C256.827 219.353 261.347 209.392 267.151 200.178V200.178L283.879 161.375L327.196 149.005Z" fill="#00BFA6"/>
<path d="M328.681 145.558L326.77 141.738L326.941 132.578L327.513 101.608C327.582 97.5968 326.837 93.6131 325.324 89.8972C323.811 86.1813 321.56 82.8102 318.708 79.9872C317.015 78.3016 315.122 76.8306 313.07 75.6075L308.965 73.1554L306.889 67.8857L287.746 68.3514L287.704 73.4619L287.687 75.2598L280.828 86.1882L280.834 86.2353L280.975 106.123L281.258 145.711L283.151 151.847L280.291 158.991L281.813 163.542L283.028 163.347L323.945 156.81C325.805 156.214 327.383 154.961 328.386 153.285C328.588 152.958 328.763 152.615 328.911 152.26C329.357 151.192 329.567 150.04 329.528 148.884C329.488 147.727 329.199 146.592 328.681 145.558Z" fill="#1B67A5"/>
<path d="M295.563 61.3303C305.171 61.3303 312.959 53.5461 312.959 43.9439C312.959 34.3417 305.171 26.5576 295.563 26.5576C285.956 26.5576 278.168 34.3417 278.168 43.9439C278.168 53.5461 285.956 61.3303 295.563 61.3303Z" fill="#FFB6B6"/>
<path d="M306.385 58.3511C308.222 57.0591 310.082 54.5995 311.322 52.7582C312.964 50.3377 314.079 47.5992 314.595 44.7203C315.111 41.8414 315.016 38.8863 314.316 36.0465C314.09 34.9103 313.557 33.8574 312.776 33.0013C312.377 32.5834 311.856 32.3024 311.287 32.1986C310.719 32.0948 310.132 32.1735 309.611 32.4235C309.873 31.6894 309.983 30.9093 309.932 30.1313C309.881 29.3533 309.672 28.5939 309.316 27.9C308.594 26.5147 307.559 25.3166 306.293 24.4007C303.871 22.5894 301.003 21.4672 297.995 21.1533C294.986 20.8395 291.949 21.3455 289.205 22.6178C288.125 23.136 289.856 19.2251 288.724 19.6156C287.6 20.0684 286.344 20.0637 285.224 19.6025C284.147 19.0792 280.646 22.3254 281.04 21.1953C280.234 21.5749 279.536 22.1523 279.013 22.8738C278.49 23.5952 278.158 24.4373 278.048 25.3216C277.938 26.2058 278.054 27.1035 278.385 27.931C278.715 28.7585 279.25 29.4889 279.939 30.0542C280.847 30.7991 281.974 31.2197 282.966 31.8492C284.705 33.0363 285.949 34.8186 286.463 36.8597C286.977 38.9007 286.725 41.0593 285.756 42.9277C286.781 42.2493 287.909 41.7407 289.096 41.4218C289.692 41.2677 290.315 41.258 290.916 41.3936C291.516 41.5291 292.075 41.8059 292.546 42.2009C292.942 42.6409 293.243 43.1571 293.432 43.7177C293.621 44.2783 293.693 44.8716 293.644 45.4611C293.621 46.6413 293.356 47.8075 293.341 48.9879C293.296 52.4515 291.532 59.0598 294.244 60.863C296.383 62.286 303.876 60.1152 306.385 58.3511Z" fill="#2F2E41"/>
<path d="M198.925 86.2337C199.337 86.9277 199.896 87.5231 200.562 87.978C201.229 88.4328 201.987 88.736 202.784 88.8662C203.581 88.9964 204.396 88.9504 205.173 88.7315C205.95 88.5126 206.669 88.1261 207.281 87.5993L224.258 97.4325L223.669 87.2584L207.638 79.4805C206.684 78.5127 205.408 77.9281 204.052 77.8375C202.696 77.747 201.354 78.1568 200.28 78.9892C199.206 79.8216 198.475 81.0189 198.225 82.3541C197.976 83.6893 198.225 85.0697 198.925 86.2337V86.2337Z" fill="#FFB6B6"/>
<path d="M308.557 83.187C307.899 81.1296 306.822 79.2305 305.393 77.6092C303.965 75.9879 302.217 74.6795 300.258 73.766C298.3 72.8526 296.173 72.354 294.013 72.3015C291.852 72.249 289.704 72.6438 287.703 73.461C287.515 73.5377 287.326 73.6202 287.137 73.7027L249.475 90.838L234.814 89.0992L215.835 82.4737L215.352 83.2223L211.088 89.8065L210.492 90.7261L230.851 102.757L233.009 103.205C234.889 103.593 236.673 104.349 238.26 105.428C239.847 106.508 241.205 107.889 242.257 109.494L250.148 112.088L280.974 106.122L298.254 102.774L299.233 102.586C302.194 101.447 304.741 99.4383 306.538 96.8247C308.335 94.2112 309.298 91.115 309.3 87.9438C309.301 86.3293 309.051 84.7244 308.557 83.187V83.187Z" fill="#1B67A5"/>
<path d="M396.195 329H190.966C190.78 329 190.601 328.926 190.469 328.795C190.338 328.663 190.264 328.485 190.264 328.299C190.264 328.112 190.338 327.934 190.469 327.802C190.601 327.671 190.78 327.597 190.966 327.597H396.195C396.381 327.597 396.56 327.671 396.691 327.802C396.823 327.934 396.897 328.112 396.897 328.299C396.897 328.485 396.823 328.663 396.691 328.795C396.56 328.926 396.381 329 396.195 329Z" fill="#CCCCCC"/>
<path d="M175.305 165.008H50.6608C49.9371 165.009 49.2435 165.297 48.7321 165.809C48.2208 166.321 47.9336 167.014 47.9336 167.738C47.9336 168.461 48.2208 169.155 48.7321 169.666C49.2435 170.178 49.9371 170.466 50.6608 170.467H175.305C175.664 170.468 176.02 170.398 176.351 170.261C176.683 170.124 176.985 169.923 177.239 169.669C177.493 169.416 177.694 169.115 177.832 168.783C177.969 168.452 178.04 168.096 178.04 167.738C178.04 167.379 177.969 167.024 177.832 166.692C177.694 166.361 177.493 166.059 177.239 165.806C176.985 165.552 176.683 165.351 176.351 165.214C176.02 165.078 175.664 165.007 175.305 165.008H175.305Z" fill="#E6E6E6"/>
<path d="M221.172 174.759C224.939 174.759 227.993 171.707 227.993 167.942C227.993 164.177 224.939 161.125 221.172 161.125C217.405 161.125 214.352 164.177 214.352 167.942C214.352 171.707 217.405 174.759 221.172 174.759Z" fill="#00BFA6"/>
<path d="M220.241 171.491C220.123 171.491 220.007 171.463 219.901 171.411C219.796 171.358 219.704 171.282 219.634 171.187L217.773 168.707C217.713 168.628 217.67 168.537 217.645 168.441C217.62 168.344 217.615 168.244 217.629 168.145C217.643 168.047 217.676 167.952 217.727 167.866C217.778 167.78 217.845 167.706 217.925 167.646C218.004 167.586 218.095 167.543 218.192 167.518C218.288 167.493 218.388 167.488 218.487 167.502C218.586 167.516 218.681 167.549 218.766 167.6C218.852 167.651 218.927 167.718 218.987 167.798L220.204 169.42L223.331 164.732C223.386 164.649 223.457 164.578 223.54 164.523C223.623 164.467 223.716 164.429 223.813 164.409C223.911 164.39 224.012 164.39 224.109 164.409C224.207 164.428 224.3 164.467 224.383 164.522C224.466 164.577 224.537 164.648 224.593 164.731C224.648 164.814 224.687 164.906 224.706 165.004C224.726 165.102 224.726 165.202 224.707 165.3C224.687 165.398 224.649 165.491 224.593 165.574L220.872 171.153C220.805 171.254 220.714 171.337 220.608 171.396C220.502 171.455 220.383 171.487 220.262 171.49L220.241 171.491Z" fill="white"/>
<path d="M198.541 174.759C202.308 174.759 205.362 171.707 205.362 167.942C205.362 164.177 202.308 161.125 198.541 161.125C194.774 161.125 191.721 164.177 191.721 167.942C191.721 171.707 194.774 174.759 198.541 174.759Z" fill="#F2F2F2"/>
<path d="M174.717 198.018H50.0729C49.3492 198.019 48.6556 198.307 48.1443 198.819C47.6329 199.33 47.3457 200.024 47.3457 200.747C47.3457 201.471 47.6329 202.164 48.1443 202.676C48.6556 203.188 49.3492 203.476 50.0729 203.477H174.717C175.441 203.477 176.136 203.19 176.648 202.678C177.161 202.166 177.448 201.471 177.448 200.747C177.448 200.023 177.161 199.329 176.648 198.817C176.136 198.305 175.441 198.018 174.717 198.018H174.717Z" fill="#E6E6E6"/>
<path d="M220.582 207.769C224.349 207.769 227.403 204.717 227.403 200.952C227.403 197.187 224.349 194.135 220.582 194.135C216.815 194.135 213.762 197.187 213.762 200.952C213.762 204.717 216.815 207.769 220.582 207.769Z" fill="#F2F2F2"/>
<path d="M219.651 204.5C219.533 204.5 219.417 204.472 219.311 204.419C219.206 204.367 219.114 204.29 219.044 204.196L217.183 201.716C217.062 201.555 217.01 201.353 217.039 201.154C217.067 200.955 217.174 200.775 217.335 200.655C217.496 200.534 217.698 200.482 217.897 200.511C218.096 200.539 218.276 200.645 218.397 200.806L219.614 202.429L222.741 197.741C222.796 197.658 222.867 197.587 222.95 197.532C223.033 197.476 223.126 197.438 223.224 197.418C223.321 197.399 223.422 197.398 223.52 197.418C223.617 197.437 223.71 197.475 223.793 197.531C223.876 197.586 223.947 197.657 224.003 197.74C224.058 197.822 224.097 197.915 224.116 198.013C224.136 198.111 224.136 198.211 224.117 198.309C224.097 198.407 224.059 198.499 224.004 198.582L220.282 204.162C220.215 204.263 220.124 204.346 220.018 204.405C219.912 204.463 219.793 204.496 219.672 204.499L219.651 204.5Z" fill="white"/>
<path d="M197.952 207.768C201.719 207.768 204.772 204.716 204.772 200.951C204.772 197.186 201.719 194.134 197.952 194.134C194.185 194.134 191.131 197.186 191.131 200.951C191.131 204.716 194.185 207.768 197.952 207.768Z" fill="#F2F2F2"/>
<g clip-path="url(#clip0_268_2337)">
<path d="M64.0281 49.317C64.0281 47.7561 65.2844 46.4998 66.8313 46.4998C68.2375 46.4998 69.3859 47.5264 69.6062 48.8529C71.1344 48.4967 72.7516 48.8811 74.1297 50.2592L72.0531 52.3357C71.0922 51.3748 70.0563 51.5717 69.4563 52.1717C68.7859 52.842 68.7859 53.9482 69.4563 54.6186L74.1203 59.2826L72.0578 61.3592C67.9469 57.2717 69.7281 59.0295 67.3797 56.6857C66.1234 55.4436 65.7391 53.6482 66.2172 52.0498C64.9562 51.7779 64.0281 50.6576 64.0281 49.317ZM70.0984 54.7732L72.175 56.8498C72.6437 56.3811 76.3797 52.6451 76.8484 52.1717C77.5188 51.5014 78.6109 51.5014 79.2812 52.1717C79.8813 52.7717 80.0781 53.8123 79.1172 54.7686L81.1797 56.8451C82.6422 55.3826 82.9844 53.6764 82.5344 52.1014C83.9031 51.9092 84.9672 50.7326 84.9672 49.3123C84.9672 47.7561 83.7109 46.4951 82.1641 46.4951C80.7438 46.4951 79.5672 47.5498 79.375 48.9139C77.7906 48.4498 76.0141 48.8436 74.7672 50.0904C73.9094 50.9857 71.4344 53.442 70.0984 54.7732V54.7732ZM82.5812 61.9076C82.9656 60.3748 82.5391 58.6967 81.3484 57.5061C80.7953 56.9342 81.5828 57.7264 76.6844 52.8326L74.6078 54.9092L79.2812 59.5826C79.9516 60.2529 79.9516 61.3451 79.2812 62.0154C78.6812 62.6154 77.6406 62.8123 76.6844 61.8514L74.6219 63.9279C75.9156 65.3436 77.8094 65.7467 79.4359 65.2404C79.6937 66.5248 80.8281 67.4951 82.1969 67.4951C83.7438 67.4951 85 66.2389 85 64.6779C85 63.2623 83.9453 62.0998 82.5812 61.9076V61.9076ZM78.6297 59.4186L76.5672 57.342C72.4891 61.392 74.2047 59.7045 71.8937 62.0201C71.2234 62.6904 70.1313 62.6904 69.4609 62.0201C68.8469 61.392 68.6687 60.3654 69.6109 59.4232L67.5484 57.3467C66.1328 58.7623 65.7672 60.4029 66.1656 61.9545C64.9141 62.2357 64 63.3561 64 64.6826C64 66.2436 65.2562 67.4998 66.8031 67.4998C68.1437 67.4998 69.2641 66.5717 69.55 65.3107C71.0828 65.6951 72.7609 65.2826 73.9656 64.092C75.4703 62.592 74.5375 63.5107 78.6297 59.4186V59.4186Z" fill="white"/>
</g>
<path d="M126.141 93.7172L124.603 98.2031H124.598L123.408 101.63C123.492 101.653 123.572 101.672 123.656 101.695H123.67C124.427 101.897 125.207 102 125.991 102C126.381 102.003 126.772 101.975 127.158 101.916C127.675 101.851 128.185 101.739 128.681 101.583C128.803 101.545 128.925 101.503 129.047 101.461C128.916 101.18 128.634 100.556 128.62 100.528L126.141 93.7172ZM117.788 89.4609C117.319 90.5203 117 91.8234 117 93C117 93.2953 117.014 93.5906 117.042 93.8812C117.366 97.2187 119.522 100.022 122.484 101.283C122.606 101.334 122.733 101.386 122.859 101.433L118.5 89.4656C118.125 89.4516 118.055 89.475 117.788 89.4609Z" fill="white"/>
<path d="M134.166 89.2219C133.964 88.7877 133.727 88.3707 133.458 87.975C133.383 87.8625 133.298 87.75 133.219 87.6375C132.203 86.2743 130.824 85.2248 129.239 84.6094C128.205 84.2051 127.105 83.9984 125.995 84C124.651 84 123.324 84.3021 122.111 84.8838C120.899 85.4655 119.833 86.3121 118.992 87.3609C118.687 87.7387 118.413 88.1399 118.172 88.5609C118.837 88.5656 119.663 88.5656 119.756 88.5656C120.605 88.5656 121.913 88.4625 121.913 88.4625C122.353 88.4344 122.4 89.0766 121.964 89.1281C121.964 89.1281 121.523 89.1797 121.036 89.2031L123.984 97.9688L125.756 92.6578L124.5 89.2078C124.059 89.1844 123.652 89.1328 123.652 89.1328C123.211 89.1094 123.267 88.4391 123.698 88.4672C123.698 88.4672 125.034 88.5703 125.831 88.5703C126.68 88.5703 127.987 88.4672 127.987 88.4672C128.423 88.4391 128.48 89.0813 128.039 89.1328C128.039 89.1328 127.603 89.1844 127.116 89.2078L130.036 97.9078L130.847 95.2078C131.255 94.1578 131.461 93.2906 131.461 92.5969C131.461 91.5984 131.1 90.9047 130.791 90.3656C130.383 89.6953 129.998 89.1328 129.998 88.4719C129.998 87.7266 130.561 87.0328 131.358 87.0328H131.461C132.689 87 133.092 88.2188 133.144 89.0484V89.0766C133.162 89.4141 133.148 89.6625 133.148 89.9578C133.148 90.7734 132.994 91.6969 132.534 92.8547L130.706 98.1422L129.661 101.222C129.745 101.184 129.825 101.147 129.909 101.105C132.567 99.8203 134.503 97.2609 134.911 94.2281C134.971 93.8247 135.001 93.4173 135 93.0094C135.002 91.7011 134.717 90.4083 134.166 89.2219V89.2219Z" fill="white"/>
<path d="M126 83.25C128.249 83.2512 130.429 84.0299 132.17 85.4542C133.911 86.8785 135.107 88.8609 135.553 91.0656C136 93.2702 135.671 95.5615 134.622 97.5513C133.573 99.5412 131.868 101.107 129.797 101.984C127.414 102.991 124.729 103.01 122.332 102.037C119.935 101.065 118.023 99.1796 117.016 96.7969C116.009 94.4142 115.99 91.729 116.963 89.3321C117.935 86.9352 119.82 85.0229 122.203 84.0159C123.404 83.5077 124.696 83.2472 126 83.25M126 82.5C120.201 82.5 115.5 87.2011 115.5 93C115.5 98.7989 120.201 103.5 126 103.5C131.799 103.5 136.5 98.7989 136.5 93C136.5 87.2011 131.799 82.5 126 82.5Z" fill="white"/>
<path d="M190 65C182.149 65 176 68.5138 176 73C176 77.4862 182.149 81 190 81C197.85 81 204 77.4862 204 73C204 68.5138 197.85 65 190 65ZM188.546 67.4615H190.075L189.589 69.9231H190.954C191.82 69.9231 192.401 70.0511 192.732 70.3698C193.055 70.6849 193.153 71.2018 193.024 71.9058L192.417 74.8462H190.863L191.422 72.1274C191.49 71.7545 191.463 71.4948 191.344 71.3582C191.226 71.2215 190.966 71.1538 190.576 71.1538H189.352L188.614 74.8462H187.083L188.546 67.4615V67.4615ZM181.833 69.9231H184.944C186.426 69.9231 187.325 70.9717 186.974 72.536C186.565 74.3538 185.473 74.8462 183.462 74.8462H182.501L182.196 76.6923H180.65L181.833 69.9231ZM194.083 69.9231H197.194C198.676 69.9231 199.575 70.9717 199.224 72.536C198.815 74.3538 197.722 74.8462 195.712 74.8462H194.751L194.446 76.6923H192.9L194.083 69.9231ZM183.158 71.1538L182.718 73.6154H183.715C184.578 73.6154 185.381 73.512 185.515 72.1532C185.565 71.6277 185.358 71.1538 184.36 71.1538H183.158ZM195.407 71.1538L194.968 73.6154H195.965C196.829 73.6154 197.631 73.512 197.765 72.1532C197.815 71.6277 197.609 71.1538 196.61 71.1538H195.407V71.1538Z" fill="white"/>
<defs>
<clipPath id="clip0_268_2337">
<rect width="21" height="24" fill="white" transform="translate(64 45)"/>
</clipPath>
</defs>
</svg>
