<svg width="476" height="366" viewBox="0 0 476 366" fill="none" xmlns="http://www.w3.org/2000/svg">
<path d="M0 364.852C0 365.325 0.379156 365.704 0.851307 365.704H374.47C374.943 365.704 375.322 365.325 375.322 364.852C375.322 364.38 374.943 364 374.47 364H0.851307C0.379156 364 0 364.38 0 364.852Z" fill="#CCCCCC"/>
<g clip-path="url(#clip0_269_2574)">
<path d="M454.374 30.8135H216.944C208.235 30.8135 201.152 37.8993 201.152 46.6132V209.396C201.152 218.11 208.235 225.196 216.944 225.196H454.374C463.084 225.196 470.166 218.11 470.166 209.396V46.6132C470.166 37.8993 463.084 30.8135 454.374 30.8135V30.8135Z" fill="#F2F2F2"/>
<path d="M428.616 43.3521H191.187C182.477 43.3521 175.395 50.4378 175.395 59.1518V221.935C175.395 230.649 182.477 237.734 191.187 237.734H428.616C437.326 237.734 444.409 230.649 444.409 221.935V59.1518C444.409 50.4378 437.326 43.3521 428.616 43.3521ZM442.748 174.023C442.748 208.292 414.981 236.073 380.728 236.073H191.187C183.382 236.073 177.055 229.743 177.055 221.935V59.1518C177.055 51.3434 183.382 45.0134 191.187 45.0134H428.616C436.421 45.0134 442.748 51.3434 442.748 59.1519V174.023Z" fill="#3F3D56"/>
<path d="M209.308 202.457L207.902 201.572C208.816 200.119 209.758 198.712 210.703 197.387L212.055 198.353C211.128 199.651 210.204 201.031 209.308 202.457H209.308Z" fill="#CCCCCC"/>
<path d="M218.464 190.617L217.275 189.457C219.809 186.859 222.476 184.629 225.201 182.828L226.117 184.214C223.49 185.95 220.915 188.104 218.464 190.617V190.617ZM259.892 180.13C257.909 180.13 256.102 179.876 254.75 179.655L255.018 178.016C256.389 178.24 258.039 178.469 259.892 178.469C261.528 178.469 263.136 178.289 264.808 177.919L265.167 179.541C263.376 179.938 261.65 180.13 259.892 180.13V180.13ZM235.044 179.911L234.545 178.326C236.329 177.763 238.177 177.341 240.037 177.072C241.635 176.84 243.162 176.728 244.707 176.728H244.809V178.389H244.707C243.243 178.389 241.793 178.496 240.275 178.716C238.503 178.973 236.743 179.375 235.044 179.911H235.044ZM274.625 175.109L273.564 173.832C275.855 171.927 277.498 169.625 279.237 167.186L279.931 166.217L281.278 167.188L280.589 168.151C278.785 170.68 277.082 173.068 274.625 175.109V175.109ZM287.943 159.876L286.921 158.566C289.159 156.819 291.688 155.403 294.652 154.237C295.156 154.039 295.639 153.861 296.102 153.704L296.638 155.276C296.198 155.426 295.739 155.594 295.259 155.783C292.446 156.89 290.053 158.228 287.943 159.876V159.876ZM307.99 154.105C307.431 154.105 306.901 154.1 306.392 154.095L306.412 152.433C306.932 152.439 307.475 152.44 308.05 152.444C310.004 152.444 312.726 152.389 316.459 151.956L316.65 153.606C312.794 154.053 310.03 154.1 307.99 154.105V154.105ZM326.752 151.93L326.422 150.302C329.405 149.698 332.875 148.98 336.31 148.093L336.725 149.702C333.251 150.599 329.755 151.322 326.752 151.93ZM346.507 146.552L345.886 145.011C349.215 143.668 352.106 142.154 354.725 140.38L355.655 141.756C352.939 143.596 349.946 145.165 346.507 146.552V146.552ZM363.285 134.681L361.937 133.71C362.401 133.066 362.801 132.439 363.188 131.832C364.332 130.041 365.514 128.188 368.33 125.915L368.527 125.757L369.556 127.06L369.373 127.207C366.768 129.311 365.709 130.97 364.588 132.726C364.189 133.352 363.775 134 363.285 134.681V134.681ZM378.182 122.22L377.576 120.673C380.536 119.512 383.878 118.578 387.511 117.896L387.818 119.529C384.287 120.192 381.045 121.098 378.182 122.22V122.22Z" fill="#CCCCCC"/>
<path d="M397.967 118.31L397.863 116.651C399.477 116.55 401.164 116.484 402.877 116.453L402.907 118.115C401.218 118.145 399.556 118.21 397.967 118.31V118.31Z" fill="#CCCCCC"/>
<path d="M227.826 61.3545H204.528C203.357 61.3545 202.402 62.3098 202.402 63.4811C202.402 64.6606 203.357 65.616 204.528 65.616H227.826C228.997 65.616 229.951 64.6606 229.951 63.4811C229.951 62.3098 228.997 61.3545 227.826 61.3545V61.3545Z" fill="#E6E6E6"/>
<path d="M266.849 61.3545H243.551C242.381 61.3545 241.426 62.3098 241.426 63.4811C241.426 64.6606 242.381 65.616 243.551 65.616H266.849C268.02 65.616 268.975 64.6606 268.975 63.4811C268.975 62.3098 268.02 61.3545 266.849 61.3545Z" fill="#E6E6E6"/>
<path d="M305.873 61.3545H282.575C281.404 61.3545 280.449 62.3098 280.449 63.4811C280.449 64.6606 281.404 65.616 282.575 65.616H305.873C307.043 65.616 307.998 64.6606 307.998 63.4811C307.998 62.3098 307.043 61.3545 305.873 61.3545Z" fill="#E6E6E6"/>
<path d="M414.103 201.184H202.379V202.845H414.103V201.184Z" fill="#E6E6E6"/>
<path d="M402.919 79.9026C387.849 80.293 376.607 84.7289 369.483 93.0691C366.851 96.1593 365.78 98.5932 364.651 101.168C363.53 103.71 362.384 106.327 359.719 109.741V106.917C361.371 104.491 362.259 102.464 363.131 100.495C364.31 97.804 365.431 95.2621 368.221 91.9975C375.66 83.2752 387.318 78.6482 402.869 78.2412L402.919 79.9026V79.9026Z" fill="#CCCCCC"/>
<path d="M364.652 101.168C363.532 103.71 362.386 106.327 359.72 109.741C359.405 110.148 359.065 110.572 358.699 111.012C349.084 122.451 336.24 126.205 325.911 129.229C325.263 129.42 324.632 129.595 324.018 129.761C314.835 132.253 309.803 132.161 306.059 132.103C302.298 132.037 299.815 131.995 295.373 134.537C287.228 139.181 283.89 145.976 280.66 152.547C277.331 159.308 274.192 165.697 266.188 168.695C260.634 170.772 256.731 169.742 252.605 168.662C249.059 167.723 242.67 144.619 237.012 141.249C225.33 143.7 218.231 181.895 209.371 202.347L207.844 201.682C216.935 180.715 224.425 142.196 236.663 139.621C242.118 138.475 249.3 166.07 253.028 167.051C256.897 168.072 260.542 169.028 265.607 167.134C272.997 164.376 275.853 158.553 279.166 151.816C282.354 145.336 285.966 137.993 294.543 133.092C299.383 130.326 302.198 130.375 306.084 130.442C309.787 130.508 314.785 130.591 324.018 128.041C324.483 127.908 324.956 127.775 325.446 127.634C335.559 124.677 348.138 120.997 357.421 109.949C358.334 108.86 359.089 107.855 359.72 106.917C361.373 104.491 362.261 102.464 363.133 100.495C364.312 97.8039 365.782 98.5931 364.652 101.168V101.168Z" fill="#00BFA6"/>
<path d="M138.603 291.214C137.946 288.925 136.821 286.972 135.481 285.578L130.612 263.374L120 265.975L126.081 288.219C125.681 290.101 125.761 292.348 126.419 294.638C127.92 299.869 131.865 303.343 135.23 302.397C138.594 301.452 140.105 296.445 138.603 291.214L138.603 291.214Z" fill="#FFB6B6"/>
<path d="M135.715 145.425C135.715 145.425 118.956 145.081 114.695 157.292C110.816 168.405 106.218 198.939 108.704 200.703L119.284 275.869L134.371 273.795L130.499 183.607L135.715 145.425V145.425Z" fill="#00BFA6"/>
<path d="M213.322 284.949L210.35 363.865H170.911L169.317 328.502L162.309 363.865H120.039L125.311 303.074L130.758 290.29L134.445 281.626L213.322 284.949Z" fill="#1B67A5"/>
<path d="M181.768 130.44L154.369 128.778L145.236 140.408L125.309 147.884L134.442 236.769L130.29 289.933C130.29 289.933 188.411 336.452 213.319 284.949L206.677 222.647L208.338 150.376L189.241 142.069L181.768 130.44Z" fill="#00BFA6"/>
<path d="M234.516 110.222C234.814 113.102 234.436 115.81 233.567 117.982L238.131 145.238L225.104 147.032L221.877 119.19C220.582 117.242 219.659 114.668 219.362 111.788C218.683 105.209 221.525 99.5245 225.71 99.0921C229.894 98.6597 233.837 103.643 234.516 110.222V110.222H234.516Z" fill="#FFB6B6"/>
<path d="M211.827 153.498C207.337 145.818 196.197 145.094 191.207 152.459C189.843 154.473 190.223 156.736 189.898 159.455C188.515 170.999 210.625 205.11 225.924 209.037C227.932 209.553 229.075 211.719 231.102 212.155H231.102C237.104 213.446 242.693 208.679 242.369 202.545L238.214 123.872L220.755 129.829L221.872 170.675L211.827 153.498L211.827 153.498Z" fill="#00BFA6"/>
<path d="M170.912 126.629C184.241 126.629 195.047 115.818 195.047 102.482C195.047 89.1466 184.241 78.3359 170.912 78.3359C157.583 78.3359 146.777 89.1466 146.777 102.482C146.777 115.818 157.583 126.629 170.912 126.629Z" fill="#FFB6B6"/>
<path d="M193.394 84.7518C193.186 84.8017 196.571 81.5011 196.715 81.429C200.036 79.7676 196.624 96.0077 194.224 95.5508C188.321 94.4293 185.772 92.2031 183.48 97.7604C182.841 99.3055 182.442 101.05 181.197 102.155C179.487 103.658 176.647 103.534 175.252 105.328C174.131 106.773 174.455 108.9 175.285 110.528C176.116 112.165 177.378 113.552 178.133 115.222C178.98 117.099 175.368 123.072 173.99 126.428V126.436L173.982 126.456C173.616 127.336 172.745 124.8 171.826 124.547C170.727 124.244 169.107 126.842 167.356 126.37C167.348 126.37 167.339 126.361 167.331 126.361C165.662 125.896 163.802 125.398 161.959 124.899H161.951C156.762 123.487 155.45 125.514 155.201 125.456L151.979 122.083C150.873 121.278 150.998 118.678 150.219 117.98C149.581 117.408 147.992 118.728 147.523 118.179C145.226 115.488 144.698 112.795 143.344 107.48C142.107 102.62 139.541 88.0745 144.814 87.4183C149.787 86.7952 146.15 79.8673 151.157 80.1248C150.858 78.8621 151.414 77.5081 152.319 76.5777C153.216 75.639 154.412 75.0575 155.616 74.5591C161.552 72.1335 160.564 70.0485 166.825 71.4607C167.447 70.5885 176.489 71.1699 177.618 71.4607C177.701 71.4773 174.82 72.1668 179.279 71.4607C179.113 72.4825 181.936 72.931 181.77 73.9528C182.393 73.1137 189.085 77.9318 189.242 78.9369C189.45 80.1913 187.557 79.5516 188.819 79.7427C189.566 79.859 190.845 81.3792 190.72 82.1351C191.26 81.4041 191.8 80.6814 192.348 79.9503C192.447 79.9587 192.539 79.9753 192.638 79.9919C195.162 80.4737 192.269 88.7291 192.373 86.1556C192.564 81.429 195.91 84.1952 193.394 84.7518V84.7518Z" fill="#2F2E41"/>
<path d="M424.78 213.405C424.966 213.863 425.607 213.863 425.793 213.404C427.09 210.207 428.935 206.626 430.943 203.889C431.265 203.451 430.821 202.865 430.311 203.05L426.007 204.608V177.954H424.566V204.608L420.261 203.05C419.75 202.865 419.307 203.451 419.629 203.889C421.636 206.626 423.482 210.207 424.78 213.405V213.405Z" fill="#3F3D56"/>
<path d="M453.004 240.849C452.865 241.323 453.368 241.723 453.798 241.479C456.801 239.782 460.472 238.126 463.746 237.232C464.27 237.089 464.287 236.355 463.772 236.182L459.433 234.724L476.001 213.851L474.873 212.955L458.305 233.828L455.902 229.929C455.617 229.466 454.906 229.649 454.885 230.192C454.756 233.584 453.976 237.537 453.004 240.849V240.849Z" fill="#3F3D56"/>
<path d="M439.525 258.636H411.527C409.788 258.636 408.374 257.221 408.374 255.482C404.672 244.656 404.745 234.049 408.374 223.647C408.374 221.908 409.788 220.493 411.527 220.493H439.525C441.264 220.493 442.678 221.908 442.678 223.647V255.482C442.678 257.221 441.264 258.636 439.525 258.636Z" fill="#E6E6E6"/>
<path d="M417.525 221.433C412.989 221.433 409.312 225.111 409.312 229.649V254.806C409.312 256.402 410.606 257.696 412.201 257.696H427.684C435.446 257.696 441.738 251.401 441.738 243.636V224.322C441.738 222.726 440.444 221.433 438.849 221.433H417.525V221.433Z" fill="white"/>
<path d="M432.048 230.684H418.939C418.609 230.684 418.34 230.415 418.34 230.084C418.34 229.753 418.609 229.484 418.939 229.484H432.048C432.378 229.484 432.647 229.753 432.647 230.084C432.647 230.415 432.378 230.684 432.048 230.684Z" fill="#E6E6E6"/>
<path d="M432.048 243.47H418.939C418.609 243.47 418.34 243.201 418.34 242.871C418.34 242.54 418.609 242.271 418.939 242.271H432.048C432.378 242.271 432.647 242.54 432.647 242.871C432.647 243.201 432.378 243.47 432.048 243.47Z" fill="#E6E6E6"/>
<path d="M439.081 237.081H411.904C411.574 237.081 411.305 236.812 411.305 236.481C411.305 236.151 411.574 235.882 411.904 235.882H439.081C439.412 235.882 439.68 236.151 439.68 236.481C439.68 236.812 439.411 237.081 439.081 237.081Z" fill="#E6E6E6"/>
<path d="M439.4 248.669H428.06C427.73 248.669 427.461 248.4 427.461 248.07C427.461 247.739 427.73 247.47 428.06 247.47H439.4C439.731 247.47 440 247.739 440 248.07C440 248.4 439.731 248.669 439.4 248.669Z" fill="#E6E6E6"/>
<path d="M185.348 20.5367C191.063 20.5367 195.696 15.9991 195.696 10.4016C195.696 4.80421 191.063 0.266602 185.348 0.266602C179.633 0.266602 175 4.80421 175 10.4016C175 15.9991 179.633 20.5367 185.348 20.5367Z" fill="#00BFA6"/>
<path d="M268.306 6.9345H212.606C210.695 6.9345 209.141 5.37903 209.141 3.46725C209.141 1.55547 210.695 0 212.606 0H268.306C270.217 0 271.772 1.55547 271.772 3.46725C271.772 5.37903 270.217 6.9345 268.306 6.9345Z" fill="#F2F2F2"/>
<path d="M311.775 18.6699H212.606C210.695 18.6699 209.141 17.1144 209.141 15.2026C209.141 13.2908 210.695 11.7354 212.606 11.7354H311.775C313.685 11.7354 315.24 13.2908 315.24 15.2026C315.24 17.1144 313.686 18.6699 311.775 18.6699V18.6699Z" fill="#F2F2F2"/>
</g>
<defs>
<clipPath id="clip0_269_2574">
<rect width="378" height="364" fill="white" transform="translate(98)"/>
</clipPath>
</defs>
</svg>
