<svg width="586" height="498" viewBox="0 0 586 498" fill="none" xmlns="http://www.w3.org/2000/svg">
<g clip-path="url(#clip0_268_2206)">
<path d="M515.195 479.474C521.603 491.915 535.606 497.473 535.606 497.473C535.606 497.473 539.22 482.86 532.813 470.419C526.405 457.978 512.402 452.42 512.402 452.42C512.402 452.42 508.788 467.033 515.195 479.474Z" fill="#F1F1F1"/>
<path d="M519.841 475.51C531.7 482.954 536.043 497.367 536.043 497.367C536.043 497.367 521.159 499.712 509.3 492.269C497.441 484.825 493.098 470.412 493.098 470.412C493.098 470.412 507.982 468.067 519.841 475.51Z" fill="#F1F1F1"/>
<path d="M353.196 488.86H344.88L340.924 456.815L353.198 456.816L353.196 488.86Z" fill="#FFB7B7"/>
<path d="M355.317 496.913L328.502 496.912V496.573C328.502 493.808 329.602 491.156 331.559 489.2C333.517 487.245 336.171 486.147 338.939 486.146H338.94L355.318 486.147L355.317 496.913Z" fill="#2F2E41"/>
<path d="M404.751 488.86H396.435L392.479 456.815L404.753 456.816L404.751 488.86Z" fill="#FFB7B7"/>
<path d="M406.872 496.913L380.057 496.912V496.573C380.057 493.808 381.157 491.156 383.114 489.2C385.071 487.245 387.726 486.147 390.494 486.146H390.495L406.873 486.147L406.872 496.913Z" fill="#2F2E41"/>
<path d="M380.602 308.366L364.239 275.472L368.453 248.189L348.781 242.768L346.746 279.36L372.257 313.993C372.074 315.29 372.271 316.612 372.825 317.8C373.378 318.987 374.265 319.989 375.377 320.683C376.489 321.378 377.779 321.735 379.09 321.712C380.401 321.689 381.677 321.287 382.764 320.554C383.851 319.821 384.702 318.789 385.214 317.582C385.725 316.376 385.876 315.048 385.647 313.758C385.418 312.468 384.82 311.272 383.924 310.315C383.029 309.358 381.875 308.681 380.602 308.366V308.366Z" fill="#FFB7B7"/>
<path d="M415.999 308.366L432.362 275.472L428.147 248.189L447.819 242.768L449.854 279.36L424.343 313.993C424.527 315.29 424.33 316.612 423.776 317.8C423.222 318.987 422.336 319.989 421.224 320.683C420.112 321.378 418.822 321.735 417.511 321.712C416.2 321.689 414.923 321.287 413.836 320.554C412.749 319.821 411.899 318.789 411.387 317.582C410.875 316.376 410.725 315.048 410.954 313.758C411.183 312.468 411.781 311.272 412.676 310.315C413.572 309.358 414.726 308.681 415.999 308.366V308.366Z" fill="#FFB7B7"/>
<path d="M405.079 195.948C414.963 195.948 422.975 187.943 422.975 178.07C422.975 168.196 414.963 160.191 405.079 160.191C395.194 160.191 387.182 168.196 387.182 178.07C387.182 187.943 395.194 195.948 405.079 195.948Z" fill="#FFB9B9"/>
<path d="M387.317 177.974C387.317 177.974 385.375 175.064 386.122 171.931C386.568 170.152 386.745 168.316 386.645 166.485C387.48 163.77 388.529 161.126 389.782 158.577C391.35 155.742 390.603 154.548 395.532 153.653C400.461 152.757 398.445 146.341 411.44 153.28C411.878 153.891 412.488 154.359 413.193 154.625C413.897 154.89 414.664 154.941 415.398 154.772C418.087 154.249 419.058 157.98 419.058 157.98C419.058 157.98 420.85 156.935 421.522 158.427C422.194 159.919 426.987 157.532 426.987 167.604C426.987 177.675 421.533 186.672 421.533 186.672C421.533 186.672 417.703 198.743 408.816 197.027C399.928 195.311 398.641 196.35 392.535 184.83C391.286 188.431 389.367 174.76 387.317 177.974Z" fill="#2F2E41"/>
<path d="M365.74 293.59L363.665 301.718C363.665 301.718 353.891 306.436 349.979 348.802L344.711 412.328L336.67 478.903L353.385 480.198L364.976 438.02L390.016 349.334L394.764 416.426L389.482 477.229L407.119 477.907L419.329 410.143C419.329 410.143 438.034 310.887 425.968 307.998L424.756 297.656L365.74 293.59Z" fill="#1B67A5"/>
<path d="M361.871 217.195L390.663 201.346L415.098 202.648L444.285 219.906L432.12 295.796C432.12 295.796 439.093 303.584 418.019 301.298C396.945 299.011 362.883 297.156 362.883 297.156C362.883 297.156 360.144 291.726 365.995 290.964C371.846 290.202 366.953 290.38 366.953 290.38C366.953 290.38 363.417 279.038 366.953 276.827L368.664 253.534L361.871 217.195Z" fill="#00BFA6"/>
<path d="M369.811 218.372L361.871 217.195L345.051 247.172L372.38 259.208L369.811 218.372Z" fill="#00BFA6"/>
<path d="M434.932 223.794L444.285 219.906L453.586 262.08L428.344 266.856L434.932 223.794Z" fill="#00BFA6"/>
<path d="M219.003 498H585.25C585.449 498 585.639 497.921 585.78 497.781C585.92 497.641 585.999 497.451 585.999 497.252C585.999 497.054 585.92 496.863 585.78 496.723C585.639 496.583 585.449 496.504 585.25 496.504H219.003C218.804 496.504 218.614 496.583 218.473 496.723C218.333 496.863 218.254 497.054 218.254 497.252C218.254 497.451 218.333 497.641 218.473 497.781C218.614 497.921 218.804 498 219.003 498Z" fill="#CBCBCB"/>
<path d="M179.754 297.485H84.6348V345.369H179.754V297.485Z" fill="white"/>
<path d="M168.516 309.742H95.873V312.202H168.516V309.742Z" fill="#00BFA6"/>
<path d="M168.516 320.197H95.873V322.657H168.516V320.197Z" fill="#00BFA6"/>
<path d="M168.516 330.651H95.873V333.111H168.516V330.651Z" fill="#00BFA6"/>
<path d="M180.502 346.118H83.8848V296.737H180.502V346.118ZM85.3827 344.621H179.004V298.234H85.3827V344.621Z" fill="#3F3D56"/>
<path d="M111.399 238.01C91.2618 238.027 71.5192 232.428 54.3939 221.844L53.959 221.575L54.228 221.14L111.114 129.171H219.84V129.682C219.84 189.415 171.194 238.01 111.399 238.01Z" fill="#00BFA6"/>
<path d="M41.6429 198.96L41.2934 198.744C22.1003 186.889 8.26384 168.054 2.70008 146.207C-2.86368 124.361 0.279809 101.21 11.4681 81.6341L11.6721 81.2783L87.6183 124.631L41.6429 198.96Z" fill="#F1F1F1"/>
<path d="M219.842 114.661H110.764L134.278 8.24414L134.778 8.35377C158.895 13.6788 180.472 27.0667 195.939 46.3038C211.407 65.541 219.839 89.4753 219.842 114.149V114.661Z" fill="#00BFA6"/>
<path d="M93.3892 97.9009L19.4824 55.7126L19.6811 55.3662C28.6411 39.7306 42.365 27.3617 58.8533 20.0617C75.3415 12.7617 93.7325 10.912 111.347 14.7821L111.737 14.8678L93.3892 97.9009Z" fill="#F1F1F1"/>
<path d="M369.994 0.748047H274.875V48.6322H369.994V0.748047Z" fill="white"/>
<path d="M358.756 13.0059H286.113V15.4658H358.756V13.0059Z" fill="#00BFA6"/>
<path d="M358.756 23.46H286.113V25.9199H358.756V23.46Z" fill="#00BFA6"/>
<path d="M358.756 33.915H286.113V36.3749H358.756V33.915Z" fill="#00BFA6"/>
<path d="M370.744 49.3805H274.127V0H370.744V49.3805ZM275.625 47.8842H369.246V1.49638H275.625V47.8842Z" fill="#3F3D56"/>
<path d="M133.146 173.557H131.648V296.737H133.146V173.557Z" fill="#3F3D56"/>
<path d="M274.506 24.7456L162.055 75.5547L162.672 76.9181L275.123 26.109L274.506 24.7456Z" fill="#3F3D56"/>
</g>
<defs>
<clipPath id="clip0_268_2206">
<rect width="586" height="498" fill="white"/>
</clipPath>
</defs>
</svg>
