<svg width="481" height="359" viewBox="0 0 481 359" fill="none" xmlns="http://www.w3.org/2000/svg">
<g clip-path="url(#clip0_268_2298)">
<path d="M471.755 245.216H112.669C110.218 245.213 107.868 244.238 106.135 242.505C104.402 240.771 103.427 238.421 103.424 235.969V14.512C103.426 12.7159 104.14 10.9939 105.41 9.72388C106.68 8.45382 108.401 7.73938 110.197 7.7373H474.11C475.937 7.73939 477.688 8.46616 478.98 9.75819C480.272 11.0502 480.999 12.802 481.001 14.6292V235.969C480.998 238.421 480.023 240.771 478.29 242.505C476.556 244.238 474.206 245.213 471.755 245.216V245.216Z" fill="#F2F2F2"/>
<path d="M458.655 232.121H123.996C119.091 232.121 115.1 228.383 115.1 223.788V30.9406C115.1 27.5331 118.057 24.7607 121.692 24.7607H460.85C464.545 24.7607 467.552 27.5788 467.552 31.0423V223.788C467.552 228.383 463.56 232.121 458.655 232.121Z" fill="white"/>
<path d="M480.871 13.9829H103.293V9.27507C103.297 6.81526 104.275 4.4573 106.015 2.71849C107.755 0.979678 110.113 0.00202265 112.572 0H471.591C474.051 0.00202446 476.409 0.979688 478.149 2.7185C479.888 4.45731 480.867 6.81526 480.871 9.27507V13.9829Z" fill="#E6E6E6"/>
<path d="M120.158 9.40562C121.484 9.40562 122.558 8.33085 122.558 7.00506C122.558 5.67926 121.484 4.60449 120.158 4.60449C118.832 4.60449 117.758 5.67926 117.758 7.00506C117.758 8.33085 118.832 9.40562 120.158 9.40562Z" fill="white"/>
<path d="M129.267 9.40562C130.593 9.40562 131.668 8.33085 131.668 7.00506C131.668 5.67926 130.593 4.60449 129.267 4.60449C127.942 4.60449 126.867 5.67926 126.867 7.00506C126.867 8.33085 127.942 9.40562 129.267 9.40562Z" fill="white"/>
<path d="M138.379 9.40562C139.704 9.40562 140.779 8.33085 140.779 7.00506C140.779 5.67926 139.704 4.60449 138.379 4.60449C137.053 4.60449 135.979 5.67926 135.979 7.00506C135.979 8.33085 137.053 9.40562 138.379 9.40562Z" fill="white"/>
<path d="M264.803 177.912H444.021C446.398 177.912 448.679 176.967 450.36 175.286C452.042 173.604 452.986 171.323 452.986 168.945V87.9357C452.986 85.5575 452.042 83.2767 450.36 81.5951C448.679 79.9135 446.398 78.9688 444.021 78.9688H264.803C262.425 78.9688 260.145 79.9135 258.464 81.5951C256.782 83.2767 255.838 85.5575 255.838 87.9357V168.945C255.838 171.323 256.782 173.604 258.464 175.286C260.145 176.967 262.425 177.912 264.803 177.912V177.912Z" fill="#F2F2F2"/>
<path d="M424.455 132.924H281.569C280.38 132.924 279.24 132.452 278.399 131.611C277.558 130.77 277.086 129.63 277.086 128.441C277.086 127.251 277.558 126.111 278.399 125.27C279.24 124.429 280.38 123.957 281.569 123.957H424.455C425.643 123.957 426.784 124.429 427.624 125.27C428.465 126.111 428.937 127.251 428.937 128.441C428.937 129.63 428.465 130.77 427.624 131.611C426.784 132.452 425.643 132.924 424.455 132.924V132.924Z" fill="white"/>
<path d="M424.455 151.979H281.569C280.38 151.979 279.24 151.506 278.399 150.665C277.558 149.825 277.086 148.684 277.086 147.495C277.086 146.306 277.558 145.166 278.399 144.325C279.24 143.484 280.38 143.012 281.569 143.012H424.455C425.643 143.012 426.784 143.484 427.624 144.325C428.465 145.166 428.937 146.306 428.937 147.495C428.937 148.684 428.465 149.825 427.624 150.665C426.784 151.506 425.643 151.979 424.455 151.979V151.979Z" fill="white"/>
<path d="M399.239 113.869H281.569C280.38 113.869 279.24 113.397 278.399 112.556C277.558 111.715 277.086 110.575 277.086 109.386C277.086 108.197 277.558 107.056 278.399 106.216C279.24 105.375 280.38 104.902 281.569 104.902H399.239C400.428 104.902 401.568 105.375 402.409 106.216C403.25 107.056 403.722 108.197 403.722 109.386C403.722 110.575 403.25 111.715 402.409 112.556C401.568 113.397 400.428 113.869 399.239 113.869V113.869Z" fill="white"/>
<path d="M176.794 214.186C176.997 213.211 177.412 212.292 178.008 211.495C178.605 210.698 179.369 210.041 180.247 209.571C181.124 209.101 182.094 208.829 183.089 208.775C184.083 208.721 185.077 208.885 186 209.256L201.888 190.997L205.263 203.114L189.658 218.596C188.932 220.106 187.676 221.298 186.13 221.945C184.583 222.592 182.853 222.649 181.268 222.105C179.682 221.562 178.351 220.455 177.526 218.996C176.702 217.536 176.441 215.824 176.794 214.186H176.794Z" fill="#FFB8B8"/>
<path d="M263.991 128.502C273.178 128.502 280.625 121.053 280.625 111.865C280.625 102.677 273.178 95.2285 263.991 95.2285C254.805 95.2285 247.357 102.677 247.357 111.865C247.357 121.053 254.805 128.502 263.991 128.502Z" fill="#FFB8B8"/>
<path d="M244.45 340.861L236.147 340.86L232.197 308.829L244.451 308.83L244.45 340.861Z" fill="#FFB8B8"/>
<path d="M246.567 348.911L219.795 348.91V348.571C219.795 347.203 220.064 345.847 220.588 344.583C221.112 343.319 221.879 342.17 222.847 341.202C223.815 340.234 224.963 339.466 226.228 338.943C227.492 338.419 228.847 338.149 230.215 338.149H230.216L246.567 338.15L246.567 348.911Z" fill="#2F2E41"/>
<path d="M269.509 349.667L261.206 349.666L260.057 318.4L269.51 317.636L269.509 349.667Z" fill="#FFB8B8"/>
<path d="M271.625 357.717L244.854 357.716V357.377C244.853 356.008 245.123 354.653 245.647 353.389C246.17 352.124 246.938 350.975 247.906 350.007C248.873 349.04 250.022 348.272 251.286 347.748C252.55 347.225 253.906 346.955 255.274 346.955H255.275L271.626 346.956L271.625 357.717Z" fill="#2F2E41"/>
<path d="M267.147 343.822L260.682 343.06C259.948 342.972 259.272 342.621 258.777 342.073C258.282 341.525 258.003 340.815 257.99 340.077L256.779 255.855C256.775 255.617 256.688 255.387 256.532 255.207C256.377 255.026 256.163 254.906 255.928 254.867C255.692 254.829 255.451 254.874 255.246 254.995C255.041 255.117 254.885 255.306 254.805 255.531L245.835 280.864L246.476 328.347C246.487 329.131 246.196 329.889 245.662 330.463C245.129 331.038 244.395 331.384 243.613 331.431L235.171 331.79C234.399 331.834 233.639 331.584 233.043 331.091C232.448 330.598 232.06 329.898 231.958 329.131L227.55 275.416L227.547 275.383L234.236 219.284L284.476 222.92L270.53 341.152C270.441 341.893 270.085 342.575 269.528 343.071C268.97 343.567 268.251 343.841 267.505 343.843C267.385 343.843 267.266 343.836 267.147 343.822Z" fill="#1B67A5"/>
<path d="M234.45 224.256C233.999 224.016 233.616 223.665 233.338 223.236C233.059 222.808 232.893 222.315 232.855 221.806C232.855 221.806 237.373 193.706 239.029 193.179L235.407 163.129C234.973 159.464 235.275 155.749 236.296 152.202C237.317 148.656 239.037 145.349 241.353 142.476C243.584 139.689 246.356 137.382 249.502 135.696C252.649 134.01 256.104 132.98 259.66 132.666C260.166 132.62 260.67 132.586 261.171 132.562C265.457 132.332 269.735 133.141 273.642 134.919C277.549 136.698 280.969 139.394 283.61 142.778C286.351 146.19 288.226 150.215 289.078 154.508C289.929 158.802 289.731 163.237 288.5 167.438L286.468 174.509V223.926C286.466 224.409 286.351 224.884 286.132 225.313C285.913 225.743 285.596 226.116 285.207 226.401C278.881 231.044 271.732 232.686 264.785 232.686C251.639 232.686 239.214 226.807 234.45 224.256Z" fill="#00BFA6"/>
<path d="M195.449 215.214L186.711 208.678C186.368 208.422 186.083 208.096 185.875 207.723C185.666 207.349 185.539 206.935 185.5 206.509C185.462 206.082 185.514 205.653 185.653 205.248C185.792 204.843 186.015 204.472 186.307 204.159L238.362 148.294C240.033 146.517 242.286 145.397 244.711 145.139C247.137 144.881 249.575 145.502 251.582 146.888L251.583 146.889C252.806 147.741 253.826 148.853 254.57 150.145C255.315 151.437 255.765 152.878 255.89 154.364C256.014 155.85 255.809 157.345 255.29 158.743C254.771 160.141 253.951 161.407 252.886 162.452L199.409 214.948C198.939 215.414 198.329 215.713 197.674 215.8C197.018 215.886 196.352 215.756 195.777 215.428C195.663 215.364 195.554 215.292 195.449 215.214V215.214Z" fill="#00BFA6"/>
<path d="M262.324 207.817C262.706 206.898 263.285 206.073 264.02 205.401C264.755 204.73 265.629 204.228 266.579 203.93C267.529 203.633 268.533 203.547 269.519 203.68C270.506 203.812 271.452 204.159 272.29 204.697L291.311 189.731L292.361 202.266L274.137 214.556C273.141 215.904 271.684 216.84 270.044 217.186C268.404 217.532 266.694 217.265 265.238 216.434C263.782 215.604 262.681 214.268 262.144 212.68C261.607 211.091 261.671 209.361 262.324 207.817V207.817Z" fill="#FFB8B8"/>
<path d="M279.351 213.659C278.848 213.502 278.394 213.217 278.035 212.831C277.676 212.445 277.424 211.972 277.304 211.458L275.382 203.387C275.241 202.814 275.272 202.212 275.471 201.656C275.67 201.101 276.028 200.616 276.5 200.262L289.428 186.279L270.412 156.952C268.973 155.179 268.161 152.98 268.105 150.697C268.048 148.414 268.749 146.177 270.099 144.335C271.175 142.868 272.619 141.711 274.286 140.982C275.953 140.252 277.783 139.977 279.591 140.183C281.399 140.388 283.12 141.069 284.58 142.154C286.041 143.239 287.188 144.692 287.907 146.363L305.586 180.78C307.343 184.2 307.782 188.146 306.817 191.868C305.853 195.59 303.553 198.827 300.357 200.962L282.29 213.033C281.737 213.528 281.021 213.802 280.278 213.803C279.964 213.803 279.651 213.754 279.351 213.659Z" fill="#00BFA6"/>
<path d="M276.316 126.737C275.924 126.973 275.483 127.115 275.028 127.152C274.572 127.19 274.114 127.122 273.689 126.954C273.264 126.786 272.883 126.522 272.576 126.183C272.269 125.845 272.044 125.44 271.918 125L271.908 124.959C271.569 123.574 271.837 122.126 271.924 120.703C272.012 119.281 271.864 117.72 270.89 116.679C269.075 114.74 265.869 115.79 263.257 115.312C261.726 114.978 260.37 114.099 259.44 112.838C258.511 111.576 258.074 110.019 258.21 108.459C258.245 108.163 258.302 107.867 258.366 107.571C258.525 106.821 258.508 106.044 258.317 105.301C258.125 104.559 257.764 103.871 257.262 103.291C256.76 102.712 256.131 102.256 255.423 101.961C254.716 101.666 253.949 101.539 253.184 101.59C250.547 101.755 247.705 102.569 245.512 100.627C244.708 99.8605 244.147 98.8741 243.9 97.791C243.652 96.7079 243.73 95.5759 244.121 94.5363C245.348 90.9323 248.86 89.0302 252.34 87.9763C256.643 86.7076 261.175 86.4141 265.607 87.117C270.038 87.8199 274.257 89.5016 277.957 92.0398C280.167 93.5799 282.233 95.5189 283.185 98.0387C284.136 100.559 283.701 103.747 281.594 105.425C283.243 107.153 284.41 109.284 284.976 111.604C285.542 113.925 285.489 116.354 284.821 118.647C283.794 122.02 278.825 125.276 276.316 126.737Z" fill="#2F2E41"/>
<path d="M294.533 359H194.978C194.798 359 194.626 358.929 194.499 358.802C194.372 358.675 194.301 358.503 194.301 358.323C194.301 358.143 194.372 357.971 194.499 357.844C194.626 357.717 194.798 357.646 194.978 357.646H294.533C294.907 357.646 294.836 358.323 295.21 358.323C295.378 358.323 294.907 359 294.533 359Z" fill="#CCCCCC"/>
<path d="M185.098 79.8154C184.525 78.228 183.477 76.8557 182.097 75.885C180.716 74.9142 179.07 74.3922 177.383 74.3896H8.19749C6.02422 74.3888 3.93963 75.2515 2.4023 76.7879C0.864978 78.3243 0.000842236 80.4085 0 82.5822V212.441C0.00307792 214.615 0.867732 216.698 2.40439 218.235C3.94105 219.772 6.02433 220.637 8.19749 220.64H177.383C179.556 220.637 181.639 219.772 183.176 218.235C184.713 216.698 185.577 214.615 185.58 212.441V82.5885C185.582 81.6432 185.419 80.7047 185.098 79.8154V79.8154Z" fill="white"/>
<path d="M185.098 79.8154C184.525 78.228 183.477 76.8557 182.097 75.885C180.716 74.9142 179.07 74.3922 177.383 74.3896H8.19749C6.02422 74.3888 3.93963 75.2515 2.4023 76.7879C0.864978 78.3243 0.000842236 80.4085 0 82.5822V212.441C0.00307792 214.615 0.867732 216.698 2.40439 218.235C3.94105 219.772 6.02433 220.637 8.19749 220.64H177.383C179.556 220.637 181.639 219.772 183.176 218.235C184.713 216.698 185.577 214.615 185.58 212.441V82.5885C185.582 81.6432 185.419 80.7047 185.098 79.8154V79.8154ZM184.616 212.441C184.614 214.359 183.851 216.198 182.495 217.554C181.139 218.91 179.301 219.673 177.383 219.676H8.19749C6.27989 219.673 4.44149 218.91 3.08554 217.554C1.72959 216.198 0.966798 214.359 0.964464 212.441V82.5885C0.966796 80.6706 1.7296 78.8319 3.08555 77.4757C4.44151 76.1195 6.2799 75.3566 8.19751 75.3543H177.383C179.301 75.3566 181.139 76.1195 182.495 77.4757C183.851 78.8319 184.614 80.6706 184.616 82.5885V212.441Z" fill="#3F3D56"/>
<path d="M176.241 199.144H10.0007C9.86276 199.144 9.73044 199.085 9.63287 198.98C9.53531 198.875 9.48048 198.732 9.48047 198.584V112.832C9.48047 112.684 9.53526 112.541 9.63283 112.436C9.7304 112.331 9.86276 112.272 10.0007 112.272C10.1387 112.272 10.271 112.331 10.3686 112.436C10.4662 112.541 10.521 112.684 10.521 112.832V198.024H176.241C176.379 198.024 176.511 198.084 176.608 198.189C176.705 198.293 176.76 198.436 176.76 198.584C176.76 198.732 176.705 198.874 176.608 198.979C176.511 199.084 176.379 199.143 176.241 199.144V199.144Z" fill="#3F3D56"/>
<path d="M46.1383 192.708H31.5169C31.1209 192.708 30.7413 192.533 30.4614 192.221C30.1814 191.91 30.0239 191.488 30.0234 191.047V168.63C30.0239 168.189 30.1814 167.767 30.4614 167.456C30.7413 167.144 31.1209 166.969 31.5169 166.969H46.1383C46.5343 166.969 46.9138 167.144 47.1938 167.456C47.4738 167.767 47.6313 168.189 47.6318 168.63V191.047C47.6313 191.488 47.4738 191.91 47.1938 192.221C46.9138 192.533 46.5343 192.708 46.1383 192.708Z" fill="#00BFA6"/>
<path d="M73.8933 192.709H58.0534C57.6245 192.708 57.2133 192.534 56.91 192.225C56.6067 191.916 56.4361 191.497 56.4355 191.06V147.704C56.4361 147.267 56.6067 146.848 56.91 146.539C57.2133 146.23 57.6245 146.056 58.0534 146.056H73.8933C74.3223 146.056 74.7335 146.23 75.0368 146.539C75.3401 146.848 75.5107 147.267 75.5112 147.704V191.06C75.5107 191.497 75.3401 191.916 75.0368 192.225C74.7335 192.534 74.3223 192.708 73.8933 192.709V192.709Z" fill="#00BFA6"/>
<path d="M100.429 192.708H85.8079C85.412 192.708 85.0323 192.533 84.7524 192.221C84.4724 191.91 84.3149 191.488 84.3145 191.047V168.63C84.3149 168.189 84.4724 167.767 84.7524 167.456C85.0323 167.144 85.412 166.969 85.8079 166.969H100.429C100.825 166.969 101.205 167.144 101.485 167.456C101.765 167.767 101.922 168.189 101.923 168.63V191.047C101.922 191.488 101.765 191.91 101.485 192.221C101.205 192.533 100.825 192.708 100.429 192.708V192.708Z" fill="#00BFA6"/>
<path d="M128.31 192.708H113.689C113.302 192.717 112.927 192.557 112.647 192.264C112.368 191.971 112.205 191.567 112.195 191.142V139.578C112.205 139.153 112.368 138.75 112.647 138.456C112.927 138.163 113.302 138.003 113.689 138.012H128.31C128.697 138.003 129.072 138.163 129.351 138.456C129.631 138.75 129.794 139.153 129.804 139.578V191.142C129.794 191.567 129.631 191.971 129.351 192.264C129.072 192.557 128.697 192.717 128.31 192.708V192.708Z" fill="#00BFA6"/>
<path d="M156.065 192.709H140.225C139.796 192.708 139.385 192.532 139.082 192.22C138.779 191.907 138.608 191.483 138.607 191.041V123.592C138.608 123.15 138.779 122.726 139.082 122.414C139.385 122.101 139.796 121.925 140.225 121.925H156.065C156.494 121.925 156.905 122.101 157.209 122.414C157.512 122.726 157.683 123.15 157.683 123.592V191.041C157.683 191.483 157.512 191.907 157.209 192.22C156.905 192.532 156.494 192.708 156.065 192.709V192.709Z" fill="#00BFA6"/>
<path d="M38.8273 160.534C40.4481 160.534 41.762 159.093 41.762 157.316C41.762 155.539 40.4481 154.099 38.8273 154.099C37.2065 154.099 35.8926 155.539 35.8926 157.316C35.8926 159.093 37.2065 160.534 38.8273 160.534Z" fill="#3F3D56"/>
<path d="M65.2394 138.012C66.8602 138.012 68.1741 136.572 68.1741 134.795C68.1741 133.018 66.8602 131.577 65.2394 131.577C63.6186 131.577 62.3047 133.018 62.3047 134.795C62.3047 136.572 63.6186 138.012 65.2394 138.012Z" fill="#3F3D56"/>
<path d="M93.1202 160.534C94.741 160.534 96.055 159.093 96.055 157.316C96.055 155.539 94.741 154.099 93.1202 154.099C91.4994 154.099 90.1855 155.539 90.1855 157.316C90.1855 159.093 91.4994 160.534 93.1202 160.534Z" fill="#3F3D56"/>
<path d="M120.999 128.359C122.62 128.359 123.934 126.558 123.934 124.337C123.934 122.116 122.62 120.315 120.999 120.315C119.378 120.315 118.064 122.116 118.064 124.337C118.064 126.558 119.378 128.359 120.999 128.359Z" fill="#3F3D56"/>
<path d="M147.411 115.49C149.032 115.49 150.346 114.049 150.346 112.272C150.346 110.495 149.032 109.055 147.411 109.055C145.79 109.055 144.477 110.495 144.477 112.272C144.477 114.049 145.79 115.49 147.411 115.49Z" fill="#3F3D56"/>
<path d="M92.511 157.317L65.0587 135.359L37.9812 157.017L37.3613 156.134L65.0587 133.979L92.3805 155.834L119.53 124.104L119.64 124.057L147.027 112.272L147.413 113.296L120.135 125.034L92.511 157.317Z" fill="#3F3D56"/>
</g>
<defs>
<clipPath id="clip0_268_2298">
<rect width="481" height="359" fill="white"/>
</clipPath>
</defs>
</svg>
