<svg width="616" height="334" viewBox="0 0 616 334" fill="none" xmlns="http://www.w3.org/2000/svg">
<g clip-path="url(#clip0_268_2114)">
<path d="M540.872 137.731H89.4191C87.5022 137.731 85.6638 138.493 84.3084 139.849C82.9529 141.205 82.1914 143.043 82.1914 144.961C82.1914 146.878 82.9529 148.717 84.3084 150.073C85.6638 151.428 87.5022 152.19 89.4191 152.19H102.207V325.136C102.207 327.053 102.968 328.892 104.324 330.247C105.679 331.603 107.517 332.365 109.434 332.365C111.351 332.365 113.19 331.603 114.545 330.247C115.901 328.892 116.662 327.053 116.662 325.136L116.772 152.19H479.108L512.517 325.136C512.517 327.053 513.278 328.892 514.634 330.247C515.989 331.603 517.828 332.365 519.745 332.365C521.662 332.365 523.5 331.603 524.855 330.247C526.211 328.892 526.972 327.053 526.972 325.136L529.075 152.19H540.872C542.789 152.19 544.627 151.428 545.983 150.073C547.338 148.717 548.099 146.878 548.099 144.961C548.099 143.043 547.338 141.205 545.983 139.849C544.627 138.493 542.789 137.731 540.872 137.731V137.731Z" fill="#CCCCCC"/>
<path d="M242.421 246.061V219.369C242.421 218.189 241.953 217.057 241.118 216.223C240.284 215.389 239.153 214.92 237.973 214.92H136.786C135.606 214.92 134.475 215.389 133.641 216.223C132.807 217.057 132.338 218.189 132.338 219.369V246.061H242.421Z" fill="#CCCCCC"/>
<path d="M242.421 256.071H132.338V290.549H242.421V256.071Z" fill="#CCCCCC"/>
<path d="M132.338 300.559V327.251C132.338 328.431 132.807 329.563 133.641 330.397C134.475 331.231 135.606 331.7 136.786 331.7H237.973C239.153 331.7 240.284 331.231 241.118 330.397C241.953 329.563 242.421 328.431 242.421 327.251V300.559H132.338Z" fill="#CCCCCC"/>
<path d="M186.824 234.94C188.666 234.94 190.16 233.446 190.16 231.603C190.16 229.76 188.666 228.267 186.824 228.267C184.982 228.267 183.488 229.76 183.488 231.603C183.488 233.446 184.982 234.94 186.824 234.94Z" fill="white"/>
<path d="M186.824 279.427C188.666 279.427 190.16 277.933 190.16 276.09C190.16 274.248 188.666 272.754 186.824 272.754C184.982 272.754 183.488 274.248 183.488 276.09C183.488 277.933 184.982 279.427 186.824 279.427Z" fill="white"/>
<path d="M187.002 322.972C188.844 322.972 190.338 321.478 190.338 319.635C190.338 317.793 188.844 316.299 187.002 316.299C185.16 316.299 183.666 317.793 183.666 319.635C183.666 321.478 185.16 322.972 187.002 322.972Z" fill="white"/>
<path d="M337.572 137.037L333.883 135.483L331.353 116.987H297.654L294.911 135.408L291.611 137.058C291.453 137.137 291.326 137.267 291.252 137.427C291.177 137.587 291.158 137.768 291.199 137.94C291.239 138.111 291.337 138.265 291.475 138.374C291.614 138.484 291.785 138.543 291.961 138.543H337.268C337.449 138.543 337.624 138.481 337.764 138.366C337.904 138.251 338 138.092 338.036 137.915C338.072 137.737 338.045 137.553 337.961 137.393C337.876 137.233 337.739 137.107 337.572 137.037V137.037Z" fill="#E6E6E6"/>
<path d="M397.457 119.448H231.921C231.052 119.446 230.22 119.1 229.606 118.485C228.993 117.87 228.648 117.037 228.648 116.168V92.8203H400.729V116.168C400.729 117.037 400.385 117.87 399.771 118.485C399.158 119.1 398.326 119.446 397.457 119.448V119.448Z" fill="#CCCCCC"/>
<path d="M400.901 103.855H228.496V3.95431C228.497 2.90591 228.914 1.9008 229.655 1.15948C230.397 0.418164 231.402 0.00117309 232.45 0H396.948C397.996 0.00117307 399.001 0.418165 399.742 1.15948C400.483 1.9008 400.9 2.9059 400.901 3.95431L400.901 103.855Z" fill="#3F3D56"/>
<path d="M390.603 96.6043H238.792C237.984 96.6034 237.209 96.2819 236.638 95.7104C236.066 95.1389 235.745 94.3641 235.744 93.5558V10.2997C235.745 9.4914 236.066 8.71648 236.638 8.14494C237.209 7.5734 237.984 7.2519 238.792 7.25098H390.603C391.411 7.2519 392.186 7.5734 392.757 8.14494C393.329 8.71648 393.65 9.4914 393.651 10.2997V93.5558C393.65 94.3641 393.329 95.1389 392.757 95.7104C392.186 96.2819 391.411 96.6034 390.603 96.6043V96.6043Z" fill="white"/>
<path d="M350.619 125.981C351.599 125.075 352.766 124.395 354.037 123.99C355.308 123.584 356.653 123.462 357.976 123.632C359.299 123.802 360.569 124.261 361.696 124.975C362.823 125.689 363.78 126.642 364.499 127.766L385.033 124.115L390.296 136.055L361.225 140.804C359.257 141.887 356.96 142.211 354.769 141.713C352.578 141.215 350.646 139.931 349.339 138.104C348.032 136.277 347.44 134.034 347.676 131.799C347.912 129.565 348.959 127.494 350.619 125.981V125.981Z" fill="#FFB6B6"/>
<path d="M369.631 141.227L391.038 140.96L393.748 140.923L437.302 140.374C437.302 140.374 449.13 129.088 459.428 117.469L457.985 107.025C456.577 96.7766 451.494 87.3886 443.682 80.6084C428.932 90.4666 420.378 109.98 420.378 109.98L393.373 116.44L390.671 117.086L373.891 121.097L369.631 141.227Z" fill="#00BFA6"/>
<path d="M479.218 205.414H439.259C439.259 207.127 395.578 208.517 395.578 208.517C394.614 209.242 393.736 210.075 392.96 210.998C390.628 213.78 389.354 217.296 389.361 220.926V223.408C389.363 227.522 390.997 231.467 393.905 234.375C396.814 237.284 400.757 238.919 404.87 238.92H479.218C483.33 238.917 487.273 237.281 490.181 234.373C493.089 231.465 494.724 227.521 494.727 223.408V220.926C494.722 216.814 493.086 212.872 490.178 209.964C487.271 207.056 483.33 205.42 479.218 205.414V205.414Z" fill="#E4E4E4"/>
<path d="M450.161 238.304H434.031V331.423H450.161V238.304Z" fill="#E4E4E4"/>
<path d="M388.123 330.856C388.123 332.599 412.564 331.53 442.714 331.53C472.864 331.53 497.306 332.599 497.306 330.856C497.306 329.113 472.864 315.29 442.714 315.29C412.564 315.29 388.123 329.113 388.123 330.856Z" fill="#E4E4E4"/>
<path d="M377.289 320.216L365.285 320.216L359.574 273.904L377.29 273.905L377.289 320.216Z" fill="#FFB6B6"/>
<path d="M380.351 331.855L341.645 331.853V331.363C341.645 327.367 343.232 323.534 346.057 320.709C348.883 317.883 352.715 316.295 356.71 316.295H356.711L380.351 316.296L380.351 331.855Z" fill="#2F2E41"/>
<path d="M341.81 320.216L329.806 320.216L324.096 273.904L341.812 273.905L341.81 320.216Z" fill="#FFB6B6"/>
<path d="M344.872 331.855L306.166 331.853V331.363C306.166 327.367 307.754 323.534 310.579 320.709C313.404 317.883 317.236 316.295 321.232 316.295H321.232L344.873 316.296L344.872 331.855Z" fill="#2F2E41"/>
<path d="M449.338 53.5971C460.866 53.5971 470.21 44.2505 470.21 32.7209C470.21 21.1913 460.866 11.8447 449.338 11.8447C437.811 11.8447 428.467 21.1913 428.467 32.7209C428.467 44.2505 437.811 53.5971 449.338 53.5971Z" fill="#FFB6B6"/>
<path d="M483.121 175.757C483.121 175.757 490.124 212.796 463.478 217.513C436.833 222.229 398.369 225.544 398.369 225.544L381.096 306.15L357.891 304.077C357.891 304.077 360.977 207.047 368.567 199.455C376.156 191.864 424.126 169.134 424.126 169.134L483.121 175.757Z" fill="#1B67A5"/>
<path d="M431.08 160.233L419.427 171.927C419.427 171.927 335.281 185.483 332.035 204.922C327.134 234.27 321.346 298.09 321.346 298.09L346.645 296.192L356.566 223.647L397.044 214.437L443.097 189.334L431.08 160.233Z" fill="#1B67A5"/>
<path d="M469.424 20.2599C467.364 16.3718 464.746 8.62271 460.588 7.18556C458.278 6.41963 455.891 5.91104 453.47 5.66902L446.402 8.38824L450.249 5.3956C449.5 5.35097 448.751 5.31448 448.003 5.28614L443.234 7.12081L445.674 5.22266C441.228 5.17702 436.638 5.63943 433.193 8.3467C430.256 10.6547 427.346 19.3977 426.876 23.1036C426.373 26.6489 426.549 30.2576 427.394 33.7371L428.602 34.8858C429.025 33.9168 429.342 32.9054 429.55 31.8689C429.983 29.9321 430.814 28.1068 431.992 26.5093C433.169 24.9119 434.666 23.5772 436.388 22.5904L436.453 22.5533C438.479 21.413 440.937 21.4656 443.26 21.5492L454.293 21.9463C456.947 22.0418 459.805 22.2098 461.875 23.8752C463.19 25.1037 464.224 26.6021 464.906 28.2677C465.934 30.3436 467.944 38.1731 467.944 38.1731C467.944 38.1731 469.081 36.6952 469.626 37.7952C470.499 34.9252 471.031 31.9618 471.208 28.967C471.382 25.9588 470.767 22.9573 469.424 20.2599V20.2599Z" fill="#2F2E41"/>
<path d="M542.423 41.8892C541.092 41.9769 539.796 42.3555 538.627 42.9983C537.457 43.6412 536.443 44.5327 535.656 45.6099C534.868 46.6872 534.326 47.9241 534.068 49.2335C533.81 50.5429 533.843 51.8929 534.163 53.1885L517.379 65.5718L522.415 77.609L545.872 59.7884C548.012 59.1062 549.828 57.6624 550.975 55.7305C552.122 53.7987 552.521 51.5131 552.096 49.3068C551.671 47.1005 550.452 45.1268 548.669 43.7597C546.886 42.3926 544.664 41.727 542.423 41.8892V41.8892Z" fill="#FFB6B6"/>
<path d="M539.722 67.1698L497.647 113.91C497.647 113.91 477.525 107.467 461.964 100.482L454.973 79.0055C453.349 74.0232 452.656 68.7846 452.929 63.5515C474.501 57.8099 499.593 79.1738 499.593 79.1738L531.089 54.498L539.722 67.1698Z" fill="#00BFA6"/>
<path d="M441.544 179.209C434.037 176.615 426.275 173.934 417.903 172.927L417.543 172.883L417.642 172.535C426.309 142.097 424.146 122.627 419.899 93.3788C418.995 87.07 420.156 80.6383 423.208 75.0435C426.259 69.4487 431.037 64.9909 436.83 62.3355L436.881 62.3122L460.794 60.7924L460.848 60.7891L478.239 65.9051C480.741 66.6465 482.931 68.1879 484.473 70.2931C486.015 72.3983 486.825 74.9512 486.778 77.5606C486.59 87.1793 486.989 97.9183 487.412 109.288C488.361 134.794 489.343 161.169 483.774 178.281L483.745 178.371L483.67 178.429C478.551 182.6 472.138 184.853 465.535 184.801C457.729 184.801 449.763 182.049 441.544 179.209Z" fill="#00BFA6"/>
<path d="M615.11 334H0.890175C0.654087 334 0.42767 333.876 0.26073 333.655C0.0937903 333.434 0 333.134 0 332.821C0 332.509 0.0937903 332.209 0.26073 331.988C0.42767 331.767 0.654087 331.643 0.890175 331.643H615.11C615.346 331.643 615.572 331.767 615.739 331.988C615.906 332.209 616 332.509 616 332.821C616 333.134 615.906 333.434 615.739 333.655C615.572 333.876 615.346 334 615.11 334Z" fill="#CCCCCC"/>
<g clip-path="url(#clip1_268_2114)">
<path d="M333.079 23.9338C332.569 23.9338 332.23 24.0024 331.887 24.0873V24.1396H331.939C332.177 24.5805 332.569 24.9235 332.873 25.3318C333.111 25.7924 333.314 26.266 333.536 26.7265L333.605 26.6579C334.013 26.3672 334.218 25.9099 334.218 25.2109C334.049 25.0052 334.013 24.7863 333.863 24.5969C333.693 24.3062 333.317 24.1559 333.079 23.9338ZM286.766 81.3982H282.736C282.614 74.9827 282.223 68.575 281.564 62.1923H281.531L275.392 81.3982H272.312L266.222 62.1923H266.169C265.696 68.5844 265.413 74.9892 265.32 81.3982H261.646C261.845 73.344 262.442 65.3045 263.433 57.3091H268.432L274.249 75.0028H274.281L280.15 57.3091H284.911C285.966 66.089 286.596 74.1176 286.782 81.3982H286.766ZM304.25 63.6229C302.617 72.5367 300.439 79.0204 297.771 83.051C295.661 86.1638 293.366 87.7284 290.864 87.7284C290.201 87.7284 289.385 87.5226 288.398 87.1143V84.9716C288.892 85.0402 289.453 85.0892 290.084 85.0892C291.256 85.0892 292.193 84.7495 292.908 84.1191C293.757 83.3352 294.185 82.4533 294.185 81.4832C294.185 80.8038 293.862 79.4417 293.183 77.3676L288.777 63.6229H292.742L295.906 73.8988C296.621 76.2472 296.928 77.8641 296.791 78.7982C298.542 74.1699 299.75 69.1005 300.432 63.6229H304.25ZM357.927 81.3982H346.465V57.3091H350.325V78.439H357.927V81.3982ZM343.47 81.9797L339.048 79.801C339.44 79.4776 339.812 79.1216 340.155 78.7133C342.043 76.5184 342.98 73.2357 342.98 68.9144C342.98 60.9347 339.852 56.9563 333.591 56.9563C330.528 56.9563 328.131 57.9591 326.414 59.9842C324.542 62.1955 323.589 65.4619 323.589 69.7669C323.589 74.0033 324.422 77.0998 326.09 79.089C327.622 80.8593 329.918 81.7608 332.997 81.7608C334.137 81.7608 335.192 81.6236 336.145 81.3362L341.912 84.7038L343.493 81.9829L343.47 81.9797ZM329.134 76.5673C328.148 75.0028 327.671 72.4844 327.671 69.0123C327.671 62.9402 329.509 59.9124 333.2 59.9124C335.123 59.9124 336.55 60.644 337.451 62.091C338.421 63.6719 338.914 66.1576 338.914 69.5938C338.914 75.7018 337.06 78.7819 333.386 78.7819C331.446 78.7819 330.035 78.0503 329.118 76.6033L329.134 76.5673ZM321.92 74.7317C321.92 76.7731 321.172 78.4586 319.657 79.7487C318.161 81.0585 316.169 81.7216 313.635 81.7216C311.271 81.7216 309.008 80.9736 306.781 79.4744L307.819 77.4003C309.723 78.354 311.441 78.8309 313.008 78.8309C314.455 78.8309 315.595 78.5075 316.411 77.8771C317.227 77.2304 317.721 76.3289 317.721 75.189C317.721 73.7583 316.718 72.5334 314.896 71.5143C313.211 70.5802 309.828 68.6563 309.828 68.6563C307.989 67.3139 307.088 65.8832 307.088 63.5184C307.088 61.5619 307.767 59.9973 309.129 58.8051C310.507 57.5802 312.257 56.9857 314.435 56.9857C316.602 56.9669 318.727 57.5885 320.542 58.7724L319.608 60.8465C318.149 60.2038 316.575 59.8628 314.981 59.8438C313.74 59.8438 312.786 60.1508 312.123 60.7453C311.46 61.3398 311.052 62.0877 311.052 63.0252C311.052 64.4558 312.074 65.6807 313.942 66.7325C315.66 67.6666 319.112 69.6427 319.112 69.6427C320.999 70.9689 321.936 72.3995 321.936 74.7284L321.92 74.7317ZM362.76 49.2315C360.428 49.1792 358.626 49.4177 357.114 50.0644C356.689 50.2343 355.99 50.2343 355.922 50.7797C356.16 51.0182 356.193 51.3938 356.399 51.7139C356.755 52.292 357.352 53.076 357.914 53.4842C358.528 53.9611 359.138 54.438 359.769 54.8463C360.908 55.5453 362.185 55.9536 363.305 56.6493C363.936 57.0576 364.582 57.5835 365.209 58.0114C365.533 58.2335 365.735 58.6254 366.143 58.7594V58.6744C365.937 58.4197 365.889 58.044 365.683 57.7403C365.392 57.4496 365.105 57.1948 364.814 56.9074C363.962 55.7764 362.941 54.7837 361.787 53.9644C360.853 53.334 358.812 52.4488 358.436 51.3775L358.384 51.3089C359.014 51.2566 359.762 51.0182 360.373 50.8483C361.359 50.5935 362.277 50.6425 363.299 50.3878C363.768 50.2661 364.233 50.1299 364.693 49.9795V49.7247C364.168 49.1988 363.776 48.4835 363.23 47.9903C361.728 46.675 360.123 45.4802 358.433 44.4169C357.515 43.8225 356.359 43.4468 355.39 42.9536C355.05 42.7838 354.456 42.6988 354.266 42.4081C353.74 41.7614 353.433 40.9285 353.058 40.1609C352.204 38.5003 351.41 36.8094 350.677 35.0916C350.151 33.9516 349.844 32.828 349.198 31.773C346.203 26.8212 342.938 23.8293 337.938 20.8863C336.867 20.2723 335.574 20.0175 334.212 19.6941C333.48 19.6615 332.765 19.6092 332.034 19.5765C331.557 19.3708 331.1 18.8286 330.692 18.5542C329.026 17.4992 324.738 15.2356 323.53 18.2308C322.746 20.1351 324.686 21.9904 325.369 22.9441C325.862 23.6235 326.492 24.3748 326.848 25.1228C327.054 25.6323 327.103 26.1614 327.308 26.6873C327.769 27.9645 328.21 29.3918 328.824 30.584C329.147 31.1981 329.487 31.8416 329.895 32.3871C330.133 32.7104 330.541 32.8476 330.626 33.3735C330.218 33.968 330.185 34.8368 329.963 35.5521C328.909 38.8511 329.317 42.9177 330.796 45.3511C331.273 46.0828 332.377 47.6833 333.859 47.0692C335.169 46.5433 334.881 44.8905 335.254 43.4272C335.339 43.0712 335.286 42.8491 335.459 42.6107V42.6792C335.884 43.4958 336.292 44.2797 336.668 45.0963C337.553 46.527 339.133 48.0066 340.443 48.993C341.142 49.5189 341.684 50.4237 342.552 50.7438V50.6589H342.484C342.298 50.4041 342.059 50.2832 341.821 50.0807C341.269 49.5343 340.758 48.9492 340.289 48.33C339.081 46.6968 337.994 44.8938 337.04 43.0385C336.581 42.1219 336.161 41.1857 335.783 40.2328C335.613 39.8931 335.613 39.3639 335.322 39.1941C334.881 39.8245 334.235 40.3667 333.928 41.1669C333.366 42.4081 333.314 43.9564 333.095 45.5569C332.994 45.5895 333.043 45.5569 332.994 45.6255C332.06 45.387 331.737 44.4333 331.394 43.6167C330.509 41.5426 330.372 38.224 331.123 35.8428C331.328 35.2288 332.194 33.3082 331.854 32.73C331.668 32.1682 331.09 31.8448 330.783 31.4039C330.391 30.8584 329.999 30.1627 329.728 29.5486C329.029 27.9155 328.69 26.1125 327.926 24.4793C327.586 23.7313 326.972 22.9474 326.479 22.2517C325.917 21.4677 325.307 20.9092 324.879 19.9881C324.725 19.6647 324.523 19.1389 324.761 18.7959C324.813 18.5574 324.931 18.4725 325.169 18.4039C325.545 18.0806 326.632 18.4889 327.008 18.675C328.079 19.0997 328.98 19.5079 329.882 20.122C330.29 20.4127 330.731 20.9549 331.26 21.1084H331.874C332.808 21.3142 333.846 21.1607 334.715 21.4318C336.263 21.925 337.657 22.6403 338.914 23.421C342.759 25.8897 345.886 29.328 347.98 33.3898C348.336 34.0529 348.489 34.667 348.813 35.3627C349.407 36.8097 350.174 38.2534 350.785 39.6318C351.396 41.0102 351.977 42.4049 352.859 43.5448C353.3 44.1589 355.037 44.479 355.834 44.786C356.412 45.0571 357.313 45.2956 357.822 45.6026C358.825 46.2167 359.811 46.9124 360.748 47.5918C361.225 47.9152 362.672 48.6468 362.757 49.225L362.76 49.2315Z" fill="#00BFA6"/>
</g>
</g>
<defs>
<clipPath id="clip0_268_2114">
<rect width="616" height="334" fill="white"/>
</clipPath>
<clipPath id="clip1_268_2114">
<rect width="104.5" height="104.522" fill="white" transform="translate(261.643 -0.786133)"/>
</clipPath>
</defs>
</svg>
